# Blender 5.1.0
# www.blender.org
mtllib Coche.mtl
o car_body
v 0.655631 0.433545 1.624929
v 0.655631 0.480010 1.639564
v 0.655631 0.367719 1.604196
v 0.655631 0.414184 1.618831
v 0.836174 0.202359 0.667968
v 0.913244 0.488093 0.727187
v 0.913244 0.702816 0.997324
v 0.913244 0.702816 1.174526
v 0.913244 0.488093 1.444663
v 0.853814 0.268193 1.466506
v 0.913244 0.630434 -1.496756
v 0.913244 0.702815 -1.337102
v 0.913244 0.702815 -1.159900
v 0.913244 0.630434 -1.000246
v 0.913244 0.491892 -0.889762
v 0.837157 0.206029 -0.830544
v 0.913244 0.491892 -1.607239
v 0.854116 0.266578 -1.619153
v 0.913244 0.626636 1.667052
v 0.913244 0.488093 1.667052
v 0.855777 0.275518 1.606386
v 0.913244 0.630434 -1.762119
v 0.913244 0.702815 -1.762119
v 0.913244 0.491892 -1.792055
v 0.860697 0.293881 -1.762118
v 0.914566 0.872006 1.562767
v 0.913749 0.884021 -0.779777
v 0.913178 0.883815 -1.762119
v 0.914057 0.881400 0.644977
v 0.823699 1.094301 0.684694
v 0.670582 1.687608 -0.000373
v 0.447554 0.202359 0.667968
v 0.524625 0.488093 0.727187
v 0.524625 0.703521 0.997324
v 0.524625 0.703521 1.174526
v 0.524625 0.488093 1.444663
v 0.465194 0.268193 1.466506
v 0.524625 0.630434 -1.496756
v 0.524625 0.707319 -1.337102
v 0.524625 0.707319 -1.159900
v 0.524625 0.630434 -1.000246
v 0.524625 0.491892 -0.889762
v 0.448537 0.206029 -0.830544
v 0.524625 0.491892 -1.607239
v 0.472077 0.266578 -1.619153
v 0.670515 1.664207 -0.019145
v 0.823632 1.070900 0.665921
v 0.713140 1.677375 -1.373270
v 0.832433 1.089939 -1.745498
v 0.913749 0.487857 -0.779777
v 0.713647 1.675933 -0.781773
v 0.704493 1.712425 -0.031432
v 0.870479 1.069251 0.715752
v 0.871622 1.062582 -0.779777
v 0.684695 1.668272 -0.755900
v 0.678376 1.665389 -0.049103
v 0.832590 1.091164 -0.785691
v 0.822644 1.071211 0.633916
v 0.680211 1.684115 -1.435592
v 0.703800 1.714392 -0.738873
v 0.861903 1.096662 -1.676096
v 0.861711 1.098307 -0.826402
v 0.832650 1.090859 -0.826394
v 0.832843 1.089213 -1.676088
v 0.684080 1.669926 -1.373262
v 0.684586 1.668484 -0.781765
v 0.441078 0.626636 1.667052
v 0.404712 0.271607 1.606386
v 0.441078 0.488093 1.667052
v 0.913244 0.702816 1.637984
v 0.441078 0.702816 1.637984
v 0.307734 0.764129 1.610882
v 0.298264 0.715360 1.632444
v 0.282010 0.753103 1.599228
v 0.274521 0.714532 1.616281
v 0.655631 0.472733 1.662668
v 0.404712 0.472710 1.662741
v 0.655631 0.425871 1.649294
v 0.655631 0.406344 1.643722
v 0.404712 0.425778 1.649589
v 0.655631 0.359456 1.630431
v 0.404712 0.406222 1.644109
v 0.404712 0.359290 1.630958
v 0.913749 0.484601 0.644977
v 0.870589 1.071375 0.644977
v 0.836215 0.202511 0.553347
v 0.447641 0.202683 0.553347
v 0.847053 0.282740 -0.746179
v 0.846409 0.279920 0.594164
v 0.708389 1.697276 -0.072829
v 0.707676 1.699293 -0.747120
v 0.474824 0.872599 1.562767
v 0.845589 0.872102 1.562767
v 0.799824 1.069462 0.715752
v 0.296223 0.433545 1.624929
v 0.296223 0.472710 1.662741
v 0.296223 0.425778 1.649589
v 0.296223 0.480010 1.639564
v 0.296223 0.406222 1.644109
v 0.296223 0.414184 1.618831
v 0.296223 0.367719 1.604196
v 0.296223 0.359290 1.630958
v 0.524625 0.630435 0.840808
v 0.524625 0.630435 1.342869
v 0.913244 0.630435 1.342869
v 0.913244 0.630435 0.840808
v 0.703231 1.716009 -1.418965
v 0.871806 1.057961 -1.762119
v 0.680193 1.668804 -1.412519
v 0.832415 1.074627 -1.722425
v 0.845589 0.702816 1.637984
v 0.000000 0.433546 1.624929
v 0.000000 0.480010 1.639564
v -0.655631 0.433545 1.624929
v -0.655631 0.480010 1.639564
v 0.000000 0.367719 1.604196
v 0.000000 0.414184 1.618831
v -0.655631 0.367719 1.604196
v -0.655631 0.414184 1.618831
v -0.836174 0.202359 0.667968
v -0.913244 0.488093 0.727187
v -0.913244 0.702816 0.997324
v -0.913244 0.702816 1.174526
v -0.913244 0.488093 1.444663
v -0.853814 0.268193 1.466506
v -0.913244 0.630434 -1.496756
v -0.913244 0.702815 -1.337102
v -0.913244 0.702815 -1.159900
v -0.913244 0.630434 -1.000246
v -0.913244 0.491892 -0.889762
v -0.837157 0.206029 -0.830544
v -0.913244 0.491892 -1.607239
v -0.854116 0.266578 -1.619153
v -0.913244 0.626636 1.667052
v -0.913244 0.488093 1.667052
v -0.855777 0.275518 1.606386
v -0.913244 0.630434 -1.762119
v -0.913244 0.702815 -1.762119
v -0.913244 0.491892 -1.792055
v -0.860697 0.293881 -1.762118
v -0.914566 0.872006 1.562767
v -0.913749 0.884021 -0.779777
v -0.913178 0.883815 -1.762119
v -0.914057 0.881400 0.644977
v -0.823699 1.094301 0.684694
v -0.670582 1.687608 -0.000373
v 0.000000 0.488093 1.667052
v 0.000000 0.267953 1.606386
v 0.000000 0.286963 -1.762118
v -0.447554 0.202359 0.667968
v -0.524625 0.488093 0.727187
v -0.524625 0.703521 0.997324
v -0.524625 0.703521 1.174526
v -0.524625 0.488093 1.444663
v -0.465194 0.268193 1.466506
v -0.524625 0.630434 -1.496756
v -0.524625 0.707319 -1.337102
v -0.524625 0.707319 -1.159900
v -0.524625 0.630434 -1.000246
v -0.524625 0.491892 -0.889762
v -0.448537 0.206029 -0.830544
v -0.524625 0.491892 -1.607239
v -0.472077 0.266578 -1.619153
v 0.000000 0.202359 0.667968
v 0.000000 0.206029 -0.830544
v 0.000000 1.666124 -0.019145
v 0.000000 1.073270 0.665922
v -0.670515 1.664207 -0.019145
v -0.823632 1.070900 0.665921
v -0.713140 1.677375 -1.373270
v -0.832433 1.089939 -1.745498
v -0.913749 0.487857 -0.779777
v -0.713647 1.675933 -0.781773
v -0.704493 1.712425 -0.031432
v -0.870479 1.069251 0.715752
v -0.871622 1.062582 -0.779777
v -0.684695 1.668272 -0.755900
v -0.678376 1.665389 -0.049103
v -0.832590 1.091164 -0.785691
v -0.822644 1.071211 0.633916
v -0.680211 1.684115 -1.435592
v -0.703800 1.714392 -0.738873
v -0.861903 1.096662 -1.676096
v -0.861711 1.098307 -0.826402
v -0.832650 1.090859 -0.826394
v -0.832843 1.089213 -1.676088
v -0.684080 1.669926 -1.373262
v -0.684586 1.668484 -0.781765
v -0.441078 0.626636 1.667052
v -0.404712 0.271607 1.606386
v -0.441078 0.488093 1.667052
v -0.913244 0.702816 1.637984
v -0.441078 0.702816 1.637984
v -0.307734 0.764129 1.610882
v -0.298264 0.715360 1.632444
v -0.282010 0.753103 1.599228
v -0.274521 0.714532 1.616281
v -0.655631 0.472733 1.662668
v -0.404712 0.472710 1.662741
v -0.655631 0.425871 1.649294
v -0.655631 0.406344 1.643722
v -0.404712 0.425778 1.649589
v 0.000000 0.425778 1.649589
v -0.655631 0.359456 1.630431
v -0.404712 0.406222 1.644109
v 0.000000 0.406222 1.644109
v -0.404712 0.359290 1.630958
v 0.000000 0.359290 1.630958
v 0.000000 0.472710 1.662741
v -0.913749 0.484601 0.644977
v -0.870589 1.071375 0.644977
v -0.836215 0.202511 0.553347
v -0.447641 0.202683 0.553347
v 0.000000 0.202683 0.553347
v -0.847053 0.282740 -0.746179
v -0.846409 0.279920 0.594164
v -0.708389 1.697276 -0.072829
v -0.707676 1.699293 -0.747120
v -0.474824 0.872599 1.562767
v -0.845589 0.872102 1.562767
v -0.799824 1.069462 0.715752
v 0.000000 0.881400 0.644977
v 0.000000 1.071211 0.633917
v -0.296223 0.433545 1.624929
v -0.296223 0.472710 1.662741
v -0.296223 0.425778 1.649589
v -0.296223 0.480010 1.639564
v -0.296223 0.406222 1.644109
v -0.296223 0.414184 1.618831
v -0.296223 0.367719 1.604196
v -0.296223 0.359290 1.630958
v -0.524625 0.630435 0.840808
v -0.524625 0.630435 1.342869
v -0.913244 0.630435 1.342869
v -0.913244 0.630435 0.840808
v -0.703231 1.716009 -1.418965
v -0.871806 1.057961 -1.762119
v -0.680193 1.668804 -1.412519
v -0.832415 1.074627 -1.722425
v 0.000000 1.668483 -0.781765
v -0.845589 0.702816 1.637984
v 0.923848 0.716864 1.642468
v 0.484478 0.716864 1.639618
v 0.923848 0.832581 1.590898
v 0.513274 0.832581 1.591037
v 0.923848 0.832581 1.473610
v 0.923848 0.716864 1.473179
v 0.894891 0.702087 1.616445
v 0.458776 0.702087 1.614150
v 0.494135 0.847057 1.552587
v 0.894891 0.845825 1.554166
v 0.894891 0.848013 1.452176
v 0.894891 0.702087 1.451764
v 0.842736 0.702087 1.616445
v 0.844020 0.716864 1.641934
v 0.845458 0.832581 1.590924
v 0.844502 0.845887 1.553782
v -0.923849 0.716864 1.642468
v -0.484478 0.716864 1.639618
v -0.923849 0.832581 1.590898
v -0.513275 0.832581 1.591037
v -0.923849 0.832581 1.473610
v -0.923849 0.716864 1.473179
v -0.894891 0.702087 1.616445
v -0.458777 0.702087 1.614150
v -0.494135 0.847057 1.552587
v -0.894891 0.845825 1.554166
v -0.894891 0.848013 1.452176
v -0.894891 0.702087 1.451764
v -0.842736 0.702087 1.616445
v -0.844020 0.716864 1.641934
v -0.845459 0.832581 1.590924
v -0.844503 0.845887 1.553782
v 0.756797 0.648983 -1.753343
v 0.756797 0.695906 -1.753343
v 0.756797 0.886010 -1.753343
v 0.902540 0.648983 -1.668925
v 0.902540 0.883606 -1.668925
v 0.766186 0.648983 -1.775445
v 0.766186 0.886010 -1.775445
v 0.923621 0.648983 -1.680747
v 0.923621 0.695906 -1.680747
v 0.923621 0.883606 -1.680747
v 0.766186 0.695906 -1.775445
v 0.902540 0.694996 -1.668925
v 0.766186 0.778652 -1.775445
v 0.923621 0.778652 -1.680747
v 0.756797 0.778652 -1.753343
v 0.902540 0.778185 -1.668925
v 0.914971 0.648983 -1.775445
v 0.923621 0.648983 -1.766740
v 0.914971 0.695906 -1.775445
v 0.923621 0.695906 -1.766740
v 0.923621 0.885776 -1.766740
v 0.914971 0.886010 -1.775445
v 0.923621 0.778652 -1.766740
v 0.914971 0.778652 -1.775445
v -0.756797 0.648983 -1.753343
v -0.756797 0.695906 -1.753343
v -0.756797 0.886010 -1.753343
v -0.902540 0.648983 -1.668925
v -0.902540 0.883606 -1.668925
v -0.766186 0.648983 -1.775445
v -0.766186 0.886010 -1.775445
v -0.923621 0.648983 -1.680747
v -0.923621 0.695906 -1.680747
v -0.923621 0.883606 -1.680747
v -0.766186 0.695906 -1.775445
v -0.902540 0.694996 -1.668925
v -0.766186 0.778652 -1.775445
v -0.923621 0.778652 -1.680747
v -0.756797 0.778652 -1.753343
v -0.902540 0.778185 -1.668925
v -0.914971 0.648983 -1.775445
v -0.923621 0.648983 -1.766740
v -0.914971 0.695906 -1.775445
v -0.923621 0.695906 -1.766740
v -0.923621 0.885776 -1.766740
v -0.914971 0.886010 -1.775445
v -0.923621 0.778652 -1.766740
v -0.914971 0.778652 -1.775445
v 0.717045 0.372466 1.116085
v 0.717184 0.373413 1.015626
v -0.711789 0.372466 1.116085
v 0.703112 0.266408 1.017140
v -0.711927 0.373413 1.015626
v 0.702973 0.265462 1.117599
v -0.725861 0.265462 1.117599
v -0.725999 0.266408 1.017140
v 0.717045 0.372466 -1.194001
v 0.717184 0.373413 -1.294460
v -0.711789 0.372466 -1.194001
v 0.703112 0.266408 -1.292946
v -0.711927 0.373413 -1.294460
v 0.702973 0.265462 -1.192487
v -0.725861 0.265462 -1.192487
v -0.725999 0.266408 -1.292946
v 0.922009 0.965474 -0.585601
v 0.922009 0.922858 -0.585601
v 0.922009 0.965474 -0.552156
v 0.922009 0.922858 -0.552156
v 0.947866 0.956836 -0.561374
v 0.947866 0.956836 -0.585601
v 0.947866 0.931497 -0.585601
v 0.947866 0.931497 -0.561374
v 0.922009 0.965474 -0.706496
v 0.922009 0.922858 -0.706496
v 0.947866 0.956836 -0.706496
v 0.947866 0.931497 -0.706496
v 0.922009 0.965474 -0.740941
v 0.922009 0.922858 -0.740941
v 0.947866 0.956836 -0.731723
v 0.947866 0.931497 -0.731723
v 0.890190 0.922858 -0.552156
v 0.890190 0.965474 -0.552156
v 0.890190 0.965474 -0.585601
v 0.890190 0.922858 -0.585601
v 0.890190 0.922858 -0.706496
v 0.890190 0.965474 -0.706496
v 0.890190 0.922858 -0.740941
v 0.890190 0.965474 -0.740941
v 0.714972 1.673896 -0.088090
v 0.861369 1.106243 0.532020
v 0.714345 1.675735 -0.700880
v 0.913838 0.489467 -0.771299
v 0.913838 0.883248 -0.771299
v 0.862226 1.098751 -0.726845
v 0.872182 1.059812 -0.771299
v 0.685288 1.668272 -0.700861
v 0.685915 1.666433 -0.088072
v 0.833169 1.091289 -0.726827
v 0.832312 1.098780 0.532038
v 0.913838 0.486248 0.637519
v 0.914142 0.880656 0.637519
v 0.871160 1.068506 0.637519
v 0.847887 0.292378 -0.740849
v 0.847474 0.289589 0.586565
v 0.710029 1.693161 -0.072558
v 0.709324 1.695156 -0.739307
v 0.839348 0.490745 -0.790056
v 0.839348 1.049895 -0.790056
v 0.839348 0.488296 0.650257
v 0.839348 1.068506 0.650257
v 0.688352 1.692163 -0.073326
v 0.687647 1.694158 -0.758832
v 0.839348 0.284400 -0.759606
v 0.839348 0.281800 0.599304
v 0.833169 1.091289 -0.726827
v 0.858394 1.014616 0.544793
v 0.858394 1.070008 0.544793
v 0.849938 1.014616 0.422657
v 0.849938 1.070008 0.422657
v 0.927905 1.014616 0.531413
v 0.927905 1.070008 0.531413
v 0.908955 1.014616 0.435570
v 0.908955 1.070008 0.435570
v 0.919767 1.014616 0.490255
v 0.919767 1.070008 0.490255
v 0.960158 1.070008 0.525036
v 0.952021 1.070008 0.483878
v 0.952021 1.081269 0.483878
v 0.960158 1.081269 0.525036
v 0.929205 1.171886 0.488389
v 0.929205 1.090890 0.488389
v 0.927905 1.181507 0.531413
v 0.952021 1.181507 0.483878
v 0.927905 1.081269 0.531413
v 0.960158 1.181507 0.525036
v 1.088321 1.181507 0.499696
v 1.088321 1.081269 0.499696
v 1.070746 1.171886 0.460405
v 1.070746 1.090890 0.460405
v 0.919767 1.181507 0.490255
v 0.919767 1.081269 0.490255
v 0.952021 1.090890 0.483878
v 0.952021 1.171886 0.483878
v 1.080184 1.181507 0.458539
v 1.080184 1.081269 0.458539
v 0.960158 1.014616 0.525036
v 0.952021 1.014616 0.483878
v -0.922009 0.965474 -0.585601
v -0.922009 0.922858 -0.585601
v -0.922009 0.965474 -0.552156
v -0.922009 0.922858 -0.552156
v -0.947866 0.956836 -0.561374
v -0.947866 0.956836 -0.585601
v -0.947866 0.931497 -0.585601
v -0.947866 0.931497 -0.561374
v -0.922009 0.965474 -0.706496
v -0.922009 0.922858 -0.706496
v -0.947866 0.956836 -0.706496
v -0.947866 0.931497 -0.706496
v -0.922009 0.965474 -0.740941
v -0.922009 0.922858 -0.740941
v -0.947866 0.956836 -0.731723
v -0.947866 0.931497 -0.731723
v -0.890190 0.922858 -0.552156
v -0.890190 0.965474 -0.552156
v -0.890190 0.965474 -0.585601
v -0.890190 0.922858 -0.585601
v -0.890190 0.922858 -0.706496
v -0.890190 0.965474 -0.706496
v -0.890190 0.922858 -0.740941
v -0.890190 0.965474 -0.740941
v -0.714972 1.673896 -0.088090
v -0.861369 1.106243 0.532020
v -0.714345 1.675735 -0.700880
v -0.913838 0.489467 -0.771299
v -0.913838 0.883248 -0.771299
v -0.862226 1.098751 -0.726845
v -0.872182 1.059812 -0.771299
v -0.685288 1.668272 -0.700861
v -0.685915 1.666433 -0.088072
v -0.833169 1.091289 -0.726827
v -0.832312 1.098780 0.532038
v -0.913838 0.486248 0.637519
v -0.914142 0.880656 0.637519
v -0.871160 1.068506 0.637519
v -0.847887 0.292378 -0.740849
v -0.847474 0.289589 0.586565
v -0.710029 1.693161 -0.072558
v -0.709324 1.695155 -0.739307
v -0.839348 0.490745 -0.790056
v -0.839348 1.049895 -0.790056
v -0.839348 0.488296 0.650257
v -0.839348 1.068506 0.650257
v -0.688352 1.692163 -0.073326
v -0.687647 1.694158 -0.758832
v -0.839348 0.284401 -0.759606
v -0.839348 0.281800 0.599304
v -0.833169 1.091289 -0.726827
v -0.858394 1.014616 0.544793
v -0.858394 1.070008 0.544793
v -0.927905 1.014616 0.531413
v -0.919768 1.014616 0.490255
v -0.849938 1.014616 0.422657
v -0.849938 1.070008 0.422657
v -0.908956 1.014616 0.435570
v -0.908956 1.070008 0.435570
v -0.919768 1.070008 0.490255
v -0.927905 1.070008 0.531413
v -0.952021 1.070008 0.483878
v -0.919768 1.081269 0.490255
v -0.919768 1.181507 0.490255
v -0.952021 1.081269 0.483878
v -0.927905 1.081269 0.531413
v -0.929206 1.090890 0.488389
v -0.929206 1.171886 0.488389
v -0.952021 1.090890 0.483878
v -0.952021 1.171886 0.483878
v -1.070746 1.090890 0.460405
v -1.070746 1.171886 0.460405
v -1.080184 1.081269 0.458539
v -1.080184 1.181507 0.458539
v -1.088321 1.081269 0.499696
v -1.088321 1.181507 0.499696
v -0.960159 1.081269 0.525036
v -0.960159 1.070008 0.525036
v -0.960159 1.181507 0.525036
v -0.927905 1.181507 0.531413
v -0.952021 1.181507 0.483878
v -0.960159 1.014616 0.525036
v -0.952021 1.014616 0.483878
v 0.244405 0.729089 -1.772559
v 0.244389 0.857541 -1.772559
v -0.244405 0.729089 -1.772559
v -0.244389 0.857541 -1.772559
v 0.255384 0.718111 -1.759862
v 0.255366 0.868519 -1.759862
v -0.255384 0.718111 -1.759862
v -0.255366 0.868519 -1.759862
v 0.255384 0.718111 -1.772559
v 0.255366 0.868519 -1.772559
v -0.255384 0.718111 -1.772559
v -0.255366 0.868519 -1.772559
v 0.751877 0.229399 0.138081
v 0.751214 0.232281 -0.555861
v 0.125459 0.231278 0.138035
v 0.125458 0.234124 -0.555907
v 0.125912 0.457521 -0.555168
v 0.751668 0.455678 -0.555122
v 0.125458 0.233410 -0.381786
v 0.751380 0.231558 -0.381740
v 0.125912 0.612893 -0.381047
v 0.751834 0.611040 -0.381001
v 0.180272 1.239058 -0.674681
v 0.700147 1.237962 -0.674654
v 0.125782 0.450881 0.138560
v 0.125913 0.611089 0.058732
v 0.752254 0.609214 0.058778
v 0.752200 0.449001 0.138606
v 0.180273 1.239005 -0.509305
v 0.700248 1.237905 -0.509278
v -0.751877 0.229398 0.138081
v -0.751214 0.232281 -0.555861
v -0.125459 0.231278 0.138035
v -0.125458 0.234124 -0.555907
v -0.125912 0.457521 -0.555168
v -0.751668 0.455678 -0.555122
v -0.125458 0.233410 -0.381786
v -0.751380 0.231557 -0.381740
v -0.125912 0.612893 -0.381047
v -0.751834 0.611040 -0.381001
v -0.180273 1.239058 -0.674681
v -0.700147 1.237961 -0.674654
v -0.125782 0.450881 0.138560
v -0.125913 0.611089 0.058732
v -0.752254 0.609213 0.058778
v -0.752200 0.449001 0.138606
v -0.180273 1.239005 -0.509305
v -0.700248 1.237905 -0.509278
v 0.807968 1.070900 0.680742
v 0.704673 1.048365 0.412082
v 0.704673 0.948115 0.379629
v 0.807968 0.750856 0.367584
v 0.807968 0.496879 0.695314
v 0.239676 1.050131 0.412083
v 0.239617 0.949881 0.379630
v 0.125059 0.270380 -0.778760
v 0.236287 0.752459 0.367585
v 0.125143 0.270380 0.695314
v 0.200549 0.497929 0.695314
v 0.075082 0.313781 -0.778760
v 0.075145 0.349692 0.237749
v 0.807968 0.922269 0.371282
v 0.807968 1.074089 0.420429
v 0.136292 0.924158 0.371282
v 0.136411 1.075978 0.420430
v 0.704653 0.941434 0.395827
v 0.704653 1.041684 0.428280
v 0.239597 0.943200 0.395827
v 0.239656 1.043450 0.428280
v -0.000000 1.073270 0.680742
v -0.807968 1.070900 0.680742
v -0.000000 1.076368 0.420430
v -0.000000 0.924548 0.371283
v -0.807968 0.750856 0.367584
v -0.000000 0.753135 0.367585
v -0.807968 0.496878 0.695315
v -0.125059 0.270380 -0.778760
v -0.236287 0.752459 0.367585
v -0.125143 0.270380 0.695315
v -0.200550 0.497929 0.695315
v 0.000000 0.313781 -0.778760
v -0.075082 0.313781 -0.778760
v -0.075145 0.349692 0.237749
v -0.000000 0.349692 0.237749
v -0.807968 0.922268 0.371282
v -0.807968 1.074088 0.420429
v 0.531933 0.851752 0.095537
v 0.588840 0.940123 0.139191
v 0.458029 0.574575 0.855502
v 0.472335 0.907447 0.148405
v 0.475612 0.601880 0.868991
v 0.497583 0.946654 0.167773
v 0.469505 0.632930 0.884329
v 0.488814 0.991246 0.189781
v 0.442566 0.653197 0.894340
v 0.450190 1.020316 0.204111
v 0.407400 0.653197 0.894340
v 0.400817 1.019306 0.204634
v 0.380461 0.632930 0.884329
v 0.361036 0.991230 0.189706
v 0.374355 0.601880 0.868991
v 0.353367 0.945620 0.168234
v 0.391938 0.574575 0.855502
v 0.377500 0.907446 0.148355
v 0.569076 1.040614 0.188833
v 0.481890 1.106205 0.221234
v 0.368077 1.106205 0.221234
v 0.280891 1.040614 0.188833
v 0.261127 0.940123 0.139191
v 0.318034 0.851752 0.095537
v 0.318034 0.830129 0.139310
v 0.261127 0.918500 0.182964
v 0.280891 1.018991 0.232606
v 0.368077 1.084582 0.265007
v 0.481890 1.084582 0.265007
v 0.569076 1.018991 0.232606
v 0.588840 0.918499 0.182964
v 0.531933 0.830129 0.139310
v 0.424984 0.756710 0.103042
v 0.290419 0.800622 0.124734
v 0.218819 0.911811 0.179660
v 0.243685 1.038250 0.242119
v 0.353383 1.120777 0.282887
v 0.496584 1.120777 0.282887
v 0.606281 1.038250 0.242119
v 0.631148 0.911811 0.179660
v 0.559548 0.800622 0.124734
v 0.559548 0.822245 0.080962
v 0.631148 0.933434 0.135887
v 0.606281 1.059873 0.198346
v 0.496584 1.142400 0.239114
v 0.353383 1.142400 0.239114
v 0.243685 1.059873 0.198346
v 0.218819 0.933434 0.135887
v 0.290419 0.822246 0.080962
v 0.424984 0.778334 0.059270
v 0.458029 0.873953 0.248936
v 0.475612 0.901258 0.262424
v 0.469505 0.932308 0.277762
v 0.442566 0.952575 0.287773
v 0.408165 0.951899 0.288081
v 0.380461 0.932308 0.277762
v 0.375120 0.900583 0.262731
v 0.391938 0.873953 0.248936
v 0.405850 0.570036 0.853260
v 0.444117 0.570036 0.853260
v 0.454475 0.901625 0.145514
v 0.395297 0.901630 0.145504
v 0.405850 0.823095 0.081381
v 0.444117 0.823095 0.081381
v 0.444117 0.801472 0.125154
v 0.405850 0.801472 0.125154
v 0.444117 0.869413 0.246693
v 0.405850 0.869413 0.246693
v 0.507672 0.945076 0.166951
v 0.478921 0.900428 0.144896
v 0.497686 0.995848 0.192032
v 0.453637 1.028987 0.208402
v 0.397386 1.027883 0.208905
v 0.352085 0.995848 0.192032
v 0.343352 0.943972 0.167454
v 0.370851 0.900428 0.144896
v 0.393600 0.893004 0.141229
v 0.456172 0.893004 0.141229
v 0.487827 0.953992 0.155232
v 0.465963 0.920038 0.138460
v 0.480233 0.992609 0.174291
v 0.446785 1.017783 0.186701
v 0.404028 1.016909 0.187154
v 0.369576 0.992594 0.174226
v 0.362935 0.953096 0.155632
v 0.383835 0.920037 0.138416
v 0.399247 0.915000 0.135947
v 0.450495 0.914996 0.135956
v 0.266211 1.433056 -0.674681
v 0.614225 1.431837 -0.674654
v 0.266211 1.432998 -0.509305
v 0.614292 1.431775 -0.509278
v -0.266211 1.433056 -0.674681
v -0.614225 1.431837 -0.674654
v -0.266211 1.432998 -0.509305
v -0.614292 1.431774 -0.509278
v 0.614225 1.262608 -0.674654
v 0.266211 1.263827 -0.674681
v 0.614292 1.262545 -0.509278
v 0.266211 1.263768 -0.509305
v -0.614225 1.262608 -0.674654
v -0.266211 1.263827 -0.674681
v -0.614292 1.262545 -0.509278
v -0.266211 1.263768 -0.509305
v 0.342249 1.276520 -0.638546
v 0.538202 1.275629 -0.638531
v 0.342249 1.276478 -0.545429
v 0.538240 1.275584 -0.545414
v -0.342249 1.276520 -0.638546
v -0.538202 1.275629 -0.638531
v -0.342249 1.276477 -0.545429
v -0.538240 1.275583 -0.545414
v 0.538202 1.151914 -0.638531
v 0.342249 1.152805 -0.638546
v 0.538240 1.151868 -0.545414
v 0.342249 1.152762 -0.545429
v -0.538202 1.151914 -0.638531
v -0.342249 1.152804 -0.638546
v -0.538240 1.151868 -0.545414
v -0.342249 1.152762 -0.545429
vn -0.0000 -0.3004 0.9538
vn -1.0000 -0.0000 -0.0000
vn -0.0000 0.9538 0.3004
vn -0.0000 -0.9538 -0.3004
vn 0.9915 -0.1303 0.0002
vn 0.9914 -0.1307 0.0002
vn 0.9611 -0.2692 -0.0617
vn 0.9611 -0.2692 -0.0616
vn 1.0000 -0.0000 -0.0000
vn 1.0000 0.0002 -0.0000
vn 0.9743 0.2251 0.0024
vn 0.9743 0.2252 0.0022
vn 0.2483 -0.9687 -0.0026
vn -0.0000 0.2112 -0.9774
vn -0.0000 -0.0000 1.0000
vn 0.0015 -0.2701 0.9628
vn 0.0005 -0.2619 0.9651
vn -0.0000 -0.2661 0.9639
vn -0.0002 -1.0000 -0.0021
vn -0.0001 -1.0000 -0.0026
vn -0.0004 -1.0000 -0.0019
vn -0.0000 -0.0000 -1.0000
vn -0.9860 -0.1026 0.1315
vn 0.9669 -0.2550 -0.0021
vn 0.9669 -0.2553 -0.0017
vn 0.9669 -0.2551 -0.0019
vn 0.9654 -0.2609 -0.0000
vn 0.9654 -0.2609 0.0001
vn -0.0000 -0.6235 0.7818
vn -0.0052 -0.9059 0.4234
vn -0.0053 -0.9059 0.4235
vn -0.0052 -0.9059 0.4235
vn -0.0116 -0.9999 -0.0000
vn -0.0000 -0.2029 0.9792
vn -0.0053 -0.9059 -0.4235
vn -0.0000 -0.2028 -0.9792
vn 0.0046 -0.9992 0.0394
vn 0.0083 -0.9995 0.0301
vn -0.0000 -1.0000 -0.0025
vn -0.0001 -1.0000 -0.0025
vn -0.0000 -1.0000 -0.0026
vn -0.0000 -0.0528 0.9986
vn -0.0093 -0.9966 -0.0821
vn -0.0000 -0.6416 0.7670
vn -0.0000 -0.6416 0.7671
vn 0.0055 -0.9849 -0.1732
vn 0.0022 0.7572 0.6532
vn -0.0000 1.0000 0.0024
vn -0.0000 1.0000 0.0026
vn 0.0014 0.9996 -0.0273
vn -0.0000 0.9996 -0.0274
vn 0.0017 0.9996 -0.0273
vn 0.0001 -0.1472 -0.9891
vn -0.0000 -0.1470 -0.9891
vn -0.0001 -0.1472 -0.9891
vn -0.0020 0.7802 0.6255
vn -0.0000 0.7810 0.6246
vn -0.0004 0.7808 0.6248
vn 1.0000 -0.0029 -0.0039
vn 1.0000 -0.0008 -0.0013
vn 1.0000 -0.0034 -0.0043
vn 1.0000 -0.0038 -0.0047
vn 0.9699 -0.2436 0.0054
vn 0.9699 -0.2435 0.0054
vn 0.9686 0.2486 -0.0002
vn 0.9687 0.2482 -0.0002
vn 0.9916 -0.1292 0.0003
vn 0.9916 -0.1295 0.0003
vn 0.9684 0.2494 -0.0088
vn 0.9664 0.2570 -0.0013
vn 0.9683 0.2497 -0.0087
vn 0.9665 0.2567 -0.0006
vn -0.2483 0.9687 -0.0019
vn -0.0188 0.0722 -0.9972
vn 0.1122 -0.4367 0.8926
vn -0.9261 -0.3604 -0.1115
vn -0.9262 -0.3602 -0.1113
vn -0.9262 -0.3602 -0.1114
vn -0.0000 -1.0000 -0.0046
vn -0.0013 -1.0000 -0.0055
vn -0.0013 -1.0000 -0.0056
vn -0.9496 -0.2965 0.1021
vn -0.9495 -0.2967 0.1025
vn -0.9687 -0.2483 0.0012
vn -0.9687 -0.2483 0.0010
vn -0.9687 -0.2483 0.0011
vn -0.2248 -0.1076 0.9684
vn -0.2253 -0.1077 0.9683
vn 0.7649 -0.6441 0.0008
vn 0.7649 -0.6442 0.0008
vn 0.1875 -0.7200 -0.6681
vn -0.0000 0.2409 -0.9705
vn -0.0002 0.4045 0.9145
vn 0.0002 0.4049 0.9144
vn 0.0002 0.4047 0.9145
vn 0.0010 -0.2725 0.9622
vn 0.0011 -0.2723 0.9622
vn 0.0010 -0.2726 0.9621
vn -0.0000 0.3565 0.9343
vn 1.0000 -0.0006 -0.0003
vn 1.0000 -0.0022 0.0004
vn 1.0000 -0.0047 -0.0003
vn 1.0000 -0.0064 -0.0004
vn 1.0000 -0.0069 -0.0000
vn -0.0000 0.9987 -0.0512
vn -0.0000 -0.7264 0.6873
vn -0.0001 0.4051 0.9143
vn 0.0002 0.4053 0.9142
vn -0.0002 0.4053 0.9142
vn -0.5187 0.4280 0.7401
vn -0.5187 0.4279 0.7401
vn 0.0005 -0.2711 0.9626
vn -0.0000 -0.2698 0.9629
vn -0.0000 -0.2598 0.9657
vn 1.0000 -0.0032 0.0008
vn 1.0000 -0.0019 0.0024
vn -0.0000 -1.0000 -0.0024
vn -0.0000 0.7812 0.6243
vn -0.0000 -0.6235 -0.7818
vn -0.0000 -0.0988 -0.9951
vn 0.9680 0.2508 0.0011
vn 0.9668 0.2556 0.0048
vn 0.9671 0.2544 0.0039
vn 0.9686 0.2487 -0.0004
vn 0.9683 0.2496 -0.0061
vn -0.0000 -0.0486 -0.9988
vn -0.0000 -0.0582 -0.9983
vn 0.0031 -0.0567 -0.9984
vn 0.0115 -0.0526 -0.9985
vn -0.0000 0.9539 -0.3002
vn -0.0000 1.0000 0.0021
vn -0.0000 0.1616 0.9868
vn 0.0028 0.9739 0.2268
vn 0.0019 0.9739 0.2271
vn 0.0019 0.9740 0.2268
vn 0.0023 0.7801 0.6257
vn -0.0000 0.4044 0.9146
vn 0.0001 0.4051 0.9143
vn 0.9731 0.2305 -0.0007
vn 0.9730 0.2307 -0.0007
vn -0.0000 -1.0000 0.0012
vn -0.0000 -1.0000 -0.0018
vn -0.0000 -1.0000 -0.0037
vn -0.0000 0.8332 0.5529
vn -0.0008 -0.9180 -0.3965
vn -0.0010 -0.9179 -0.3969
vn -0.0008 -0.9180 -0.3966
vn -0.0000 -0.5817 -0.8134
vn -0.0000 -0.6239 0.7815
vn -0.0006 -0.9070 0.4210
vn -0.0009 -0.9068 0.4215
vn -0.0008 -0.9069 0.4214
vn 1.0000 -0.0014 0.0036
vn -0.0018 -1.0000 -0.0000
vn 0.0051 -0.9993 0.0381
vn 0.0090 -0.9996 0.0283
vn 0.0118 -0.9971 0.0753
vn -0.0000 0.6454 -0.7638
vn 0.9654 -0.2608 -0.0000
vn 0.9655 -0.2605 0.0001
vn 0.9615 -0.2703 0.0496
vn 0.9615 -0.2702 0.0496
vn 0.0001 0.4623 -0.8867
vn -0.0001 0.4623 -0.8867
vn -0.0002 0.4624 -0.8867
vn 0.0008 0.4620 -0.8869
vn 0.0007 0.4619 -0.8869
vn -0.0007 0.4619 -0.8869
vn -0.0000 -0.8332 -0.5529
vn -0.9749 -0.1852 -0.1237
vn -0.0010 -1.0000 -0.0052
vn -0.0001 -1.0000 -0.0030
vn -0.0000 1.0000 -0.0047
vn -0.0000 1.0000 -0.0019
vn -0.0000 1.0000 -0.0075
vn -0.0000 0.2026 0.9793
vn 0.0003 -0.2705 0.9627
vn 0.0007 -0.2717 0.9624
vn 0.0002 0.4059 0.9139
vn 0.0005 0.4061 0.9138
vn 0.0001 0.4061 0.9138
vn 0.0006 0.4062 0.9138
vn -0.9914 -0.1306 0.0002
vn -0.9914 -0.1307 0.0002
vn -0.9915 -0.1302 0.0002
vn -1.0000 -0.0048 -0.0003
vn -1.0000 -0.0045 0.0060
vn -1.0000 -0.0037 0.0049
vn -0.9611 -0.2692 -0.0617
vn -0.9611 -0.2692 -0.0616
vn -1.0000 0.0002 -0.0000
vn -0.9743 0.2251 0.0023
vn -0.9743 0.2251 0.0024
vn -0.9743 0.2254 0.0018
vn -0.2483 -0.9687 -0.0026
vn -0.0005 -0.2619 0.9651
vn -0.0015 -0.2700 0.9629
vn 0.0001 -1.0000 -0.0026
vn 0.0002 -1.0000 -0.0021
vn 0.0004 -1.0000 -0.0019
vn 0.9860 -0.1026 0.1315
vn -0.9669 -0.2552 -0.0018
vn -0.9669 -0.2550 -0.0020
vn -0.9669 -0.2551 -0.0018
vn -0.9654 -0.2609 -0.0000
vn -0.9654 -0.2609 0.0001
vn -0.9653 -0.2610 -0.0000
vn 0.0053 -0.9059 0.4235
vn 0.0052 -0.9059 0.4234
vn 0.0052 -0.9059 0.4235
vn 0.0116 -0.9999 -0.0000
vn 0.0053 -0.9059 -0.4235
vn 0.0052 -0.9059 -0.4235
vn -0.0046 -0.9992 0.0394
vn -0.0083 -0.9995 0.0301
vn -0.0051 -0.9993 0.0381
vn -0.0000 -1.0000 -0.0028
vn 0.0094 -0.9966 -0.0821
vn 0.0093 -0.9966 -0.0821
vn -0.0055 -0.9849 -0.1732
vn -0.0022 0.7572 0.6532
vn -0.0014 0.9996 -0.0273
vn -0.0000 0.9996 -0.0273
vn -1.0000 -0.0029 -0.0039
vn -1.0000 -0.0008 -0.0013
vn -1.0000 -0.0009 -0.0012
vn -1.0000 -0.0038 -0.0047
vn -1.0000 -0.0033 -0.0043
vn -0.9699 -0.2436 0.0054
vn -0.9699 -0.2435 0.0054
vn -0.9687 0.2482 -0.0002
vn -0.9686 0.2485 -0.0002
vn -0.9916 -0.1295 0.0003
vn -0.9664 0.2570 -0.0013
vn -0.9684 0.2494 -0.0088
vn -0.9683 0.2497 -0.0087
vn 0.2483 0.9687 -0.0019
vn 0.0188 0.0722 -0.9972
vn -0.1122 -0.4367 0.8926
vn 0.9261 -0.3604 -0.1115
vn 0.9262 -0.3602 -0.1113
vn 0.0013 -1.0000 -0.0055
vn 0.0010 -1.0000 -0.0052
vn 0.9496 -0.2965 0.1021
vn 0.9495 -0.2967 0.1025
vn 0.9687 -0.2483 0.0013
vn 0.9687 -0.2483 0.0008
vn 0.9687 -0.2483 0.0009
vn 0.2256 -0.1077 0.9682
vn 0.2248 -0.1076 0.9684
vn 0.2256 -0.1078 0.9682
vn -0.7649 -0.6442 0.0008
vn -0.7649 -0.6441 0.0008
vn -0.1875 -0.7200 -0.6681
vn -0.0010 -0.2725 0.9622
vn -1.0000 -0.0006 -0.0003
vn -1.0000 -0.0022 0.0004
vn -1.0000 -0.0032 0.0008
vn -1.0000 0.0008 -0.0000
vn -1.0000 -0.0063 -0.0004
vn 0.5187 0.4280 0.7401
vn 0.5188 0.4279 0.7401
vn -0.0005 -0.2711 0.9625
vn -0.9680 0.2508 0.0010
vn -0.9668 0.2556 0.0048
vn -0.9668 0.2557 0.0049
vn -0.9671 0.2545 0.0039
vn -0.9686 0.2487 -0.0004
vn -0.9683 0.2496 -0.0062
vn -0.0031 -0.0567 -0.9984
vn -0.0115 -0.0526 -0.9985
vn -0.0019 0.9740 0.2268
vn -0.0023 0.9739 0.2268
vn -0.0023 0.7801 0.6257
vn -0.0002 0.4049 0.9144
vn -0.9731 0.2303 -0.0008
vn -0.9730 0.2310 -0.0006
vn -0.9730 0.2307 -0.0007
vn 0.0008 -0.9180 -0.3965
vn 0.0010 -0.9178 -0.3969
vn 0.0008 -0.9068 0.4215
vn 0.0008 -0.9069 0.4214
vn -1.0000 -0.0051 0.0064
vn 0.0018 -1.0000 -0.0000
vn -0.0090 -0.9996 0.0283
vn -0.0118 -0.9971 0.0753
vn -0.9655 -0.2605 0.0001
vn -0.9655 -0.2603 0.0002
vn -0.9615 -0.2702 0.0496
vn -0.9615 -0.2703 0.0496
vn -0.0008 0.4620 -0.8869
vn 0.9749 -0.1852 -0.1237
vn 0.0001 -1.0000 -0.0030
vn -0.0003 -0.2705 0.9627
vn -0.0002 0.4059 0.9139
vn -0.0005 0.4061 0.9138
vn -0.0001 0.4061 0.9138
vn 0.0003 0.9399 0.3414
vn -0.0004 0.9409 0.3385
vn 0.0003 0.9399 0.3415
vn 0.4364 0.8997 0.0090
vn 0.4365 0.8997 0.0090
vn -0.0031 0.4051 0.9143
vn -0.0029 0.4005 0.9163
vn -0.0030 0.4005 0.9163
vn 0.4545 -0.8907 -0.0000
vn -0.7492 0.4056 0.5236
vn -0.7491 0.4056 0.5237
vn 0.5952 0.0025 -0.8036
vn 0.5947 0.0026 -0.8040
vn 0.5948 0.0026 -0.8039
vn -0.0021 -0.8656 0.5008
vn -0.0022 -0.8670 0.4983
vn -0.0020 -0.8669 0.4985
vn -0.0031 -0.8643 0.5029
vn -0.0027 -0.8656 0.5007
vn -0.0029 0.3956 0.9184
vn 0.0011 0.9387 0.3447
vn -0.0003 0.9399 0.3414
vn 0.0004 0.9409 0.3385
vn 0.0006 0.9411 0.3383
vn -0.4365 0.8997 0.0090
vn -0.4364 0.8997 0.0090
vn 0.0029 0.4005 0.9163
vn 0.0030 0.4052 0.9142
vn 0.0030 0.4005 0.9163
vn -0.4545 -0.8907 -0.0000
vn 0.7492 0.4056 0.5236
vn 0.7491 0.4056 0.5237
vn -0.5949 0.0025 -0.8038
vn -0.5948 0.0026 -0.8039
vn 0.0021 -0.8656 0.5008
vn 0.0020 -0.8669 0.4985
vn 0.0024 -0.8655 0.5010
vn 0.0031 -0.8643 0.5029
vn 0.0031 -0.8643 0.5030
vn 0.0029 0.3956 0.9184
vn -0.0011 0.9387 0.3447
vn -0.0003 0.9398 0.3416
vn 0.4891 -0.0000 0.8722
vn -0.9204 -0.0000 -0.3910
vn 0.0005 0.9997 0.0253
vn 0.0002 0.9997 0.0254
vn 0.0001 0.9997 0.0254
vn 0.0104 0.9999 0.0093
vn -0.0000 -1.0000 -0.0000
vn 0.7093 -0.0000 -0.7049
vn -0.4891 -0.0000 0.8722
vn 0.9204 -0.0000 -0.3910
vn -0.0002 0.9997 0.0254
vn -0.0005 0.9997 0.0253
vn -0.0001 0.9997 0.0254
vn -0.0104 0.9999 0.0093
vn -0.0104 0.9999 0.0092
vn -0.7093 -0.0000 -0.7049
vn -0.0000 1.0000 0.0028
vn -0.0000 -1.0000 -0.0094
vn -0.9915 0.1304 0.0026
vn -0.0000 1.0000 0.0094
vn 0.9915 -0.1304 0.0001
vn -0.0000 -0.0141 -0.9999
vn -0.0000 0.0142 0.9999
vn -0.0000 0.0141 0.9999
vn 0.3169 -0.9485 -0.0000
vn -0.0000 1.0000 -0.0000
vn 0.3169 0.9485 -0.0000
vn 0.3358 -0.0000 0.9419
vn 0.3358 -0.0000 -0.9419
vn 0.9480 -0.3183 -0.0005
vn 0.9479 -0.3187 -0.0006
vn 0.9479 -0.3186 -0.0006
vn -0.2487 0.9685 -0.0059
vn -0.2488 0.9685 -0.0059
vn 0.0114 -0.0420 0.9991
vn 0.1804 -0.7039 -0.6870
vn 0.9741 0.2263 -0.0002
vn 0.9741 0.2262 -0.0002
vn 0.9685 0.2489 -0.0009
vn 0.9686 0.2485 -0.0007
vn 0.9686 0.2488 -0.0008
vn 0.9685 0.2491 -0.0006
vn 0.9685 0.2489 -0.0005
vn 0.1279 0.7616 0.6353
vn 0.1280 0.7616 0.6353
vn -0.0474 0.9989 0.0030
vn 0.1679 -0.0000 0.9858
vn 0.1685 -0.0001 0.9857
vn 0.1686 -0.0001 0.9857
vn 0.3704 0.0848 0.9250
vn 0.5425 0.1739 -0.8219
vn 0.5423 0.1739 -0.8220
vn 0.4677 0.1103 -0.8770
vn -0.9709 -0.2364 -0.0382
vn -0.9709 -0.2364 -0.0381
vn -0.9956 0.0936 0.0013
vn -0.9956 0.0937 0.0013
vn -0.9828 -0.1730 0.0642
vn -0.9828 -0.1731 0.0641
vn 0.2442 -0.0000 -0.9697
vn 0.3005 -0.2800 0.9118
vn -0.9836 -0.1803 0.0014
vn 0.6875 -0.7262 -0.0014
vn 0.6875 -0.7261 -0.0014
vn 0.2487 -0.9686 -0.0032
vn 1.0000 -0.0006 -0.0000
vn 1.0000 -0.0001 -0.0002
vn 1.0000 -0.0005 -0.0001
vn 0.4167 -0.2019 -0.8863
vn 0.4168 -0.2020 -0.8863
vn 0.2137 -0.0000 -0.9769
vn 0.1923 -0.0000 0.9813
vn 0.1890 -0.0000 0.9820
vn 0.1915 -0.0000 0.9815
vn 0.9810 -0.0000 -0.1940
vn 0.1940 -0.0000 0.9810
vn -0.1940 -0.0000 -0.9810
vn -0.9810 -0.0000 0.1940
vn -0.3169 -0.9485 -0.0000
vn -0.3169 0.9485 -0.0000
vn -0.3358 -0.0000 0.9419
vn -0.3358 -0.0000 -0.9419
vn -0.9479 -0.3187 -0.0006
vn -0.9479 -0.3184 -0.0005
vn -0.9479 -0.3185 -0.0006
vn 0.2488 0.9685 -0.0059
vn -0.0114 -0.0420 0.9991
vn -0.1804 -0.7039 -0.6870
vn -0.9741 0.2262 -0.0002
vn -0.9686 0.2485 -0.0007
vn -0.9685 0.2489 -0.0009
vn -0.9685 0.2490 -0.0004
vn -0.9685 0.2489 -0.0005
vn -0.9685 0.2491 -0.0006
vn -0.9685 0.2489 -0.0004
vn -0.1280 0.7616 0.6353
vn -0.1279 0.7616 0.6353
vn 0.0474 0.9989 0.0030
vn -0.1679 -0.0000 0.9858
vn -0.1685 -0.0001 0.9857
vn -0.3704 0.0848 0.9250
vn -0.5425 0.1740 -0.8219
vn -0.5423 0.1739 -0.8220
vn -0.4677 0.1103 -0.8770
vn 0.9709 -0.2364 -0.0382
vn 0.9709 -0.2364 -0.0381
vn 0.9956 0.0937 0.0013
vn 0.9956 0.0936 0.0013
vn 0.9828 -0.1731 0.0641
vn 0.9828 -0.1730 0.0642
vn -0.2442 -0.0000 -0.9697
vn -0.3006 -0.2800 0.9117
vn -0.3005 -0.2799 0.9118
vn 0.9836 -0.1803 0.0014
vn -0.6875 -0.7261 -0.0014
vn -0.6875 -0.7262 -0.0014
vn -0.2488 -0.9686 -0.0032
vn -0.2487 -0.9686 -0.0032
vn -1.0000 -0.0001 -0.0002
vn -1.0000 -0.0003 -0.0001
vn -0.4167 -0.2019 -0.8863
vn -0.1890 -0.0000 0.9820
vn -0.1923 -0.0000 0.9813
vn -0.1915 -0.0000 0.9815
vn -0.2137 -0.0000 -0.9769
vn -0.9810 -0.0000 -0.1940
vn 0.9810 -0.0000 0.1940
vn 0.1940 -0.0000 -0.9810
vn -0.1940 -0.0000 0.9810
vn 1.0000 -0.0001 -0.0000
vn -1.0000 -0.0001 -0.0000
vn 1.0000 -0.0012 -0.0005
vn 1.0000 -0.0010 -0.0011
vn 1.0000 -0.0012 -0.0011
vn -0.0003 -0.1511 -0.9885
vn -0.0004 -0.1511 -0.9885
vn -1.0000 0.0010 0.0002
vn -1.0000 0.0014 -0.0002
vn -1.0000 0.0012 0.0001
vn 1.0000 -0.0014 -0.0002
vn 1.0000 -0.0012 -0.0006
vn 0.0001 0.0033 -1.0000
vn -0.0001 -0.0024 1.0000
vn -1.0000 0.0014 -0.0008
vn -1.0000 0.0016 -0.0005
vn -0.9969 0.0713 -0.0326
vn 0.9972 0.0674 -0.0316
vn -0.0004 0.2006 0.9797
vn -0.0005 0.2006 0.9797
vn 0.0013 0.4460 0.8950
vn 0.0030 1.0000 0.0041
vn 0.0030 1.0000 0.0042
vn 0.0021 1.0000 0.0003
vn -1.0000 -0.0010 -0.0011
vn -1.0000 -0.0012 -0.0006
vn -1.0000 -0.0012 -0.0005
vn 0.0003 -0.1511 -0.9885
vn 0.0004 -0.1511 -0.9885
vn 1.0000 0.0012 0.0001
vn 1.0000 0.0014 -0.0002
vn 1.0000 0.0010 0.0002
vn -1.0000 -0.0014 -0.0002
vn -1.0000 -0.0016 -0.0004
vn -0.0001 0.0033 -1.0000
vn 0.0001 -0.0024 1.0000
vn 1.0000 0.0014 -0.0008
vn 1.0000 0.0015 -0.0007
vn 0.9969 0.0713 -0.0326
vn -0.9972 0.0674 -0.0316
vn -0.9972 0.0674 -0.0317
vn -0.0013 0.4460 0.8950
vn -0.0030 1.0000 0.0041
vn -0.0030 1.0000 0.0042
vn -0.0021 1.0000 0.0003
vn 0.0025 0.9999 0.0119
vn 0.0029 0.9999 0.0120
vn -0.0000 0.9999 0.0119
vn -0.0035 -0.9244 -0.3813
vn 0.0001 0.0216 -0.9998
vn -0.0017 -0.7900 -0.6131
vn -0.0019 -0.7901 -0.6129
vn -0.0018 -0.7900 -0.6130
vn 0.7911 0.6116 -0.0089
vn 0.7912 0.6115 -0.0089
vn -0.0000 0.0216 -0.9998
vn 0.0006 0.3082 -0.9513
vn -0.0000 0.3080 -0.9514
vn -0.0000 0.9994 -0.0353
vn 0.0002 0.3064 -0.9519
vn -0.0000 0.3065 -0.9519
vn 0.0009 0.3065 -0.9519
vn 0.9352 -0.3195 -0.1528
vn 0.9351 -0.3199 -0.1526
vn 0.0007 0.3080 -0.9514
vn 0.0003 0.3076 -0.9515
vn 0.0005 0.3082 -0.9513
vn 0.0006 0.3078 -0.9515
vn 0.0012 0.3080 -0.9514
vn -1.0000 0.0004 -0.0011
vn 1.0000 -0.0009 0.0009
vn 0.0035 0.9244 0.3813
vn -0.0029 0.9999 0.0122
vn -0.0009 0.3080 -0.9514
vn -0.0001 0.0216 -0.9998
vn 0.0017 -0.7900 -0.6131
vn 0.0019 -0.7901 -0.6129
vn 0.0018 -0.7901 -0.6130
vn -0.7912 0.6115 -0.0089
vn -0.7911 0.6116 -0.0089
vn -0.0002 0.3064 -0.9519
vn -0.0009 0.3065 -0.9519
vn -0.9352 -0.3195 -0.1528
vn -0.9351 -0.3199 -0.1526
vn -0.3303 -0.9286 -0.1693
vn 0.8342 -0.5507 0.0274
vn 0.6138 0.5242 0.5903
vn -0.0080 0.7209 0.6930
vn -0.9475 0.0081 0.3196
vn -0.6428 -0.6868 -0.3393
vn -0.8378 -0.5452 0.0311
vn -0.0000 0.4429 -0.8966
vn -0.3420 -0.8426 -0.4159
vn 0.6428 -0.6868 -0.3393
vn 0.9848 -0.1557 -0.0769
vn 0.6428 0.6868 0.3393
vn -0.3420 -0.8425 -0.4162
vn 0.8660 -0.4483 -0.2214
vn 0.9848 0.1557 0.0769
vn 0.3420 -0.8425 -0.4162
vn -0.0000 -0.8966 -0.4429
vn -0.0000 -0.4429 0.8966
vn 0.3420 0.8425 0.4162
vn -0.8660 -0.4483 -0.2214
vn -0.9848 0.1557 0.0769
vn -0.8660 0.4483 0.2215
vn -0.6428 0.6868 0.3393
vn -0.3420 0.8425 0.4162
vn -0.0000 0.8966 0.4429
vn 0.8660 0.4483 0.2214
vn 0.3304 -0.9284 -0.1699
vn -0.0217 0.9899 -0.1398
vn -0.8691 -0.4434 -0.2192
vn -0.8691 -0.4435 -0.2192
vn -0.9868 0.1455 0.0711
vn -0.6335 0.6941 0.3419
vn -0.0068 0.8969 0.4423
vn 0.6428 0.6869 0.3390
vn 0.8660 -0.4484 -0.2213
vn -0.5999 0.5349 0.5950
vn 0.9444 0.0237 0.3280
vn 0.5805 -0.2660 0.7696
vn -0.5805 -0.2661 0.7695
vn -0.5804 -0.2665 0.7695
vn -0.5806 -0.2660 0.7696
vn -0.2783 0.3808 -0.8818
vn -0.0000 -0.8729 0.4879
vn 0.2812 0.3770 -0.8825
vn 0.2812 0.3769 -0.8825
vn 0.2815 0.3771 -0.8823
vn -0.4823 0.7764 0.4057
vn -0.4823 0.7763 0.4058
vn -0.4823 0.7765 0.4056
vn 0.4832 0.7762 0.4050
vn 0.4831 0.7764 0.4047
vn 0.4831 0.7764 0.4048
vn -0.0000 -0.9759 -0.2183
vn -0.0000 -0.8967 -0.4426
vn 0.3420 -0.8426 -0.4159
vn -0.0000 0.6503 -0.7597
vn -0.9895 -0.1393 0.0390
vn 0.9898 -0.1371 0.0384
vn -0.0034 0.4446 -0.8957
vn -0.0024 0.4454 -0.8953
vn -0.0022 0.4453 -0.8954
vn -0.0033 0.4423 -0.8969
vn -0.0016 0.4423 -0.8969
vn -0.0034 0.4423 -0.8969
vn -0.0002 0.4423 -0.8969
vn -0.0015 0.4421 -0.8970
vn -0.0176 0.4447 -0.8955
vn -0.0176 0.4445 -0.8956
vn -0.0176 0.4446 -0.8956
vn 0.0110 0.4554 -0.8902
vn -0.0067 0.4280 -0.9037
vn -0.0066 0.4280 -0.9037
vn -0.0105 0.4556 -0.8901
vn 0.0001 0.4446 -0.8957
vn -0.0002 0.4453 -0.8954
vn -0.0000 0.4441 -0.8960
vn -0.0003 0.4452 -0.8954
vn 0.0002 0.4426 -0.8967
vn 0.0006 0.4431 -0.8965
vn 0.0006 0.4430 -0.8965
vn -0.0033 0.4446 -0.8957
vn -0.0033 0.4447 -0.8957
vn 0.7366 -0.1484 -0.6598
vn 0.0001 -0.5815 -0.8135
vn -0.5106 0.8342 -0.2082
vn 0.8255 0.3719 -0.4246
vn 0.2940 -0.4964 -0.8168
vn -0.8349 0.3430 -0.4304
vn 0.5321 0.8168 -0.2229
vn -0.2933 -0.4971 -0.8166
vn -0.7488 -0.1355 -0.6488
vn -0.1952 -0.8695 -0.4536
vn -0.1952 -0.8696 -0.4536
vn 0.1854 -0.8731 -0.4508
vn 0.1855 -0.8732 -0.4506
vn 0.1855 -0.8732 -0.4507
vn 0.0028 0.9999 0.0122
vn 0.0004 0.2006 0.9797
vn 0.0005 0.2006 0.9797
vn 0.0005 0.2005 0.9797
vn 0.0035 1.0000 0.0004
vn -0.0035 1.0000 0.0004
vn -0.0035 -1.0000 -0.0004
vn 0.0035 -1.0000 -0.0004
vn 0.0001 -0.0000 -1.0000
vn -1.0000 -0.0000 -0.0004
vn 0.0001 -0.0000 1.0000
vn 1.0000 -0.0000 -0.0004
vn -0.0001 -0.0000 1.0000
vn -0.0001 -0.0000 -1.0000
vn 0.9743 0.2254 0.0018
vn 0.0011 -0.2698 0.9629
vn 0.9653 -0.2610 -0.0000
vn -0.0052 -0.9059 -0.4235
vn -0.0000 -0.1471 -0.9891
vn -0.9261 -0.3603 -0.1115
vn -0.9496 -0.2965 0.1020
vn -0.2252 -0.1077 0.9683
vn 0.0010 -0.2724 0.9622
vn 0.0005 -0.2712 0.9625
vn -0.5188 0.4279 0.7401
vn 0.0116 -0.0526 -0.9985
vn 0.0029 0.9739 0.2268
vn 0.9731 0.2304 -0.0008
vn -0.0008 -0.9068 0.4215
vn 1.0000 -0.0013 0.0036
vn 0.9655 -0.2604 0.0001
vn -0.9743 0.2252 0.0023
vn -0.0011 -0.2698 0.9629
vn -0.0047 -0.9992 0.0393
vn -0.9665 0.2566 -0.0006
vn -0.9916 -0.1293 0.0003
vn 0.9262 -0.3602 -0.1114
vn 0.0013 -1.0000 -0.0056
vn 0.9687 -0.2483 0.0011
vn 0.2248 -0.1076 0.9685
vn -0.0010 -0.2725 0.9621
vn -0.0011 -0.2724 0.9622
vn -0.0007 -0.2716 0.9624
vn -0.0010 -0.2724 0.9622
vn -0.0005 -0.2711 0.9626
vn -0.0116 -0.0526 -0.9985
vn -0.0020 0.9739 0.2268
vn -0.9732 0.2299 -0.0008
vn 0.0008 -0.9180 -0.3966
vn 0.0009 -0.9068 0.4215
vn -0.9655 -0.2604 0.0001
vn -0.0006 0.4062 0.9138
vn -0.0004 0.9410 0.3385
vn -0.0030 0.4052 0.9142
vn -0.0031 -0.8643 0.5030
vn -0.0000 0.9997 0.0254
vn 0.9480 -0.3184 -0.0005
vn -0.2487 0.9686 -0.0059
vn 0.9685 0.2489 -0.0004
vn 0.3005 -0.2800 0.9117
vn 1.0000 -0.0003 -0.0001
vn -0.9479 -0.3186 -0.0006
vn -0.1686 -0.0001 0.9857
vn -0.5425 0.1739 -0.8219
vn -0.3005 -0.2800 0.9118
vn -1.0000 -0.0008 -0.0000
vn 1.0000 -0.0015 -0.0010
vn -1.0000 0.0012 -0.0004
vn -1.0000 0.0015 -0.0000
vn 1.0000 -0.0017 -0.0005
vn -0.0005 0.2005 0.9797
vn -1.0000 -0.0015 -0.0010
vn -1.0000 -0.0012 -0.0011
vn 1.0000 0.0015 -0.0000
vn 1.0000 0.0012 -0.0004
vn -0.0018 -0.7901 -0.6130
vn -0.0000 0.3063 -0.9519
vn 0.0014 -0.7897 -0.6135
vn -0.0067 0.8969 0.4423
vn -0.5805 -0.2664 0.7695
vn 0.4830 0.7764 0.4047
vn 0.9898 -0.1371 0.0383
vn -0.0033 0.4447 -0.8956
vt 0.010330 0.974695
vt 0.041206 0.972685
vt 0.041197 0.972662
vt 0.134639 0.947207
vt 0.136335 0.661572
vt 0.135519 0.663119
vt 0.135139 0.662247
vt 0.022872 0.995446
vt 0.044909 0.987389
vt 0.022872 0.993428
vt 0.199859 0.982130
vt 0.007487 0.991598
vt 0.024287 0.976504
vt 0.137176 0.663857
vt 0.022651 0.975615
vt 0.022958 0.975443
vt 0.040219 0.972592
vt 0.040344 0.972717
vt 0.040219 0.972717
vt 0.040344 0.972592
vt 0.099261 0.946539
vt 0.098660 0.947140
vt 0.098660 0.946539
vt 0.022958 0.975377
vt 0.013880 0.620849
vt 0.166748 0.580676
vt 0.013875 0.580676
vt 0.168625 0.957272
vt 0.167330 0.958108
vt 0.099782 0.665799
vt 0.121194 0.666257
vt 0.112322 0.991449
vt 0.028554 0.969816
vt 0.131561 0.664249
vt 0.099261 0.947140
vt 0.166743 0.620849
s 1
usemtl MAIN
f 112/1/1 98/1/1 113/1/1
f 1/2/2 76/2/2 2/2/2
f 203/2/3 95/2/3 112/2/3
f 77/2/4 96/2/4 98/2/4
f 116/1/1 100/1/1 117/1/1
f 3/2/2 79/2/2 4/2/2
f 116/2/3 102/2/3 101/2/3
f 82/2/4 99/2/4 100/2/4
f 86/2/5 89/2/6 5/2/6
f 89/2/7 6/2/8 5/2/8
f 9/3/9 19/3/9 20/3/9
f 35/2/9 103/2/9 34/2/9
f 11/4/9 23/4/10 12/4/10
f 17/2/9 22/2/9 11/2/9
f 53/4/11 29/4/12 85/4/12
f 51/4/13 65/4/13 48/4/13
f 22/2/14 139/2/14 137/2/14
f 189/3/15 191/3/15 147/3/15
f 68/2/16 102/2/17 148/2/18
f 20/3/15 67/3/15 69/3/15
f 5/2/19 87/2/20 86/2/21
f 23/4/22 137/4/22 138/4/22
f 30/4/23 46/4/23 47/4/23
f 17/2/24 25/2/25 24/2/26
f 143/4/22 108/4/22 28/4/22
f 9/2/27 21/2/28 10/2/28
f 11/2/29 44/2/29 17/2/29
f 12/2/30 38/2/31 11/2/32
f 13/2/33 39/2/33 12/2/33
f 5/2/34 33/2/34 32/2/34
f 13/2/35 41/2/35 40/2/35
f 16/2/36 42/2/36 15/2/36
f 38/2/9 42/2/9 44/2/9
f 38/2/9 40/2/9 41/2/9
f 21/2/37 37/2/38 10/2/37
f 86/2/21 43/2/39 16/2/39
f 32/2/40 214/2/41 87/2/20
f 44/2/42 18/2/42 17/2/42
f 45/2/43 165/2/43 149/2/43
f 166/4/44 46/4/45 31/4/44
f 45/2/46 25/2/46 18/2/46
f 30/4/47 52/4/47 31/4/47
f 236/4/48 60/4/49 107/4/48
f 58/5/50 167/5/51 47/5/52
f 24/2/53 149/2/54 139/2/55
f 221/4/56 30/4/57 145/4/58
f 14/4/59 27/4/60 50/4/61
f 15/4/62 14/4/59 50/4/61
f 45/2/63 42/2/64 43/2/63
f 61/4/65 107/4/66 48/4/66
f 88/2/67 86/2/5 16/2/68
f 51/4/69 54/4/70 62/4/71
f 61/4/65 54/4/70 108/4/72
f 61/4/73 63/4/73 62/4/73
f 51/4/74 63/4/74 66/4/74
f 61/4/75 65/4/75 64/4/75
f 46/5/76 58/5/77 47/5/78
f 166/5/79 56/5/80 46/5/81
f 64/6/82 109/6/83 110/6/82
f 66/6/84 57/6/85 55/6/86
f 91/4/87 57/4/88 54/4/88
f 55/4/89 90/4/90 56/4/90
f 56/4/91 85/4/91 58/4/91
f 216/7/92 84/7/92 89/7/92
f 195/4/93 71/4/94 73/4/95
f 79/2/96 81/2/97 21/2/98
f 111/4/99 67/4/99 19/4/99
f 12/4/10 23/4/10 28/4/100
f 8/4/101 29/4/102 26/4/103
f 12/4/10 27/4/60 13/4/60
f 8/4/101 26/4/103 70/4/104
f 197/4/105 73/4/105 75/4/105
f 196/4/106 72/4/106 194/4/106
f 194/4/107 92/4/108 219/4/109
f 73/4/110 74/4/111 75/4/110
f 82/2/112 97/2/113 99/2/113
f 102/2/17 208/2/114 148/2/18
f 7/4/115 106/4/116 29/4/102
f 87/2/20 165/2/117 43/2/39
f 174/4/118 31/4/118 52/4/118
f 15/2/119 41/2/119 14/2/119
f 36/2/120 10/2/120 37/2/120
f 52/4/121 85/4/122 90/4/123
f 60/4/124 90/4/123 91/4/125
f 48/4/66 107/4/66 60/4/124
f 222/7/126 223/7/127 58/7/128
f 58/7/128 29/7/129 222/7/126
f 50/7/15 142/7/15 172/7/15
f 186/7/130 110/7/130 239/7/130
f 216/7/131 88/7/131 215/7/131
f 176/7/15 27/7/15 54/7/15
f 88/7/132 172/7/132 215/7/132
f 53/4/133 93/4/134 26/4/135
f 30/4/136 94/4/136 53/4/136
f 75/1/137 196/1/137 197/1/137
f 71/4/94 72/4/138 73/4/95
f 108/4/139 27/4/139 28/4/140
f 109/5/141 65/5/142 240/5/143
f 239/4/144 49/4/144 171/4/144
f 80/2/113 96/2/113 97/2/113
f 80/2/3 78/2/3 1/2/3
f 96/2/4 113/2/4 98/2/4
f 95/1/1 2/1/1 98/1/1
f 83/2/113 99/2/113 102/2/113
f 83/2/3 81/2/3 3/2/3
f 99/2/4 117/2/4 100/2/4
f 101/1/1 4/1/1 100/1/1
f 103/2/9 36/2/9 33/2/9
f 8/2/145 104/2/146 35/2/147
f 9/2/148 104/2/148 105/2/148
f 106/2/149 33/2/149 6/2/149
f 7/2/150 103/2/151 106/2/152
f 106/4/116 84/4/153 29/4/102
f 8/2/154 34/2/154 7/2/154
f 68/2/155 148/2/156 37/2/38
f 164/2/157 37/2/157 148/2/157
f 30/4/158 47/4/158 167/4/158
f 111/4/99 19/4/99 70/4/99
f 37/2/159 33/2/160 36/2/27
f 15/2/161 88/2/161 16/2/162
f 138/4/22 28/4/22 23/4/22
f 236/4/163 59/4/164 181/4/165
f 49/4/166 107/4/164 108/4/167
f 237/4/168 49/4/166 108/4/167
f 238/4/169 59/4/169 109/4/169
f 49/4/170 109/4/170 59/4/170
f 67/4/99 193/4/99 189/4/99
f 240/5/143 55/5/171 166/5/79
f 66/5/172 240/5/143 65/5/142
f 63/7/173 186/7/174 185/7/173
f 185/7/173 57/7/175 63/7/173
f 176/7/176 57/7/176 179/7/176
f 69/2/177 96/2/113 77/2/178
f 96/2/113 147/2/113 209/2/113
f 203/2/113 99/2/113 97/2/113
f 92/4/108 111/4/179 93/4/180
f 93/4/180 70/4/181 26/4/182
f 112/1/1 227/1/1 224/1/1
f 114/2/9 198/2/9 200/2/9
f 224/2/3 203/2/3 112/2/3
f 227/2/4 225/2/4 199/2/4
f 116/1/1 229/1/1 230/1/1
f 118/2/9 201/2/9 204/2/9
f 116/2/3 231/2/3 208/2/3
f 229/2/4 228/2/4 205/2/4
f 212/2/183 120/2/184 216/2/185
f 144/4/186 210/4/187 235/4/188
f 216/2/189 121/2/190 210/2/190
f 134/3/2 124/3/2 135/3/2
f 232/2/2 153/2/2 152/2/2
f 138/4/191 126/4/2 127/4/191
f 137/2/2 132/2/2 126/2/2
f 175/4/192 144/4/193 141/4/194
f 187/4/195 173/4/195 170/4/195
f 231/2/196 190/2/197 148/2/18
f 189/3/15 135/3/15 191/3/15
f 213/2/198 120/2/199 212/2/200
f 145/4/201 168/4/201 146/4/201
f 132/2/202 140/2/203 133/2/204
f 124/2/205 136/2/206 135/2/207
f 162/2/29 126/2/29 132/2/29
f 156/2/208 127/2/209 126/2/210
f 157/2/211 128/2/211 127/2/211
f 120/2/34 151/2/34 121/2/34
f 128/2/212 159/2/212 129/2/213
f 131/2/36 160/2/36 161/2/36
f 160/2/2 156/2/2 162/2/2
f 156/2/2 158/2/2 157/2/2
f 136/2/214 155/2/215 190/2/216
f 212/2/200 161/2/39 213/2/198
f 214/2/41 150/2/217 213/2/198
f 162/2/42 133/2/42 163/2/42
f 163/2/218 165/2/219 161/2/219
f 140/2/220 163/2/220 133/2/220
f 174/4/221 145/4/221 146/4/221
f 180/5/222 167/5/51 223/5/223
f 129/4/224 142/4/225 128/4/226
f 130/4/227 172/4/228 129/4/224
f 163/2/229 160/2/230 162/2/229
f 236/4/231 183/4/232 170/4/231
f 215/2/233 212/2/183 216/2/185
f 176/4/234 173/4/235 184/4/236
f 183/4/232 176/4/234 184/4/236
f 185/4/237 183/4/237 184/4/237
f 173/4/238 185/4/238 184/4/238
f 183/4/239 187/4/239 170/4/239
f 168/5/240 180/5/241 178/5/240
f 166/5/79 178/5/242 177/5/243
f 186/6/244 238/6/245 187/6/245
f 188/6/246 179/6/247 185/6/248
f 179/4/249 218/4/250 176/4/251
f 217/4/252 177/4/253 178/4/252
f 178/4/254 211/4/254 217/4/254
f 201/2/255 200/2/255 135/2/255
f 189/4/99 241/4/99 134/4/99
f 127/4/191 143/4/256 138/4/191
f 123/4/257 144/4/186 122/4/258
f 127/4/191 142/4/225 143/4/256
f 123/4/257 192/4/259 141/4/260
f 195/4/261 196/4/261 194/4/262
f 226/2/113 205/2/263 228/2/113
f 231/2/196 148/2/18 208/2/114
f 122/4/258 144/4/186 235/4/188
f 165/2/117 213/2/198 161/2/39
f 159/2/119 130/2/119 129/2/119
f 154/2/120 125/2/120 124/2/120
f 174/4/264 211/4/265 175/4/266
f 217/4/267 182/4/268 218/4/269
f 182/4/268 170/4/231 173/4/235
f 222/7/126 180/7/270 223/7/127
f 144/7/271 180/7/270 222/7/126
f 220/4/272 175/4/273 141/4/272
f 145/4/58 175/4/274 221/4/56
f 193/4/275 194/4/107 219/4/109
f 142/4/276 237/4/277 143/4/278
f 225/2/113 202/2/113 226/2/113
f 114/2/3 200/2/3 202/2/3
f 113/2/4 225/2/4 227/2/4
f 115/1/1 224/1/1 227/1/1
f 228/2/113 207/2/113 231/2/113
f 118/2/3 204/2/3 207/2/3
f 117/2/4 228/2/4 229/2/4
f 119/1/1 230/1/1 229/1/1
f 232/2/2 154/2/2 233/2/2
f 123/2/279 233/2/280 234/2/279
f 233/2/148 124/2/148 234/2/148
f 151/2/149 235/2/149 121/2/149
f 232/2/281 122/2/282 235/2/282
f 234/4/2 192/4/259 123/4/257
f 210/4/187 121/4/283 235/4/188
f 134/4/2 192/4/259 234/4/2
f 152/2/284 123/2/284 122/2/284
f 190/2/216 155/2/215 148/2/285
f 155/2/286 164/2/286 148/2/286
f 241/4/99 192/4/99 134/4/99
f 151/2/287 155/2/288 154/2/205
f 215/2/289 130/2/290 131/2/289
f 171/4/291 236/4/163 181/4/165
f 238/4/292 171/4/292 181/4/292
f 240/5/143 177/5/243 188/5/293
f 188/5/293 187/5/142 240/5/143
f 191/2/294 225/2/113 147/2/113
f 225/2/113 209/2/113 147/2/113
f 228/2/113 203/2/113 226/2/113
f 219/4/109 241/4/295 193/4/275
f 220/4/296 192/4/297 241/4/295
f 244/8/9 247/8/9 246/8/9
f 256/8/298 251/8/299 257/8/300
f 246/8/301 251/8/302 244/8/301
f 242/8/303 256/8/304 255/8/305
f 247/8/306 248/8/306 253/8/306
f 245/9/307 249/9/308 243/9/308
f 246/10/309 253/10/310 252/10/311
f 255/8/312 248/8/313 242/8/314
f 243/11/315 254/11/316 255/11/312
f 255/9/305 245/9/317 243/9/317
f 245/9/318 257/9/300 250/9/318
f 263/8/2 260/8/2 262/8/2
f 272/8/319 267/8/320 260/8/321
f 267/8/322 262/8/323 260/8/323
f 272/8/324 258/8/325 271/8/326
f 263/8/327 264/8/327 258/8/327
f 265/9/328 261/9/329 259/9/328
f 262/10/330 269/10/331 263/10/331
f 271/8/332 264/8/333 270/8/334
f 259/11/335 270/11/334 265/11/336
f 261/9/337 271/9/326 259/9/337
f 261/9/338 273/9/339 272/9/319
f 285/9/340 281/9/340 282/9/340
f 291/9/9 282/9/9 281/9/9
f 293/8/9 287/8/9 282/8/9
f 284/8/341 288/8/341 286/8/341
f 295/12/342 283/12/343 294/12/344
f 278/12/345 280/12/345 276/12/345
f 279/9/346 277/9/346 274/9/346
f 279/9/341 275/9/341 284/9/341
f 289/8/340 282/8/340 287/8/340
f 278/12/340 287/12/340 283/12/340
f 296/12/9 283/12/9 287/12/9
f 297/8/22 284/8/22 286/8/22
f 280/12/341 288/12/341 276/12/341
f 292/9/22 279/9/22 284/9/22
f 280/12/22 297/12/22 286/12/22
f 292/9/347 291/9/347 290/9/347
f 297/12/347 294/12/347 296/12/347
f 297/8/347 293/8/347 292/8/347
f 290/9/346 281/9/346 279/9/346
f 305/9/348 309/9/348 306/9/348
f 306/9/2 315/9/2 305/9/2
f 311/8/2 317/8/2 306/8/2
f 312/8/349 308/8/349 310/8/349
f 307/12/350 319/12/351 318/12/352
f 302/12/353 304/12/354 307/12/353
f 303/9/346 301/9/346 305/9/346
f 299/9/349 303/9/349 308/9/349
f 306/8/348 313/8/348 311/8/348
f 311/12/348 302/12/348 307/12/348
f 307/12/2 320/12/2 311/12/2
f 308/8/22 321/8/22 310/8/22
f 304/12/349 312/12/349 310/12/349
f 303/9/22 316/9/22 308/9/22
f 310/12/22 319/12/22 304/12/22
f 315/9/355 316/9/355 314/9/355
f 321/12/355 318/12/355 319/12/355
f 317/8/355 321/8/355 316/8/355
f 314/9/346 305/9/346 315/9/346
f 210/7/22 144/7/22 222/7/22
f 182/4/49 52/4/356 60/4/49
f 325/2/357 328/2/357 329/2/357
f 324/2/358 329/2/358 328/2/358
f 324/2/359 323/2/359 326/2/359
f 322/2/360 325/2/360 323/2/360
f 326/2/361 325/2/361 329/2/361
f 324/2/362 327/2/363 322/2/363
f 333/2/357 336/2/357 337/2/357
f 332/2/358 337/2/358 336/2/358
f 332/2/359 331/2/359 334/2/359
f 330/2/360 333/2/360 331/2/360
f 334/2/361 333/2/361 337/2/361
f 332/2/363 335/2/363 330/2/363
f 105/4/9 70/4/104 19/4/9
f 339/2/364 345/2/364 341/2/364
f 338/2/365 355/2/365 340/2/365
f 349/2/9 343/2/9 344/2/9
f 341/2/346 357/2/346 339/2/346
f 339/2/22 356/2/22 338/2/22
f 342/2/9 344/2/9 343/2/9
f 342/2/366 338/2/366 340/2/366
f 341/2/367 342/2/367 340/2/367
f 347/2/364 344/2/364 339/2/364
f 353/2/9 348/2/9 349/2/9
f 352/2/366 346/2/366 348/2/366
f 351/2/22 361/2/22 350/2/22
f 346/2/15 358/2/15 347/2/15
f 348/2/366 338/2/366 343/2/366
f 339/2/2 346/2/2 347/2/2
f 350/2/365 359/2/365 346/2/365
f 352/2/368 351/2/368 350/2/368
f 347/2/346 360/2/346 351/2/346
f 347/2/364 353/2/364 349/2/364
f 356/2/2 354/2/2 355/2/2
f 361/2/2 358/2/2 359/2/2
f 340/2/15 354/2/15 341/2/15
f 365/2/369 377/2/370 376/2/371
f 367/4/372 372/4/373 363/4/373
f 367/4/374 369/4/374 371/4/374
f 362/4/375 372/4/375 370/4/375
f 374/4/376 368/4/376 375/4/377
f 363/4/378 368/4/379 367/4/379
f 367/4/379 379/4/380 364/4/381
f 363/4/378 378/4/382 375/4/378
f 378/4/382 364/4/381 379/4/380
f 378/13/383 383/13/384 375/13/384
f 379/13/385 384/13/385 378/13/385
f 374/13/386 382/13/387 373/13/388
f 375/13/389 383/13/389 374/13/389
f 379/13/390 381/13/391 385/13/390
f 368/13/392 366/13/392 381/13/392
f 381/4/365 388/4/365 371/4/365
f 385/14/393 371/14/394 369/14/393
f 384/14/395 369/14/396 370/14/395
f 384/14/397 372/14/398 383/14/398
f 366/13/399 380/13/399 381/13/399
f 382/15/400 377/15/400 373/15/400
f 387/14/2 380/14/2 386/14/2
f 372/4/365 371/4/365 388/4/365
f 381/14/401 372/14/401 388/14/401
f 387/16/402 376/16/402 377/16/403
f 369/4/404 362/4/404 370/4/404
f 374/4/405 365/4/406 366/4/407
f 382/14/2 381/14/2 380/14/2
f 380/15/408 376/15/409 386/15/408
f 391/17/410 396/18/410 395/19/410
f 394/20/411 389/19/412 393/17/413
f 389/17/346 397/20/346 393/18/346
f 398/17/365 390/18/365 394/19/365
f 392/20/365 398/19/365 396/17/365
f 391/17/346 397/18/346 389/19/346
f 396/20/414 397/19/414 395/17/414
f 402/20/415 405/19/415 407/17/415
f 402/20/415 409/19/415 408/17/415
f 404/20/416 416/19/416 415/17/416
f 394/20/417 414/19/417 398/17/417
f 408/17/365 413/18/365 405/19/365
f 407/20/417 413/19/417 414/17/417
f 399/20/415 407/19/415 394/17/411
f 398/20/416 401/19/416 400/17/416
f 400/20/414 402/19/414 399/17/414
f 418/20/414 409/19/414 410/17/414
f 401/20/346 410/19/346 402/17/346
f 416/21/416 412/22/416 415/23/416
f 406/17/365 409/18/365 417/19/365
f 404/20/416 413/19/416 403/17/416
f 404/17/416 401/18/416 414/19/416
f 403/20/416 406/19/416 416/17/416
f 411/20/416 418/19/416 412/17/416
f 412/20/416 401/19/416 415/17/416
f 411/17/416 406/18/416 417/19/416
f 399/20/414 420/19/414 400/17/414
f 400/20/416 397/19/416 398/17/416
f 397/17/346 419/18/346 393/19/346
f 419/20/415 394/19/411 393/17/413
f 422/2/418 428/2/418 427/2/418
f 438/2/365 421/2/365 423/2/365
f 426/2/2 432/2/2 427/2/2
f 440/2/346 424/2/346 422/2/346
f 439/2/22 422/2/22 421/2/22
f 427/2/2 425/2/2 426/2/2
f 421/2/419 425/2/419 423/2/419
f 424/2/420 425/2/420 428/2/420
f 427/2/418 430/2/418 422/2/418
f 431/2/2 436/2/2 432/2/2
f 429/2/419 435/2/419 431/2/419
f 444/2/22 434/2/22 433/2/22
f 441/2/15 429/2/15 430/2/15
f 421/2/419 431/2/419 426/2/419
f 429/2/9 422/2/9 430/2/9
f 442/2/365 433/2/365 429/2/365
f 434/2/421 435/2/421 433/2/421
f 443/2/346 430/2/346 434/2/346
f 430/2/418 436/2/418 434/2/418
f 437/2/9 439/2/9 438/2/9
f 441/2/9 444/2/9 442/2/9
f 437/2/15 423/2/15 424/2/15
f 460/2/422 448/2/423 459/2/424
f 455/4/425 450/4/425 446/4/425
f 450/4/426 452/4/426 447/4/426
f 445/4/427 455/4/427 446/4/427
f 451/4/428 457/4/428 458/4/428
f 451/4/429 446/4/430 450/4/429
f 450/4/429 462/4/431 451/4/429
f 461/4/432 446/4/430 458/4/430
f 461/4/432 447/4/433 445/4/434
f 466/13/435 461/13/436 458/13/435
f 467/13/437 462/13/437 461/13/437
f 457/13/438 465/13/439 466/13/438
f 458/13/440 457/13/440 466/13/440
f 462/13/441 464/13/442 451/13/442
f 451/13/443 464/13/443 449/13/443
f 464/4/365 454/4/365 471/4/365
f 468/14/444 454/14/445 464/14/445
f 452/14/446 467/14/447 453/14/447
f 455/14/448 467/14/449 466/14/448
f 449/13/450 463/13/450 448/13/450
f 465/15/451 460/15/451 470/15/452
f 470/14/9 463/14/9 465/14/9
f 455/4/365 471/4/365 454/4/365
f 464/14/453 455/14/453 466/14/453
f 470/24/454 459/24/455 469/24/455
f 452/4/456 445/4/457 447/4/456
f 448/4/458 457/4/459 449/4/459
f 465/14/9 464/14/9 466/14/9
f 459/15/460 463/15/460 469/15/460
f 472/19/461 481/20/462 474/17/463
f 472/17/346 474/18/346 475/20/346
f 476/17/346 475/18/346 478/20/346
f 478/19/464 477/20/464 476/17/464
f 475/19/465 479/20/465 478/17/465
f 480/19/365 477/20/365 479/17/365
f 483/19/466 481/20/466 480/17/466
f 480/17/365 481/19/365 473/18/365
f 475/19/467 482/20/467 480/17/467
f 485/19/467 480/20/467 482/17/467
f 484/19/467 487/20/467 488/17/467
f 484/19/466 486/20/466 483/17/466
f 487/17/467 485/18/467 489/20/467
f 490/19/467 487/20/467 489/17/467
f 491/22/467 490/21/467 489/23/467
f 485/19/467 491/20/467 489/17/467
f 493/19/467 492/20/467 491/17/467
f 496/19/465 493/20/465 495/17/465
f 495/19/346 485/20/346 497/17/346
f 496/19/468 497/20/468 499/17/468
f 497/19/465 482/20/465 498/17/465
f 486/19/468 498/20/468 481/17/462
f 500/19/468 497/20/468 486/17/468
f 500/19/365 501/20/365 499/17/365
f 494/19/365 499/20/365 501/17/365
f 501/19/467 488/20/467 490/17/467
f 492/17/467 501/18/467 490/20/467
f 481/19/462 502/20/468 474/17/463
f 503/19/465 498/20/465 482/17/465
f 474/19/346 503/20/346 475/17/346
f 505/25/15 506/26/15 504/27/15
f 513/28/346 511/28/346 515/28/346
f 514/28/365 508/28/365 512/28/365
f 515/28/469 510/28/469 514/28/469
f 512/28/470 509/28/470 513/28/470
f 504/29/15 513/29/15 505/29/15
f 506/29/15 512/29/15 504/29/15
f 506/29/15 515/29/15 514/29/15
f 505/29/15 515/29/15 507/29/15
f 523/30/471 530/30/472 531/30/473
f 520/30/474 527/30/474 521/30/475
f 529/30/476 522/30/477 528/30/478
f 523/30/471 521/30/479 525/30/480
f 519/30/481 521/30/481 517/30/481
f 518/30/482 531/30/482 528/30/482
f 522/30/477 520/30/483 519/30/484
f 524/30/485 526/30/485 520/30/485
f 525/30/486 527/30/486 533/30/486
f 551/30/487 542/30/488 550/30/487
f 530/30/489 528/30/489 531/30/489
f 525/30/490 529/30/490 530/30/491
f 532/30/492 527/30/492 526/30/492
f 548/30/493 543/30/494 541/30/495
f 545/30/496 538/30/496 539/30/497
f 546/30/498 540/30/499 547/30/500
f 541/30/495 539/30/501 535/30/502
f 539/30/503 537/30/503 535/30/503
f 536/30/504 549/30/504 534/30/504
f 538/30/505 540/30/499 537/30/506
f 544/30/507 542/30/507 538/30/507
f 543/30/508 545/30/508 539/30/509
f 548/30/510 546/30/510 547/30/510
f 547/30/511 543/30/511 548/30/512
f 545/30/513 550/30/513 544/30/513
f 573/31/514 568/31/515 575/31/516
f 555/31/9 565/31/9 556/31/9
f 553/31/517 572/31/517 557/31/517
f 565/31/518 560/31/518 567/31/518
f 556/31/9 566/31/9 552/31/9
f 566/31/9 556/31/9 565/31/9
f 560/31/519 556/31/520 562/31/521
f 559/31/522 564/31/523 561/31/523
f 567/31/518 578/31/524 576/31/524
f 568/31/525 576/31/526 575/31/526
f 563/31/527 587/31/527 564/31/527
f 564/31/528 578/31/529 560/31/530
f 562/31/531 564/31/532 560/31/531
f 554/31/533 566/31/534 565/31/535
f 554/31/533 567/31/536 558/31/533
f 557/31/533 566/31/534 553/31/533
f 558/31/533 568/31/525 557/31/533
f 570/32/537 571/32/537 572/32/537
f 554/31/538 570/31/538 553/31/538
f 558/31/539 572/31/539 571/31/539
f 554/31/540 571/31/540 569/31/540
f 573/31/514 589/31/541 574/31/541
f 577/31/2 579/31/2 588/31/2
f 589/31/542 576/31/526 588/31/542
f 588/31/543 581/31/543 577/31/543
f 579/31/2 574/31/2 589/31/2
f 589/31/2 588/31/2 579/31/2
f 581/31/544 579/31/545 577/31/546
f 586/31/547 580/31/548 582/31/547
f 576/31/524 581/31/543 588/31/543
f 587/31/527 585/31/527 586/31/527
f 578/31/529 586/31/549 581/31/550
f 583/31/551 586/31/552 582/31/551
f 647/33/553 666/33/553 657/33/553
f 659/33/554 641/33/554 640/33/554
f 660/33/555 643/33/555 642/33/555
f 643/33/556 662/33/556 644/33/556
f 645/33/557 664/33/557 646/33/557
f 619/33/558 609/33/558 608/33/558
f 664/33/559 647/33/559 646/33/559
f 652/33/560 638/33/560 613/33/560
f 647/33/561 648/33/561 606/33/561
f 591/33/560 631/33/560 590/33/560
f 616/33/562 610/33/562 617/33/562
f 616/33/563 612/33/563 611/33/563
f 628/33/564 634/33/564 627/33/564
f 622/33/565 638/33/565 639/33/565
f 630/33/566 632/33/566 629/33/566
f 628/33/567 632/33/567 633/33/567
f 622/33/568 631/33/568 630/33/568
f 617/33/569 609/33/569 618/33/569
f 654/33/570 630/33/570 621/33/570
f 615/33/570 623/33/570 614/33/570
f 625/33/570 615/33/570 616/33/570
f 627/33/570 617/33/570 618/33/570
f 628/33/570 618/33/570 619/33/570
f 630/33/570 620/33/570 621/33/570
f 611/33/560 637/33/560 636/33/560
f 609/33/560 633/33/560 608/33/560
f 613/33/560 637/33/560 612/33/560
f 610/33/560 634/33/560 609/33/560
f 655/33/571 613/33/571 614/33/571
f 653/33/560 631/33/560 639/33/560
f 611/33/560 635/33/560 610/33/560
f 591/33/560 633/33/560 632/33/560
f 624/33/572 638/33/572 623/33/572
f 591/33/567 619/33/567 620/33/567
f 625/33/573 637/33/573 624/33/573
f 621/33/574 591/33/574 590/33/574
f 625/33/575 635/33/575 636/33/575
f 654/33/576 590/33/576 653/33/576
f 623/33/570 655/33/570 614/33/570
f 627/33/577 635/33/577 626/33/577
f 614/33/578 612/33/578 615/33/578
f 667/33/579 640/33/579 656/33/579
f 599/33/580 672/33/580 601/33/580
f 646/33/581 606/33/581 604/33/582
f 602/33/583 646/33/583 604/33/583
f 644/33/584 602/33/584 600/33/584
f 598/33/585 644/33/585 600/33/585
f 596/33/586 643/33/586 598/33/586
f 594/33/567 642/33/567 596/33/567
f 592/33/587 641/33/587 594/33/587
f 628/33/570 620/33/570 629/33/570
f 626/33/570 616/33/570 617/33/570
f 645/33/588 662/33/588 663/33/588
f 658/33/589 642/33/589 641/33/589
f 620/33/590 642/33/590 641/33/590
f 615/33/591 645/33/592 616/33/593
f 658/33/594 608/33/594 591/33/594
f 656/33/595 655/33/595 654/33/595
f 611/33/596 664/33/597 612/33/598
f 619/33/599 660/33/600 642/33/601
f 663/33/602 616/33/603 645/33/604
f 652/33/560 653/33/560 639/33/560
f 654/33/570 655/33/570 622/33/570
f 657/33/605 667/33/605 656/33/605
f 653/33/577 655/33/577 654/33/577
f 657/33/606 649/33/606 648/33/606
f 649/33/607 640/33/607 592/33/607
f 667/33/608 652/33/608 666/33/608
f 666/33/609 655/33/609 657/33/609
f 654/33/610 667/33/610 656/33/610
f 595/33/611 659/33/612 593/33/613
f 595/33/614 660/33/615 658/33/616
f 599/33/617 660/33/615 597/33/618
f 599/33/619 662/33/620 661/33/621
f 603/33/622 662/33/622 601/33/622
f 603/33/623 664/33/624 663/33/623
f 607/33/625 664/33/625 605/33/625
f 651/33/626 667/33/627 666/33/628
f 593/33/613 667/33/627 650/33/629
f 607/33/630 666/33/631 665/33/632
f 670/33/611 668/33/633 677/33/634
f 593/33/635 668/33/635 595/33/635
f 651/33/636 677/33/636 650/33/636
f 603/33/637 672/33/637 673/33/637
f 595/33/638 670/33/638 597/33/638
f 650/33/639 669/33/639 593/33/639
f 605/33/640 673/33/640 674/33/640
f 597/33/641 671/33/641 599/33/641
f 651/33/642 675/33/642 676/33/642
f 607/33/643 674/33/643 675/33/643
f 658/33/644 620/33/645 641/33/645
f 664/33/646 615/33/647 612/33/648
f 552/31/649 568/31/515 573/31/514
f 533/30/650 524/30/651 525/30/652
f 680/30/653 679/30/653 678/30/653
f 683/30/654 684/30/654 682/30/654
f 686/30/655 689/30/655 687/30/655
f 693/30/656 690/30/656 691/30/656
f 679/30/657 687/30/657 678/30/657
f 690/30/658 685/30/658 683/30/658
f 685/30/659 693/30/659 684/30/659
f 681/30/660 686/30/660 679/30/660
f 689/30/661 681/30/661 680/30/661
f 684/30/9 691/30/9 682/30/9
f 691/30/662 683/30/662 682/30/662
f 687/30/2 680/30/2 678/30/2
f 695/34/657 703/34/657 694/34/657
f 706/34/658 701/34/658 699/34/658
f 701/34/659 709/34/659 700/34/659
f 697/34/660 702/34/660 695/34/660
f 705/34/661 697/34/661 696/34/661
f 700/34/9 707/34/9 698/34/9
f 707/34/662 699/34/662 698/34/662
f 703/34/2 696/34/2 694/34/2
f 112/1/1 95/1/1 98/1/1
f 1/2/2 78/2/2 76/2/2
f 203/2/3 97/2/3 95/2/3
f 98/2/4 2/2/4 77/2/4
f 2/2/4 76/2/4 77/2/4
f 116/1/1 101/1/1 100/1/1
f 3/2/2 81/2/2 79/2/2
f 116/2/3 208/2/3 102/2/3
f 100/2/4 4/2/4 82/2/4
f 4/2/4 79/2/4 82/2/4
f 89/2/7 84/2/8 6/2/8
f 9/3/9 105/3/9 19/3/9
f 35/2/9 104/2/9 103/2/9
f 11/4/9 22/4/9 23/4/10
f 17/2/9 24/2/9 22/2/9
f 53/4/11 26/4/663 29/4/12
f 51/4/13 66/4/13 65/4/13
f 22/2/14 24/2/14 139/2/14
f 69/3/15 67/3/15 147/3/15
f 67/3/15 189/3/15 147/3/15
f 68/2/16 83/2/664 102/2/17
f 20/3/15 19/3/15 67/3/15
f 5/2/19 32/2/40 87/2/20
f 23/4/22 22/4/22 137/4/22
f 30/4/23 31/4/23 46/4/23
f 17/2/24 18/2/26 25/2/25
f 143/4/22 237/4/22 108/4/22
f 9/2/27 20/2/665 21/2/28
f 11/2/29 38/2/29 44/2/29
f 12/2/30 39/2/31 38/2/31
f 13/2/33 40/2/33 39/2/33
f 5/2/34 6/2/34 33/2/34
f 13/2/35 14/2/666 41/2/35
f 16/2/36 43/2/36 42/2/36
f 38/2/9 41/2/9 42/2/9
f 38/2/9 39/2/9 40/2/9
f 21/2/37 68/2/155 37/2/38
f 86/2/21 87/2/20 43/2/39
f 32/2/40 164/2/217 214/2/41
f 44/2/42 45/2/42 18/2/42
f 45/2/43 43/2/43 165/2/43
f 31/4/44 146/4/44 166/4/44
f 146/4/44 168/4/45 166/4/44
f 45/2/46 149/2/46 25/2/46
f 30/4/47 53/4/47 52/4/47
f 236/4/48 182/4/49 60/4/49
f 58/5/50 223/5/223 167/5/51
f 25/2/667 149/2/54 24/2/53
f 149/2/54 140/2/667 139/2/55
f 221/4/56 94/4/57 30/4/57
f 14/4/59 13/4/60 27/4/60
f 45/2/63 44/2/63 42/2/64
f 61/4/65 108/4/72 107/4/66
f 88/2/67 89/2/6 86/2/5
f 51/4/69 91/4/125 54/4/70
f 61/4/65 62/4/71 54/4/70
f 61/4/73 64/4/73 63/4/73
f 51/4/74 62/4/74 63/4/74
f 61/4/75 48/4/75 65/4/75
f 46/5/76 56/5/668 58/5/77
f 166/5/79 55/5/171 56/5/80
f 64/6/82 65/6/669 109/6/83
f 66/6/84 63/6/84 57/6/85
f 91/4/87 55/4/670 57/4/88
f 55/4/89 91/4/89 90/4/90
f 56/4/91 90/4/91 85/4/91
f 216/7/92 210/7/92 84/7/92
f 195/4/93 193/4/275 71/4/94
f 20/2/96 69/2/177 76/2/671
f 69/2/177 77/2/178 76/2/671
f 83/2/664 68/2/16 81/2/97
f 68/2/16 21/2/98 81/2/97
f 21/2/98 20/2/96 79/2/96
f 20/2/96 76/2/671 78/2/96
f 78/2/96 80/2/672 79/2/96
f 80/2/672 82/2/112 79/2/96
f 20/2/96 78/2/96 79/2/96
f 111/4/99 71/4/99 67/4/99
f 8/4/101 7/4/115 29/4/102
f 12/4/10 28/4/100 27/4/60
f 197/4/105 195/4/105 73/4/105
f 196/4/106 74/4/106 72/4/106
f 194/4/107 72/4/138 92/4/108
f 73/4/110 72/4/673 74/4/111
f 82/2/112 80/2/672 97/2/113
f 87/2/20 214/2/41 165/2/117
f 174/4/118 146/4/118 31/4/118
f 15/2/119 42/2/119 41/2/119
f 36/2/120 9/2/120 10/2/120
f 52/4/121 53/4/122 85/4/122
f 60/4/124 52/4/121 90/4/123
f 60/4/124 91/4/125 51/4/69
f 51/4/69 48/4/66 60/4/124
f 58/7/128 85/7/674 29/7/129
f 50/7/15 27/7/15 142/7/15
f 186/7/130 64/7/130 110/7/130
f 216/7/131 89/7/131 88/7/131
f 176/7/15 142/7/15 27/7/15
f 88/7/132 50/7/132 172/7/132
f 53/4/133 94/4/675 93/4/134
f 75/1/137 74/1/137 196/1/137
f 71/4/94 92/4/108 72/4/138
f 108/4/139 54/4/676 27/4/139
f 240/5/143 187/5/142 238/5/141
f 238/5/141 109/5/141 240/5/143
f 239/4/144 110/4/144 49/4/144
f 80/2/113 77/2/113 96/2/113
f 1/2/3 95/2/3 80/2/3
f 95/2/3 97/2/3 80/2/3
f 96/2/4 209/2/4 113/2/4
f 95/1/1 1/1/1 2/1/1
f 83/2/113 82/2/113 99/2/113
f 3/2/3 101/2/3 83/2/3
f 101/2/3 102/2/3 83/2/3
f 99/2/4 206/2/4 117/2/4
f 101/1/1 3/1/1 4/1/1
f 103/2/9 104/2/9 36/2/9
f 8/2/145 105/2/145 104/2/146
f 9/2/148 36/2/148 104/2/148
f 106/2/149 103/2/149 33/2/149
f 7/2/150 34/2/677 103/2/151
f 106/4/116 6/4/678 84/4/153
f 8/2/154 35/2/154 34/2/154
f 164/2/157 32/2/157 37/2/157
f 167/4/158 169/4/158 145/4/158
f 145/4/158 30/4/158 167/4/158
f 37/2/159 32/2/679 33/2/160
f 15/2/161 50/2/162 88/2/161
f 138/4/22 143/4/22 28/4/22
f 236/4/163 107/4/164 59/4/164
f 49/4/166 59/4/164 107/4/164
f 237/4/168 171/4/291 49/4/166
f 238/4/169 181/4/169 59/4/169
f 49/4/170 110/4/170 109/4/170
f 67/4/99 71/4/99 193/4/99
f 240/5/143 66/5/172 55/5/171
f 63/7/173 64/7/174 186/7/174
f 185/7/173 179/7/175 57/7/175
f 176/7/176 54/7/176 57/7/176
f 69/2/177 147/2/113 96/2/113
f 203/2/113 206/2/113 99/2/113
f 92/4/108 71/4/94 111/4/179
f 93/4/180 111/4/179 70/4/181
f 112/1/1 113/1/1 227/1/1
f 114/2/9 115/2/9 198/2/9
f 224/2/3 226/2/3 203/2/3
f 198/2/4 115/2/4 199/2/4
f 115/2/4 227/2/4 199/2/4
f 116/1/1 117/1/1 229/1/1
f 118/2/9 119/2/9 201/2/9
f 116/2/3 230/2/3 231/2/3
f 201/2/4 119/2/4 205/2/4
f 119/2/4 229/2/4 205/2/4
f 216/2/189 120/2/190 121/2/190
f 134/3/2 234/3/2 124/3/2
f 232/2/2 233/2/2 153/2/2
f 138/4/191 137/4/2 126/4/2
f 137/2/2 139/2/2 132/2/2
f 175/4/192 211/4/680 144/4/193
f 187/4/195 188/4/195 173/4/195
f 231/2/196 207/2/681 190/2/197
f 189/3/15 134/3/15 135/3/15
f 213/2/198 150/2/217 120/2/199
f 145/4/201 169/4/201 168/4/201
f 132/2/202 139/2/202 140/2/203
f 124/2/205 125/2/206 136/2/206
f 162/2/29 156/2/29 126/2/29
f 156/2/208 157/2/208 127/2/209
f 157/2/211 158/2/211 128/2/211
f 120/2/34 150/2/34 151/2/34
f 128/2/212 158/2/212 159/2/212
f 131/2/36 130/2/36 160/2/36
f 160/2/2 159/2/2 156/2/2
f 156/2/2 159/2/2 158/2/2
f 136/2/214 125/2/682 155/2/215
f 212/2/200 131/2/39 161/2/39
f 214/2/41 164/2/217 150/2/217
f 162/2/42 132/2/42 133/2/42
f 163/2/218 149/2/219 165/2/219
f 140/2/220 149/2/220 163/2/220
f 174/4/221 175/4/221 145/4/221
f 180/5/222 169/5/222 167/5/51
f 129/4/224 172/4/228 142/4/225
f 163/2/229 161/2/229 160/2/230
f 236/4/231 237/4/683 183/4/232
f 215/2/233 131/2/684 212/2/183
f 176/4/234 218/4/269 173/4/235
f 183/4/232 237/4/683 176/4/234
f 185/4/237 186/4/237 183/4/237
f 173/4/238 188/4/238 185/4/238
f 183/4/239 186/4/239 187/4/239
f 168/5/240 169/5/685 180/5/241
f 166/5/79 168/5/686 178/5/242
f 186/6/244 239/6/245 238/6/245
f 188/6/246 177/6/687 179/6/247
f 179/4/249 177/4/688 218/4/250
f 217/4/252 218/4/253 177/4/253
f 178/4/254 180/4/254 211/4/254
f 136/2/689 190/2/197 204/2/690
f 190/2/197 207/2/681 204/2/690
f 199/2/691 191/2/294 198/2/692
f 191/2/294 135/2/255 198/2/692
f 135/2/255 136/2/689 201/2/255
f 136/2/689 204/2/690 201/2/255
f 201/2/255 205/2/263 202/2/693
f 200/2/255 198/2/692 135/2/255
f 201/2/255 202/2/693 200/2/255
f 189/4/99 193/4/99 241/4/99
f 123/4/257 141/4/260 144/4/186
f 127/4/191 128/4/226 142/4/225
f 195/4/261 197/4/261 196/4/261
f 226/2/113 202/2/693 205/2/263
f 165/2/117 214/2/41 213/2/198
f 159/2/119 160/2/119 130/2/119
f 154/2/120 155/2/120 125/2/120
f 174/4/264 217/4/267 211/4/265
f 217/4/267 174/4/264 182/4/268
f 173/4/235 218/4/269 182/4/268
f 182/4/268 236/4/231 170/4/231
f 144/7/271 211/7/694 180/7/270
f 220/4/272 221/4/695 175/4/273
f 193/4/275 195/4/93 194/4/107
f 142/4/276 176/4/696 237/4/277
f 225/2/113 199/2/113 202/2/113
f 226/2/3 224/2/3 202/2/3
f 224/2/3 114/2/3 202/2/3
f 113/2/4 209/2/4 225/2/4
f 115/1/1 114/1/1 224/1/1
f 228/2/113 205/2/113 207/2/113
f 231/2/3 230/2/3 207/2/3
f 230/2/3 118/2/3 207/2/3
f 117/2/4 206/2/4 228/2/4
f 119/1/1 118/1/1 230/1/1
f 232/2/2 151/2/2 154/2/2
f 123/2/279 153/2/697 233/2/280
f 233/2/148 154/2/148 124/2/148
f 151/2/149 232/2/149 235/2/149
f 232/2/281 152/2/698 122/2/282
f 152/2/284 153/2/284 123/2/284
f 155/2/286 150/2/286 164/2/286
f 151/2/287 150/2/699 155/2/288
f 215/2/289 172/2/289 130/2/290
f 171/4/291 237/4/168 236/4/163
f 238/4/292 239/4/292 171/4/292
f 240/5/143 166/5/79 177/5/243
f 191/2/294 199/2/691 225/2/113
f 228/2/113 206/2/113 203/2/113
f 219/4/109 220/4/296 241/4/295
f 220/4/296 141/4/700 192/4/297
f 244/8/9 242/8/9 247/8/9
f 256/8/298 244/8/701 251/8/299
f 246/8/301 252/8/301 251/8/302
f 242/8/303 244/8/702 256/8/304
f 247/8/306 242/8/306 248/8/306
f 245/9/307 250/9/308 249/9/308
f 246/10/309 247/10/311 253/10/310
f 255/8/312 254/8/316 248/8/313
f 243/11/315 249/11/703 254/11/316
f 255/9/305 256/9/304 245/9/317
f 245/9/318 256/9/298 257/9/300
f 263/8/2 258/8/2 260/8/2
f 272/8/319 273/8/339 267/8/320
f 267/8/322 268/8/322 262/8/323
f 272/8/324 260/8/325 258/8/325
f 263/8/327 269/8/327 264/8/327
f 265/9/328 266/9/329 261/9/329
f 262/10/330 268/10/331 269/10/331
f 271/8/332 258/8/333 264/8/333
f 259/11/335 271/11/332 270/11/334
f 261/9/337 272/9/324 271/9/326
f 261/9/338 266/9/338 273/9/339
f 285/9/340 277/9/340 281/9/340
f 291/9/9 293/9/9 282/9/9
f 293/8/9 296/8/9 287/8/9
f 284/8/341 275/8/341 288/8/341
f 295/12/342 280/12/704 283/12/343
f 278/12/345 283/12/345 280/12/345
f 279/9/346 281/9/346 277/9/346
f 279/9/341 274/9/341 275/9/341
f 289/8/340 285/8/340 282/8/340
f 278/12/340 289/12/340 287/12/340
f 296/12/9 294/12/9 283/12/9
f 297/8/22 292/8/22 284/8/22
f 280/12/341 286/12/341 288/12/341
f 292/9/22 290/9/22 279/9/22
f 280/12/22 295/12/22 297/12/22
f 292/9/347 293/9/347 291/9/347
f 297/12/347 295/12/347 294/12/347
f 297/8/347 296/8/347 293/8/347
f 290/9/346 291/9/346 281/9/346
f 305/9/348 301/9/348 309/9/348
f 306/9/2 317/9/2 315/9/2
f 311/8/2 320/8/2 317/8/2
f 312/8/349 299/8/349 308/8/349
f 307/12/350 304/12/704 319/12/351
f 302/12/353 300/12/353 304/12/354
f 303/9/346 298/9/346 301/9/346
f 299/9/349 298/9/349 303/9/349
f 306/8/348 309/8/348 313/8/348
f 311/12/348 313/12/348 302/12/348
f 307/12/2 318/12/2 320/12/2
f 308/8/22 316/8/22 321/8/22
f 304/12/349 300/12/349 312/12/349
f 303/9/22 314/9/22 316/9/22
f 310/12/22 321/12/22 319/12/22
f 315/9/355 317/9/355 316/9/355
f 321/12/355 320/12/355 318/12/355
f 317/8/355 320/8/355 321/8/355
f 314/9/346 303/9/346 305/9/346
f 29/7/22 84/7/22 222/7/22
f 84/7/22 210/7/22 222/7/22
f 182/4/49 174/4/356 52/4/356
f 325/2/357 327/2/357 328/2/357
f 324/2/358 326/2/358 329/2/358
f 324/2/359 322/2/359 323/2/359
f 322/2/360 327/2/360 325/2/360
f 326/2/361 323/2/361 325/2/361
f 324/2/362 328/2/362 327/2/363
f 333/2/357 335/2/357 336/2/357
f 332/2/358 334/2/358 337/2/358
f 332/2/359 330/2/359 331/2/359
f 330/2/360 335/2/360 333/2/360
f 334/2/361 331/2/361 333/2/361
f 332/2/363 336/2/363 335/2/363
f 105/4/9 8/4/101 70/4/104
f 339/2/364 344/2/364 345/2/364
f 338/2/365 356/2/365 355/2/365
f 349/2/9 348/2/9 343/2/9
f 341/2/346 354/2/346 357/2/346
f 339/2/22 357/2/22 356/2/22
f 342/2/9 345/2/9 344/2/9
f 342/2/366 343/2/366 338/2/366
f 341/2/367 345/2/367 342/2/367
f 347/2/364 349/2/364 344/2/364
f 353/2/9 352/2/9 348/2/9
f 352/2/366 350/2/366 346/2/366
f 351/2/22 360/2/22 361/2/22
f 346/2/15 359/2/15 358/2/15
f 348/2/366 346/2/366 338/2/366
f 339/2/2 338/2/2 346/2/2
f 350/2/365 361/2/365 359/2/365
f 352/2/368 353/2/368 351/2/368
f 347/2/346 358/2/346 360/2/346
f 347/2/364 351/2/364 353/2/364
f 356/2/2 357/2/2 354/2/2
f 361/2/2 360/2/2 358/2/2
f 340/2/15 355/2/15 354/2/15
f 365/2/369 373/2/705 377/2/370
f 367/4/372 371/4/706 372/4/373
f 367/4/374 364/4/374 369/4/374
f 362/4/375 363/4/375 372/4/375
f 374/4/376 366/4/377 368/4/376
f 363/4/378 375/4/378 368/4/379
f 367/4/379 368/4/379 379/4/380
f 363/4/378 362/4/707 378/4/382
f 378/4/382 362/4/707 364/4/381
f 378/13/383 384/13/383 383/13/384
f 379/13/385 385/13/385 384/13/385
f 374/13/386 383/13/386 382/13/387
f 379/13/390 368/13/391 381/13/391
f 385/14/393 381/14/394 371/14/394
f 384/14/395 385/14/396 369/14/396
f 384/14/397 370/14/397 372/14/398
f 366/13/399 365/13/399 380/13/399
f 382/15/400 387/15/708 377/15/400
f 387/14/2 382/14/2 380/14/2
f 381/14/401 383/14/401 372/14/401
f 387/16/402 386/16/402 376/16/402
f 369/4/404 364/4/404 362/4/404
f 374/4/405 373/4/709 365/4/406
f 382/14/2 383/14/2 381/14/2
f 380/15/408 365/15/408 376/15/409
f 391/17/410 392/20/410 396/18/410
f 394/20/411 390/18/412 389/19/412
f 392/20/365 390/18/365 398/19/365
f 391/17/346 395/20/346 397/18/346
f 396/20/414 398/18/414 397/19/414
f 402/20/415 408/18/415 405/19/415
f 402/20/415 410/18/415 409/19/415
f 404/20/416 403/18/416 416/19/416
f 394/20/417 407/18/417 414/19/417
f 408/17/365 406/20/365 413/18/365
f 407/20/417 405/18/417 413/19/417
f 399/20/415 402/18/415 407/19/415
f 398/20/416 414/18/416 401/19/416
f 400/20/414 401/18/414 402/19/414
f 418/20/414 417/18/414 409/19/414
f 401/20/346 418/18/346 410/19/346
f 416/21/416 411/35/416 412/22/416
f 406/17/365 408/20/365 409/18/365
f 404/20/416 414/18/416 413/19/416
f 404/17/416 415/20/416 401/18/416
f 403/20/416 413/18/416 406/19/416
f 411/20/416 417/18/416 418/19/416
f 412/20/416 418/18/416 401/19/416
f 411/17/416 416/20/416 406/18/416
f 399/20/414 419/18/414 420/19/414
f 400/20/416 420/18/416 397/19/416
f 397/17/346 420/20/346 419/18/346
f 419/20/415 399/18/415 394/19/411
f 422/2/418 424/2/418 428/2/418
f 438/2/365 439/2/365 421/2/365
f 426/2/2 431/2/2 432/2/2
f 440/2/346 437/2/346 424/2/346
f 439/2/22 440/2/22 422/2/22
f 427/2/2 428/2/2 425/2/2
f 421/2/419 426/2/419 425/2/419
f 424/2/420 423/2/420 425/2/420
f 427/2/418 432/2/418 430/2/418
f 431/2/2 435/2/2 436/2/2
f 429/2/419 433/2/419 435/2/419
f 444/2/22 443/2/22 434/2/22
f 441/2/15 442/2/15 429/2/15
f 421/2/419 429/2/419 431/2/419
f 429/2/9 421/2/9 422/2/9
f 442/2/365 444/2/365 433/2/365
f 434/2/421 436/2/421 435/2/421
f 443/2/346 441/2/346 430/2/346
f 430/2/418 432/2/418 436/2/418
f 437/2/9 440/2/9 439/2/9
f 441/2/9 443/2/9 444/2/9
f 437/2/15 438/2/15 423/2/15
f 460/2/422 456/2/710 448/2/423
f 455/4/425 454/4/425 450/4/425
f 450/4/426 454/4/426 452/4/426
f 445/4/427 453/4/427 455/4/427
f 451/4/428 449/4/428 457/4/428
f 451/4/429 458/4/430 446/4/430
f 450/4/429 447/4/433 462/4/431
f 461/4/432 445/4/434 446/4/430
f 461/4/432 462/4/431 447/4/433
f 466/13/435 467/13/436 461/13/436
f 467/13/437 468/13/437 462/13/437
f 457/13/438 456/13/711 465/13/439
f 462/13/441 468/13/712 464/13/442
f 468/14/444 452/14/444 454/14/445
f 452/14/446 468/14/446 467/14/447
f 455/14/448 453/14/449 467/14/449
f 449/13/450 464/13/450 463/13/450
f 465/15/451 456/15/713 460/15/451
f 470/14/9 469/14/9 463/14/9
f 464/14/453 471/14/453 455/14/453
f 470/24/454 460/24/455 459/24/455
f 452/4/456 453/4/457 445/4/457
f 448/4/458 456/4/714 457/4/459
f 465/14/9 463/14/9 464/14/9
f 459/15/460 448/15/460 463/15/460
f 472/19/461 473/18/461 481/20/462
f 476/17/346 472/19/346 475/18/346
f 478/19/464 479/18/464 477/20/464
f 475/19/465 480/18/465 479/20/465
f 480/19/365 473/18/365 477/20/365
f 483/19/466 486/18/466 481/20/466
f 475/19/467 503/18/467 482/20/467
f 485/19/467 483/18/467 480/20/467
f 484/19/467 483/18/467 487/20/467
f 484/19/466 500/18/466 486/20/466
f 487/17/467 483/19/467 485/18/467
f 490/19/467 488/18/467 487/20/467
f 491/22/467 492/35/467 490/21/467
f 485/19/467 493/18/467 491/20/467
f 493/19/467 494/18/467 492/20/467
f 496/19/465 494/18/465 493/20/465
f 495/19/346 493/18/346 485/20/346
f 496/19/468 495/18/468 497/20/468
f 497/19/465 485/18/465 482/20/465
f 486/19/468 497/18/468 498/20/468
f 500/19/468 499/18/468 497/20/468
f 500/19/365 484/18/365 501/20/365
f 494/19/365 496/18/365 499/20/365
f 501/19/467 484/18/467 488/20/467
f 492/17/467 494/19/467 501/18/467
f 481/19/462 498/18/468 502/20/468
f 503/19/465 502/18/465 498/20/465
f 474/19/346 502/18/346 503/20/346
f 505/25/15 507/36/15 506/26/15
f 513/28/346 509/28/346 511/28/346
f 514/28/365 510/28/365 508/28/365
f 515/28/469 511/28/469 510/28/469
f 512/28/470 508/28/470 509/28/470
f 504/29/15 512/29/15 513/29/15
f 506/29/15 514/29/15 512/29/15
f 506/29/15 507/29/15 515/29/15
f 505/29/15 513/29/15 515/29/15
f 531/30/473 516/30/715 523/30/471
f 523/30/471 525/30/480 530/30/472
f 520/30/474 526/30/474 527/30/474
f 524/30/716 522/30/477 529/30/476
f 522/30/477 518/30/717 528/30/478
f 523/30/471 517/30/718 521/30/479
f 519/30/481 520/30/481 521/30/481
f 518/30/482 516/30/482 531/30/482
f 522/30/477 524/30/716 520/30/483
f 524/30/485 532/30/485 526/30/485
f 525/30/486 521/30/486 527/30/486
f 551/30/487 543/30/719 542/30/488
f 530/30/489 529/30/489 528/30/489
f 525/30/490 524/30/490 529/30/490
f 532/30/492 533/30/492 527/30/492
f 541/30/495 534/30/720 549/30/721
f 549/30/721 548/30/493 541/30/495
f 545/30/496 544/30/496 538/30/496
f 536/30/722 540/30/499 546/30/498
f 540/30/499 542/30/723 547/30/500
f 541/30/495 543/30/494 539/30/501
f 539/30/503 538/30/503 537/30/503
f 536/30/504 546/30/504 549/30/504
f 538/30/505 542/30/723 540/30/499
f 544/30/507 550/30/507 542/30/507
f 543/30/508 551/30/508 545/30/508
f 548/30/510 549/30/510 546/30/510
f 547/30/511 542/30/511 543/30/511
f 545/30/513 551/30/513 550/30/513
f 553/31/517 570/31/517 572/31/517
f 565/31/518 555/31/518 560/31/518
f 560/31/519 555/31/724 556/31/520
f 559/31/522 563/31/522 564/31/523
f 567/31/518 560/31/518 578/31/524
f 568/31/525 567/31/536 576/31/526
f 563/31/527 584/31/527 587/31/527
f 564/31/528 587/31/725 578/31/529
f 562/31/531 561/31/531 564/31/532
f 554/31/533 553/31/533 566/31/534
f 554/31/533 565/31/535 567/31/536
f 557/31/533 568/31/525 566/31/534
f 558/31/533 567/31/536 568/31/525
f 570/32/537 569/32/537 571/32/537
f 554/31/538 569/31/538 570/31/538
f 558/31/539 557/31/539 572/31/539
f 554/31/540 558/31/540 571/31/540
f 573/31/514 575/31/516 589/31/541
f 589/31/542 575/31/526 576/31/526
f 581/31/544 583/31/726 579/31/545
f 586/31/547 585/31/548 580/31/548
f 576/31/524 578/31/524 581/31/543
f 587/31/527 584/31/527 585/31/527
f 578/31/529 587/31/725 586/31/549
f 583/31/551 581/31/551 586/31/552
f 647/33/553 665/33/553 666/33/553
f 659/33/554 658/33/554 641/33/554
f 660/33/555 661/33/555 643/33/555
f 643/33/556 661/33/556 662/33/556
f 645/33/557 663/33/557 664/33/557
f 619/33/558 618/33/558 609/33/558
f 664/33/559 665/33/559 647/33/559
f 652/33/560 639/33/560 638/33/560
f 647/33/561 657/33/561 648/33/561
f 591/33/560 632/33/560 631/33/560
f 616/33/562 611/33/562 610/33/562
f 616/33/563 615/33/563 612/33/563
f 628/33/564 633/33/564 634/33/564
f 622/33/565 623/33/565 638/33/565
f 630/33/566 631/33/566 632/33/566
f 628/33/567 629/33/567 632/33/567
f 622/33/568 639/33/568 631/33/568
f 617/33/569 610/33/569 609/33/569
f 654/33/570 622/33/570 630/33/570
f 615/33/570 624/33/570 623/33/570
f 625/33/570 624/33/570 615/33/570
f 627/33/570 626/33/570 617/33/570
f 628/33/570 627/33/570 618/33/570
f 630/33/570 629/33/570 620/33/570
f 611/33/560 612/33/560 637/33/560
f 609/33/560 634/33/560 633/33/560
f 613/33/560 638/33/560 637/33/560
f 610/33/560 635/33/560 634/33/560
f 655/33/571 652/33/571 613/33/571
f 653/33/560 590/33/560 631/33/560
f 611/33/560 636/33/560 635/33/560
f 591/33/560 608/33/560 633/33/560
f 624/33/572 637/33/572 638/33/572
f 591/33/567 608/33/567 619/33/567
f 625/33/573 636/33/573 637/33/573
f 621/33/574 620/33/574 591/33/574
f 625/33/575 626/33/575 635/33/575
f 654/33/576 621/33/576 590/33/576
f 623/33/570 622/33/570 655/33/570
f 627/33/577 634/33/577 635/33/577
f 614/33/578 613/33/578 612/33/578
f 667/33/579 659/33/579 640/33/579
f 599/33/580 671/33/580 672/33/580
f 646/33/581 647/33/581 606/33/581
f 602/33/583 645/33/583 646/33/583
f 644/33/584 645/33/584 602/33/584
f 598/33/585 643/33/727 644/33/585
f 596/33/586 642/33/586 643/33/586
f 594/33/567 641/33/567 642/33/567
f 592/33/587 640/33/587 641/33/587
f 628/33/570 619/33/570 620/33/570
f 626/33/570 625/33/570 616/33/570
f 645/33/588 644/33/588 662/33/588
f 658/33/589 660/33/589 642/33/589
f 620/33/590 619/33/590 642/33/590
f 615/33/591 646/33/728 645/33/592
f 658/33/594 660/33/594 608/33/594
f 656/33/595 657/33/595 655/33/595
f 611/33/596 663/33/598 664/33/597
f 619/33/599 608/33/601 660/33/600
f 663/33/602 611/33/729 616/33/603
f 657/33/605 666/33/605 667/33/605
f 653/33/577 652/33/577 655/33/577
f 657/33/606 656/33/606 649/33/606
f 649/33/607 656/33/607 640/33/607
f 667/33/608 653/33/608 652/33/608
f 666/33/609 652/33/609 655/33/609
f 654/33/610 653/33/730 667/33/610
f 595/33/611 658/33/611 659/33/612
f 595/33/614 597/33/618 660/33/615
f 599/33/617 661/33/617 660/33/615
f 599/33/619 601/33/620 662/33/620
f 603/33/622 663/33/622 662/33/622
f 603/33/623 605/33/624 664/33/624
f 607/33/625 665/33/625 664/33/625
f 651/33/626 650/33/629 667/33/627
f 593/33/613 659/33/612 667/33/627
f 607/33/630 651/33/632 666/33/631
f 668/33/633 669/33/611 677/33/634
f 677/33/634 676/33/611 672/33/611
f 676/33/611 675/33/611 674/33/731
f 677/33/634 672/33/611 671/33/611
f 674/33/731 673/33/611 672/33/611
f 676/33/611 674/33/731 672/33/611
f 671/33/611 670/33/611 677/33/634
f 593/33/635 669/33/635 668/33/635
f 651/33/636 676/33/636 677/33/636
f 603/33/637 601/33/637 672/33/637
f 595/33/638 668/33/638 670/33/638
f 650/33/639 677/33/639 669/33/639
f 605/33/640 603/33/640 673/33/640
f 597/33/641 670/33/641 671/33/641
f 651/33/642 607/33/642 675/33/642
f 607/33/643 605/33/643 674/33/643
f 658/33/644 591/33/645 620/33/645
f 664/33/646 646/33/647 615/33/647
f 552/31/649 566/31/649 568/31/515
f 533/30/650 532/30/650 524/30/651
f 680/30/653 681/30/653 679/30/653
f 683/30/654 685/30/654 684/30/654
f 686/30/655 688/30/655 689/30/655
f 693/30/656 692/30/656 690/30/656
f 679/30/657 686/30/657 687/30/657
f 690/30/658 692/30/658 685/30/658
f 685/30/659 692/30/659 693/30/659
f 681/30/660 688/30/660 686/30/660
f 689/30/661 688/30/661 681/30/661
f 684/30/9 693/30/9 691/30/9
f 691/30/662 690/30/662 683/30/662
f 687/30/2 689/30/2 680/30/2
f 695/34/657 702/34/657 703/34/657
f 706/34/658 708/34/658 701/34/658
f 701/34/659 708/34/659 709/34/659
f 697/34/660 704/34/660 702/34/660
f 705/34/661 704/34/661 697/34/661
f 700/34/9 709/34/9 707/34/9
f 707/34/662 706/34/662 699/34/662
f 703/34/2 705/34/2 696/34/2
