# Blender 5.1.0
# www.blender.org
mtllib Cofre.mtl
o car_body.001
v 0.474824 0.872599 1.562767
v 0.845589 0.872102 1.562767
v 0.799824 1.069462 0.715752
v 0.420423 1.070546 0.715752
v -0.474824 0.872599 1.562767
v -0.845589 0.872102 1.562767
v -0.799824 1.069462 0.715752
v -0.420423 1.070546 0.715752
vn 0.0009 0.9738 0.2273
vn -0.0013 0.9738 0.2275
vn -0.0009 0.9738 0.2273
vn 0.0021 0.9739 0.2271
vn 0.0022 0.9739 0.2272
vn -0.0021 0.9739 0.2271
vn -0.0021 0.9739 0.2272
vn 0.0013 0.9738 0.2275
vt 0.134639 0.947207
s 1
usemtl MAIN
f 1/1/1 8/1/2 5/1/3
f 3/1/4 1/1/1 2/1/5
f 5/1/3 7/1/6 6/1/7
f 1/1/1 4/1/8 8/1/2
f 3/1/4 4/1/8 1/1/1
f 5/1/3 8/1/2 7/1/6
