# Blender 5.1.0
# www.blender.org
mtllib Llanta4.mtl
o wheel_br
v -0.905102 0.002179 -1.206607
v -0.905102 0.016359 -1.140185
v -0.905102 0.002118 -1.274525
v -0.652940 0.002179 -1.206607
v -0.905102 0.122143 -1.219323
v -0.905102 0.131058 -1.177566
v -0.905102 0.122105 -1.262022
v -0.910478 0.122143 -1.219323
v -0.910478 0.131058 -1.177566
v -0.910478 0.122105 -1.262022
v -0.910478 0.145312 -1.221779
v -0.910478 0.153209 -1.184786
v -0.910478 0.145278 -1.259607
v -0.892558 0.145706 -1.221821
v -0.892558 0.152019 -1.192253
v -0.892558 0.145679 -1.252057
v -0.898086 0.201028 -1.283075
v -0.905773 0.269458 -1.250064
v -0.898086 0.210638 -1.304710
v -0.898086 0.212641 -1.173528
v -0.814789 0.189337 -1.288596
v -0.851647 0.158108 -1.260983
v -0.814789 0.198703 -1.309682
v -0.851647 0.163972 -1.296151
v -0.892558 0.153110 -1.296615
v -0.851647 0.176091 -1.323437
v -0.892558 0.168465 -1.331186
v -0.851647 0.198253 -1.351367
v -0.892558 0.196543 -1.366573
v -0.892558 0.218994 -1.386824
v -0.910478 0.190672 -1.361808
v -0.910478 0.218760 -1.387145
v -0.910478 0.168465 -1.331186
v -0.910478 0.173344 -1.377382
v -0.910478 0.205049 -1.405981
v -0.910478 0.148278 -1.342817
v -0.905102 0.173344 -1.377382
v -0.905102 0.205049 -1.405981
v -0.905102 0.148278 -1.342817
v -0.905102 0.083622 -1.458024
v -0.905102 0.134054 -1.503515
v -0.905102 0.043749 -1.403042
v -0.652940 0.083622 -1.458024
v -0.652940 0.134054 -1.503515
v -0.652940 0.043749 -1.403042
v -0.652940 0.325246 -1.240854
v -0.652940 0.016180 -1.340971
v -0.652940 0.002118 -1.274525
v -0.905102 0.016180 -1.340971
v -0.905102 0.130946 -1.303794
v -0.910478 0.130946 -1.303794
v -0.910478 0.153110 -1.296615
v -0.652940 0.016359 -1.140185
v -0.652940 0.044039 -1.078164
v -0.652940 0.084009 -1.023253
v -0.905102 0.044039 -1.078164
v -0.905102 0.084009 -1.023253
v -0.905102 0.148460 -1.138576
v -0.905102 0.173588 -1.104054
v -0.910478 0.148460 -1.138576
v -0.910478 0.173588 -1.104054
v -0.910478 0.168626 -1.150242
v -0.910478 0.190888 -1.119659
v -0.892558 0.168626 -1.150242
v -0.892558 0.190888 -1.119659
v -0.851647 0.179150 -1.152973
v -0.851647 0.166043 -1.186130
v -0.851647 0.196720 -1.128835
v -0.814789 0.202368 -1.165678
v -0.814789 0.215946 -1.147024
v -0.898086 0.226573 -1.154388
v -0.851647 0.224245 -1.106172
v -0.892558 0.225761 -1.090945
v -0.892558 0.251959 -1.075851
v -0.910478 0.219021 -1.094373
v -0.910478 0.251798 -1.075488
v -0.910478 0.205344 -1.075512
v -0.910478 0.242341 -1.054196
v -0.905102 0.205344 -1.075512
v -0.905102 0.242341 -1.054196
v -0.905102 0.134523 -0.977852
v -0.905102 0.193371 -0.943946
v -0.652940 0.134523 -0.977852
v -0.652940 0.193371 -0.943946
v -0.652940 0.257984 -0.923015
v -0.652940 0.325536 -0.915976
v -0.905102 0.257984 -0.923015
v -0.905102 0.325536 -0.915976
v -0.905102 0.282961 -1.041038
v -0.905102 0.325429 -1.036613
v -0.910478 0.282961 -1.041038
v -0.910478 0.325429 -1.036613
v -0.910478 0.287784 -1.063831
v -0.910478 0.325408 -1.059911
v -0.892558 0.280723 -1.066534
v -0.892558 0.325408 -1.059911
v -0.898086 0.327250 -1.109671
v -0.851647 0.293037 -1.075617
v -0.851647 0.328305 -1.070390
v -0.814789 0.328911 -1.096850
v -0.814789 0.351855 -1.099282
v -0.851647 0.391383 -1.086043
v -0.851647 0.357995 -1.073537
v -0.898086 0.350791 -1.112167
v -0.892558 0.431499 -1.094883
v -0.898086 0.439856 -1.176997
v -0.892558 0.405328 -1.079742
v -0.905774 0.345164 -1.187935
v -0.905774 0.369483 -1.205637
v -0.905774 0.316866 -1.184935
v -0.905774 0.289376 -1.197145
v -0.905773 0.272629 -1.220152
v -0.905773 0.381034 -1.231644
v -0.905773 0.377863 -1.261556
v -0.898086 0.449465 -1.198633
v -0.814789 0.461156 -1.193112
v -0.892558 0.504787 -1.259886
v -0.898086 0.437852 -1.308179
v -0.892558 0.504814 -1.229651
v -0.892558 0.497383 -1.185093
v -0.910478 0.505215 -1.222101
v -0.851647 0.492385 -1.220724
v -0.851647 0.486521 -1.185556
v -0.851647 0.474402 -1.158271
v -0.851647 0.452240 -1.130341
v -0.814789 0.451790 -1.172025
v -0.892558 0.482028 -1.150522
v -0.892558 0.453950 -1.115135
v -0.910478 0.482028 -1.150522
v -0.910478 0.459821 -1.119899
v -0.910478 0.497383 -1.185093
v -0.910478 0.502215 -1.138891
v -0.910478 0.477149 -1.104325
v -0.910478 0.519547 -1.177913
v -0.905102 0.502215 -1.138891
v -0.905102 0.477149 -1.104325
v -0.905102 0.519547 -1.177913
v -0.905102 0.606744 -1.078666
v -0.905102 0.566872 -1.023683
v -0.905102 0.634313 -1.140737
v -0.652940 0.606744 -1.078666
v -0.652940 0.566872 -1.023684
v -0.652940 0.634313 -1.140737
v -0.652940 0.648375 -1.207183
v -0.652940 0.648314 -1.275101
v -0.905102 0.648375 -1.207183
v -0.905102 0.648314 -1.275101
v -0.905102 0.528388 -1.219686
v -0.905102 0.528350 -1.262384
v -0.910478 0.528388 -1.219686
v -0.910478 0.528350 -1.262384
v -0.910478 0.519435 -1.304141
v -0.910478 0.505181 -1.259928
v -0.910478 0.497284 -1.296922
v -0.910478 0.481867 -1.331465
v -0.892558 0.498474 -1.289455
v -0.892558 0.481867 -1.331465
v -0.851647 0.484450 -1.295577
v -0.851647 0.471343 -1.328734
v -0.814789 0.448125 -1.316029
v -0.814789 0.434547 -1.334683
v -0.851647 0.426248 -1.375535
v -0.851647 0.453773 -1.352872
v -0.898086 0.423921 -1.327320
v -0.892558 0.398534 -1.405856
v -0.898086 0.323243 -1.372036
v -0.892558 0.424732 -1.390762
v -0.905773 0.361116 -1.284562
v -0.905773 0.333627 -1.296772
v -0.905773 0.281010 -1.276071
v -0.905773 0.305329 -1.293772
v -0.898086 0.299702 -1.369540
v -0.892558 0.245165 -1.401965
v -0.814789 0.298638 -1.382425
v -0.814789 0.321582 -1.384858
v -0.851647 0.292498 -1.408170
v -0.851647 0.259110 -1.395665
v -0.851647 0.322188 -1.411317
v -0.892558 0.287469 -1.417809
v -0.892558 0.325085 -1.421797
v -0.910478 0.287469 -1.417809
v -0.910478 0.325085 -1.421797
v -0.910478 0.251503 -1.406088
v -0.910478 0.282604 -1.440594
v -0.910478 0.325064 -1.445095
v -0.910478 0.242008 -1.427363
v -0.905102 0.282604 -1.440594
v -0.905102 0.325064 -1.445095
v -0.905102 0.242008 -1.427363
v -0.905102 0.257417 -1.558571
v -0.905102 0.324957 -1.565731
v -0.905102 0.192842 -1.537526
v -0.652940 0.257417 -1.558572
v -0.652940 0.324957 -1.565731
v -0.652940 0.192842 -1.537526
v -0.652940 0.392509 -1.558692
v -0.652940 0.457121 -1.537762
v -0.905102 0.392509 -1.558692
v -0.905102 0.457121 -1.537762
v -0.905102 0.367532 -1.440669
v -0.905102 0.408152 -1.427511
v -0.910478 0.367532 -1.440669
v -0.910478 0.408152 -1.427511
v -0.910478 0.362709 -1.417876
v -0.910478 0.398695 -1.406219
v -0.892558 0.369770 -1.415174
v -0.851647 0.357456 -1.406090
v -0.910478 0.431471 -1.387334
v -0.910478 0.459605 -1.362048
v -0.910478 0.445149 -1.406195
v -0.910478 0.476905 -1.377653
v -0.905102 0.445149 -1.406195
v -0.905102 0.476905 -1.377653
v -0.905102 0.515970 -1.503856
v -0.905102 0.566484 -1.458454
v -0.652940 0.515970 -1.503856
v -0.652940 0.566484 -1.458454
v -0.652940 0.606454 -1.403543
v -0.652940 0.634134 -1.341522
v -0.905102 0.606454 -1.403543
v -0.905102 0.634134 -1.341522
v -0.905102 0.502033 -1.343132
v -0.905102 0.519435 -1.304141
v -0.910478 0.502033 -1.343132
v -0.892558 0.459605 -1.362048
v -0.652940 0.516439 -0.978192
v -0.652940 0.457651 -0.944181
v -0.905102 0.516439 -0.978192
v -0.905102 0.457651 -0.944181
v -0.905102 0.445444 -1.075727
v -0.905102 0.408485 -1.054344
v -0.910478 0.445444 -1.075727
v -0.910478 0.408485 -1.054344
v -0.910478 0.431733 -1.094563
v -0.910478 0.398990 -1.075619
v -0.910478 0.363025 -1.063898
v -0.910478 0.367889 -1.041113
v -0.892558 0.363025 -1.063898
v -0.905102 0.367889 -1.041113
v -0.905102 0.393076 -0.923136
v -0.652940 0.393076 -0.923136
vn -1.0000 -0.0000 -0.0000
vn -0.0000 -0.9944 0.1054
vn -0.0000 -0.9508 0.3099
vn -0.0000 -0.9946 -0.1036
vn -0.0990 0.9483 -0.3015
vn -0.0221 0.9942 -0.1054
vn -0.0395 0.9464 -0.3205
vn -0.0990 0.9904 0.0960
vn -0.0395 0.9926 0.1150
vn -0.9950 -0.0942 0.0323
vn -0.9956 -0.0929 0.0088
vn -0.9958 -0.0907 0.0117
vn -0.9950 -0.0991 -0.0116
vn -0.9951 -0.0993 0.0001
vn -0.9980 -0.0624 -0.0058
vn -0.9950 -0.0751 -0.0655
vn -0.0945 -0.5346 -0.8398
vn -0.0945 -0.5345 -0.8399
vn -0.0945 -0.5345 -0.8398
vn -0.1533 -0.9031 -0.4011
vn -0.3720 0.9156 0.1527
vn -0.5827 0.7653 0.2735
vn -0.4179 0.8694 0.2637
vn -0.5827 0.7160 0.3844
vn -0.4179 0.7785 0.4682
vn -0.1371 0.9480 0.2874
vn -0.1371 0.8488 0.5107
vn -0.3720 0.7272 0.5770
vn -0.0990 0.7352 0.6705
vn -0.0945 -0.9815 0.1665
vn -0.9956 -0.0540 -0.0760
vn -0.9958 -0.0554 -0.0727
vn -0.0221 0.5884 0.8083
vn -0.0395 0.7508 0.6593
vn -0.0250 0.8603 0.5092
vn -0.0000 -0.7437 -0.6685
vn -0.0000 -0.5885 -0.8085
vn -0.0000 -0.8665 -0.4992
vn 1.0000 -0.0000 -0.0000
vn -0.0000 -0.9513 -0.3082
vn -0.0250 0.9546 0.2969
vn -0.0000 -0.8656 0.5008
vn -0.0000 -0.7425 0.6698
vn -0.1371 0.8667 -0.4797
vn -0.0250 0.8711 -0.4904
vn -0.0250 0.7344 -0.6782
vn -0.3720 0.8632 -0.3413
vn -0.4179 0.6631 -0.6211
vn -0.1371 0.7228 -0.6773
vn -0.4179 0.7948 -0.4401
vn -0.5827 0.6909 -0.4279
vn -0.0945 -0.3466 0.9332
vn -0.0945 -0.3466 0.9333
vn -0.1533 -0.7989 0.5815
vn -0.0945 -0.9946 0.0430
vn -0.3720 0.5900 -0.7166
vn -0.5827 0.6195 -0.5260
vn -0.0990 0.5783 -0.8098
vn -0.0395 0.5959 -0.8021
vn -0.9956 -0.0388 0.0848
vn -0.9950 -0.0595 0.0803
vn -0.9951 -0.0496 0.0861
vn -0.0221 0.4058 -0.9137
vn -0.0000 -0.5871 0.8095
vn -0.0000 -0.4059 0.9139
vn -0.0000 -0.2070 0.9783
vn -0.0000 0.0009 1.0000
vn -0.0990 0.2131 -0.9720
vn -0.0395 0.1956 -0.9799
vn -0.1371 0.0179 -0.9904
vn -0.0250 0.0108 -0.9996
vn -0.9950 -0.0191 0.0978
vn -0.9958 -0.0352 0.0844
vn -0.3720 0.1361 -0.9182
vn -0.0945 0.6349 0.7668
vn -0.4179 0.0162 -0.9084
vn -0.5827 -0.0251 -0.8123
vn -0.4179 -0.2063 -0.8848
vn -0.1533 0.1042 0.9827
vn -0.0945 -0.4601 0.8828
vn -0.3720 -0.3256 -0.8693
vn -0.5827 -0.1457 -0.7995
vn -0.9950 0.0751 0.0655
vn -0.9956 0.0540 0.0760
vn -0.9958 0.0555 0.0727
vn -0.9950 0.0397 0.0916
vn -0.9951 0.0497 0.0860
vn -0.9980 0.0462 0.0424
vn -0.9980 -0.0136 0.0612
vn -0.9980 -0.0362 0.0511
vn -0.9980 0.0262 0.0570
vn -0.9980 -0.0598 0.0188
vn -0.9980 0.0624 0.0058
vn -0.9950 0.0992 0.0114
vn -0.9980 0.0598 -0.0188
vn -0.9950 0.0942 -0.0323
vn -0.0945 0.5346 0.8398
vn -0.0945 0.5345 0.8398
vn -0.1533 0.9031 0.4011
vn -0.9956 0.0929 -0.0088
vn -0.9951 0.0993 -0.0001
vn -0.9958 0.0907 -0.0117
vn -0.3720 -0.9156 -0.1527
vn -0.1371 -0.9480 -0.2874
vn -0.0991 -0.9904 -0.0960
vn -0.0395 -0.9926 -0.1150
vn -0.0250 -0.9546 -0.2969
vn -0.0221 -0.9942 0.1054
vn -0.5827 -0.7653 -0.2735
vn -0.4179 -0.8694 -0.2637
vn -0.4179 -0.7785 -0.4682
vn -0.1371 -0.8488 -0.5107
vn -0.5827 -0.7160 -0.3844
vn -0.3720 -0.7272 -0.5770
vn -0.0990 -0.7353 -0.6705
vn -0.0395 -0.7508 -0.6593
vn -0.0250 -0.8603 -0.5092
vn -0.0000 0.8665 0.4992
vn -0.0000 0.7437 0.6685
vn -0.0000 0.9513 0.3082
vn -0.0000 0.9946 0.1036
vn -0.0000 0.9944 -0.1054
vn -0.0000 0.9508 -0.3099
vn -0.0991 -0.9483 0.3015
vn -0.0395 -0.9464 0.3205
vn -0.1371 -0.8666 0.4797
vn -0.0250 -0.8711 0.4905
vn -0.3720 -0.8632 0.3413
vn -0.0945 0.3466 -0.9333
vn -0.4179 -0.7948 0.4401
vn -0.5827 -0.6909 0.4279
vn -0.5827 -0.6195 0.5260
vn -0.4179 -0.6631 0.6211
vn -0.1533 0.7989 -0.5815
vn -0.3719 -0.5900 0.7166
vn -0.0945 0.9946 -0.0430
vn -0.9956 0.0388 -0.0849
vn -0.9950 0.0595 -0.0802
vn -0.9951 0.0496 -0.0861
vn -0.9950 0.0191 -0.0978
vn -0.9958 0.0352 -0.0844
vn -0.9980 0.0362 -0.0511
vn -0.9980 -0.0262 -0.0570
vn -0.9980 0.0136 -0.0612
vn -0.9980 -0.0462 -0.0424
vn -0.9950 -0.0399 -0.0916
vn -0.9951 -0.0497 -0.0860
vn -0.1533 -0.1042 -0.9827
vn -0.0945 0.4601 -0.8828
vn -0.4179 0.2063 0.8848
vn -0.5827 0.0251 0.8123
vn -0.4179 -0.0162 0.9084
vn -0.3720 0.3256 0.8693
vn -0.5827 0.1457 0.7995
vn -0.1371 0.2251 0.9646
vn -0.0991 0.4121 0.9057
vn -0.1371 -0.0179 0.9904
vn -0.0250 -0.0108 0.9996
vn -0.0250 0.2202 0.9751
vn -0.0395 0.3967 0.9171
vn -0.0000 -0.2088 -0.9780
vn -0.0000 -0.0009 -1.0000
vn -0.0000 -0.4076 -0.9132
vn -0.0000 0.4059 -0.9139
vn -0.0000 0.2070 -0.9783
vn -0.0990 -0.2130 0.9720
vn -0.0221 -0.4058 0.9137
vn -0.0395 -0.1956 0.9799
vn -0.3720 -0.1361 0.9182
vn -0.0945 -0.6349 -0.7668
vn -0.0990 -0.5783 0.8098
vn -0.0395 -0.5959 0.8021
vn -0.1371 -0.7228 0.6773
vn -0.0250 -0.7344 0.6782
vn -0.0000 0.5871 -0.8095
vn -0.0000 0.7425 -0.6698
vn -0.0000 0.8656 -0.5008
vn -0.0000 -0.4075 -0.9132
vn -0.0000 0.4075 0.9132
vn -0.0000 0.5885 0.8085
vn -0.0000 0.4076 0.9132
vn -0.0221 -0.5884 -0.8083
vn -0.0990 -0.4121 -0.9057
vn -0.0395 -0.3967 -0.9171
vn -0.1371 -0.2251 -0.9646
vn -0.0250 -0.2202 -0.9751
vn -0.0000 0.2088 0.9780
vn -0.0945 0.9815 -0.1665
vn -0.0945 -0.4600 0.8829
vn -0.0945 0.3466 -0.9332
vn -0.0945 0.4600 -0.8829
vt 0.028850 0.974432
vt 0.120582 0.957246
vt 0.119189 0.959573
s 1
usemtl MAIN
f 6/1/1 1/1/1 2/1/1
f 4/1/2 2/1/3 1/1/2
f 5/1/1 3/1/1 1/1/1
f 3/1/4 4/1/2 1/1/2
f 6/2/3 8/2/2 5/2/2
f 8/2/2 7/2/4 5/2/2
f 12/3/1 8/3/1 9/3/1
f 8/3/1 13/3/1 10/3/1
f 15/3/5 11/3/6 12/3/7
f 11/3/6 16/3/8 13/3/9
f 20/3/10 14/3/11 15/3/12
f 14/3/11 17/3/13 16/3/14
f 18/3/15 19/3/16 17/3/13
f 20/3/10 18/3/15 17/3/13
f 17/3/17 22/3/18 16/3/19
f 23/3/20 17/3/20 19/3/20
f 22/3/21 21/3/22 24/3/23
f 24/3/23 23/3/24 26/3/25
f 25/3/26 26/3/25 27/3/27
f 22/3/21 25/3/26 16/3/8
f 27/3/27 28/3/28 29/3/29
f 26/3/25 23/3/24 28/3/28
f 28/3/30 19/3/30 29/3/30
f 19/3/16 30/3/31 29/3/32
f 29/3/29 32/3/33 31/3/34
f 27/3/27 31/3/34 33/3/35
f 31/3/1 35/3/1 34/3/1
f 33/3/1 34/3/1 36/3/1
f 34/2/36 38/2/37 37/2/36
f 36/2/38 37/2/36 39/2/38
f 37/1/1 41/1/1 40/1/1
f 39/1/1 40/1/1 42/1/1
f 44/1/37 40/1/36 41/1/37
f 43/1/36 42/1/38 40/1/36
f 44/1/39 46/1/39 43/1/39
f 43/1/39 46/1/39 45/1/39
f 45/1/39 46/1/39 47/1/39
f 47/1/39 46/1/39 48/1/39
f 45/1/38 49/1/40 42/1/38
f 47/1/40 3/1/4 49/1/40
f 49/1/1 39/1/1 42/1/1
f 3/1/1 50/1/1 49/1/1
f 51/2/40 39/2/38 50/2/40
f 10/2/4 50/2/40 7/2/4
f 52/3/1 36/3/1 51/3/1
f 10/3/1 52/3/1 51/3/1
f 25/3/26 33/3/35 52/3/41
f 13/3/9 25/3/26 52/3/41
f 48/1/39 46/1/39 4/1/39
f 4/1/39 46/1/39 53/1/39
f 53/1/39 46/1/39 54/1/39
f 53/1/3 56/1/42 2/1/3
f 54/1/39 46/1/39 55/1/39
f 54/1/42 57/1/43 56/1/42
f 56/1/1 6/1/1 2/1/1
f 59/1/1 56/1/1 57/1/1
f 60/2/42 6/2/3 58/2/42
f 61/2/43 58/2/42 59/2/43
f 60/3/1 12/3/1 9/3/1
f 63/3/1 60/3/1 61/3/1
f 64/3/44 12/3/7 62/3/45
f 63/3/46 64/3/44 62/3/45
f 64/3/44 67/3/47 15/3/5
f 68/3/48 64/3/44 65/3/49
f 66/3/50 69/3/51 67/3/47
f 68/3/48 69/3/51 66/3/50
f 67/3/52 20/3/52 15/3/53
f 69/3/54 71/3/54 20/3/54
f 71/3/55 72/3/55 73/3/55
f 72/3/56 70/3/57 68/3/48
f 72/3/56 65/3/49 73/3/58
f 75/3/59 65/3/49 63/3/46
f 74/3/60 71/3/61 73/3/62
f 76/3/63 73/3/58 75/3/59
f 75/3/1 61/3/1 77/3/1
f 78/3/1 75/3/1 77/3/1
f 77/2/64 59/2/43 79/2/64
f 78/2/65 79/2/64 80/2/65
f 79/1/1 57/1/1 81/1/1
f 82/1/1 79/1/1 81/1/1
f 55/1/43 81/1/64 57/1/43
f 83/1/64 82/1/65 81/1/64
f 55/1/39 46/1/39 83/1/39
f 83/1/39 46/1/39 84/1/39
f 84/1/39 46/1/39 85/1/39
f 85/1/39 46/1/39 86/1/39
f 84/1/65 87/1/66 82/1/65
f 85/1/66 88/1/67 87/1/66
f 87/1/1 80/1/1 82/1/1
f 90/1/1 87/1/1 88/1/1
f 91/2/66 80/2/65 89/2/66
f 92/2/67 89/2/66 90/2/67
f 91/3/1 76/3/1 78/3/1
f 94/3/1 91/3/1 92/3/1
f 95/3/68 76/3/63 93/3/69
f 96/3/70 93/3/69 94/3/71
f 97/3/72 74/3/60 95/3/73
f 96/3/70 98/3/74 95/3/68
f 98/3/75 97/3/75 95/3/75
f 99/3/76 100/3/77 98/3/74
f 103/3/78 100/3/77 99/3/76
f 97/3/79 101/3/79 104/3/79
f 104/3/80 102/3/80 107/3/80
f 102/3/81 101/3/82 103/3/78
f 106/3/83 105/3/84 128/3/85
f 105/3/84 104/3/86 107/3/87
f 109/3/88 104/3/86 106/3/83
f 104/3/86 110/3/89 97/3/72
f 111/3/90 108/3/91 109/3/88
f 110/3/89 71/3/61 97/3/72
f 111/3/90 20/3/10 71/3/61
f 112/3/92 109/3/88 113/3/93
f 113/3/93 18/3/15 112/3/92
f 115/3/94 109/3/88 106/3/83
f 114/3/95 115/3/94 118/3/96
f 115/3/97 122/3/98 119/3/98
f 106/3/99 116/3/99 115/3/99
f 117/3/100 115/3/94 119/3/101
f 118/3/96 117/3/100 156/3/102
f 122/3/103 120/3/104 119/3/105
f 121/3/106 120/3/104 131/3/107
f 153/3/108 119/3/105 121/3/106
f 122/3/103 116/3/109 123/3/110
f 120/3/104 124/3/111 127/3/112
f 123/3/110 126/3/113 124/3/111
f 127/3/112 125/3/114 128/3/115
f 124/3/111 126/3/113 125/3/114
f 127/3/112 130/3/116 129/3/117
f 120/3/104 129/3/117 131/3/107
f 132/3/1 130/3/1 133/3/1
f 131/3/1 132/3/1 134/3/1
f 132/2/118 136/2/119 135/2/118
f 134/2/120 135/2/118 137/2/120
f 138/1/1 136/1/1 139/1/1
f 140/1/1 135/1/1 138/1/1
f 142/1/119 138/1/118 139/1/119
f 141/1/118 140/1/120 138/1/118
f 142/1/39 46/1/39 141/1/39
f 141/1/39 46/1/39 143/1/39
f 143/1/39 46/1/39 144/1/39
f 144/1/39 46/1/39 145/1/39
f 140/1/120 144/1/121 146/1/121
f 144/1/121 147/1/122 146/1/121
f 148/1/1 140/1/1 146/1/1
f 149/1/1 146/1/1 147/1/1
f 150/2/121 137/2/120 148/2/121
f 151/2/122 148/2/121 149/2/122
f 150/3/1 131/3/1 134/3/1
f 151/3/1 121/3/1 150/3/1
f 154/3/1 151/3/1 152/3/1
f 152/2/123 149/2/122 223/2/123
f 156/3/124 153/3/108 154/3/125
f 157/3/126 154/3/125 155/3/127
f 224/3/1 154/3/1 152/3/1
f 157/3/126 158/3/128 156/3/124
f 158/3/129 118/3/129 156/3/129
f 159/3/130 160/3/131 158/3/128
f 161/3/132 159/3/130 163/3/133
f 160/3/134 164/3/134 118/3/134
f 162/3/135 161/3/132 163/3/133
f 164/3/136 162/3/136 167/3/136
f 165/3/137 164/3/138 167/3/139
f 166/3/140 165/3/137 206/3/141
f 168/3/142 118/3/96 164/3/138
f 166/3/140 168/3/142 164/3/138
f 171/3/143 168/3/142 169/3/144
f 114/3/95 170/3/145 18/3/15
f 170/3/145 172/3/146 19/3/16
f 172/3/146 169/3/144 166/3/140
f 30/3/31 172/3/146 173/3/147
f 166/3/148 174/3/148 172/3/148
f 172/3/149 177/3/149 173/3/149
f 176/3/150 175/3/151 178/3/152
f 177/3/153 174/3/154 176/3/150
f 177/3/153 179/3/155 173/3/156
f 179/3/155 178/3/152 180/3/157
f 179/3/155 182/3/158 181/3/159
f 183/3/160 179/3/155 181/3/159
f 184/3/1 182/3/1 185/3/1
f 183/3/1 184/3/1 186/3/1
f 184/2/161 188/2/162 187/2/161
f 186/2/163 187/2/161 189/2/163
f 187/1/1 191/1/1 190/1/1
f 192/1/1 187/1/1 190/1/1
f 194/1/162 190/1/161 191/1/162
f 193/1/161 192/1/163 190/1/161
f 194/1/39 46/1/39 193/1/39
f 193/1/39 46/1/39 195/1/39
f 195/1/39 46/1/39 44/1/39
f 196/1/39 46/1/39 194/1/39
f 197/1/39 46/1/39 196/1/39
f 197/1/164 198/1/165 199/1/164
f 196/1/165 191/1/162 198/1/165
f 200/1/1 199/1/1 198/1/1
f 188/1/1 198/1/1 191/1/1
f 202/2/165 201/2/164 200/2/165
f 185/2/162 200/2/165 188/2/162
f 204/3/1 203/3/1 202/3/1
f 182/3/1 202/3/1 185/3/1
f 206/3/166 205/3/167 204/3/168
f 180/3/157 204/3/168 182/3/158
f 180/3/157 207/3/169 206/3/166
f 207/3/170 166/3/170 206/3/170
f 178/3/152 175/3/151 207/3/169
f 205/3/167 167/3/171 208/3/172
f 203/3/1 208/3/1 210/3/1
f 208/3/172 225/3/173 209/3/174
f 208/3/1 211/3/1 210/3/1
f 210/2/175 213/2/176 212/2/175
f 203/2/164 212/2/175 201/2/164
f 212/1/1 215/1/1 214/1/1
f 199/1/1 212/1/1 214/1/1
f 217/1/176 214/1/175 215/1/176
f 216/1/175 199/1/164 214/1/175
f 217/1/39 46/1/39 216/1/39
f 216/1/39 46/1/39 197/1/39
f 218/1/39 46/1/39 217/1/39
f 219/1/39 46/1/39 218/1/39
f 219/1/123 220/1/177 221/1/123
f 218/1/177 215/1/176 220/1/177
f 220/1/1 223/1/1 221/1/1
f 213/1/1 220/1/1 215/1/1
f 224/2/177 223/2/123 222/2/177
f 211/2/176 222/2/177 213/2/176
f 209/3/1 224/3/1 211/3/1
f 221/1/1 149/1/1 147/1/1
f 147/1/122 219/1/123 221/1/123
f 145/1/39 46/1/39 219/1/39
f 225/3/173 155/3/127 209/3/174
f 225/3/173 159/3/130 157/3/126
f 162/3/135 225/3/173 167/3/171
f 195/1/178 41/1/37 192/1/163
f 41/1/1 189/1/1 192/1/1
f 35/2/37 189/2/163 38/2/37
f 32/3/1 186/3/1 35/3/1
f 32/3/33 173/3/156 183/3/160
f 226/1/39 46/1/39 142/1/39
f 227/1/39 46/1/39 226/1/39
f 227/1/179 228/1/180 229/1/181
f 226/1/180 139/1/119 228/1/180
f 228/1/1 231/1/1 229/1/1
f 136/1/1 228/1/1 139/1/1
f 232/2/180 231/2/181 230/2/180
f 133/2/119 230/2/180 136/2/119
f 232/3/1 235/3/1 233/3/1
f 130/3/1 232/3/1 133/3/1
f 234/3/182 107/3/183 235/3/184
f 128/3/115 234/3/182 130/3/116
f 235/3/184 238/3/185 236/3/186
f 235/3/1 237/3/1 233/3/1
f 238/3/185 94/3/71 236/3/186
f 237/3/1 94/3/1 92/3/1
f 238/3/185 99/3/76 96/3/70
f 102/3/81 238/3/185 107/3/183
f 237/2/187 90/2/67 239/2/187
f 233/2/181 239/2/187 231/2/181
f 239/1/1 88/1/1 240/1/1
f 229/1/1 239/1/1 240/1/1
f 86/1/67 240/1/187 88/1/67
f 241/1/187 229/1/181 240/1/187
f 86/1/39 46/1/39 241/1/39
f 241/1/39 46/1/39 227/1/39
f 125/3/188 106/3/188 128/3/188
f 6/1/1 5/1/1 1/1/1
f 4/1/2 53/1/3 2/1/3
f 5/1/1 7/1/1 3/1/1
f 3/1/4 48/1/4 4/1/2
f 6/2/3 9/2/3 8/2/2
f 8/2/2 10/2/4 7/2/4
f 12/3/1 11/3/1 8/3/1
f 8/3/1 11/3/1 13/3/1
f 15/3/5 14/3/6 11/3/6
f 11/3/6 14/3/6 16/3/8
f 20/3/10 17/3/13 14/3/11
f 18/3/15 170/3/145 19/3/16
f 20/3/10 112/3/92 18/3/15
f 17/3/17 21/3/17 22/3/18
f 23/3/20 21/3/20 17/3/20
f 24/3/23 21/3/22 23/3/24
f 25/3/26 24/3/23 26/3/25
f 22/3/21 24/3/23 25/3/26
f 27/3/27 26/3/25 28/3/28
f 28/3/30 23/3/30 19/3/30
f 19/3/16 172/3/146 30/3/31
f 29/3/29 30/3/33 32/3/33
f 27/3/27 29/3/29 31/3/34
f 31/3/1 32/3/1 35/3/1
f 33/3/1 31/3/1 34/3/1
f 34/2/36 35/2/37 38/2/37
f 36/2/38 34/2/36 37/2/36
f 37/1/1 38/1/1 41/1/1
f 39/1/1 37/1/1 40/1/1
f 44/1/37 43/1/36 40/1/36
f 43/1/36 45/1/38 42/1/38
f 45/1/38 47/1/40 49/1/40
f 47/1/40 48/1/4 3/1/4
f 49/1/1 50/1/1 39/1/1
f 3/1/1 7/1/1 50/1/1
f 51/2/40 36/2/38 39/2/38
f 10/2/4 51/2/40 50/2/40
f 52/3/1 33/3/1 36/3/1
f 10/3/1 13/3/1 52/3/1
f 25/3/26 27/3/27 33/3/35
f 13/3/9 16/3/8 25/3/26
f 53/1/3 54/1/42 56/1/42
f 54/1/42 55/1/43 57/1/43
f 56/1/1 58/1/1 6/1/1
f 59/1/1 58/1/1 56/1/1
f 60/2/42 9/2/3 6/2/3
f 61/2/43 60/2/42 58/2/42
f 60/3/1 62/3/1 12/3/1
f 63/3/1 62/3/1 60/3/1
f 64/3/44 15/3/5 12/3/7
f 63/3/46 65/3/49 64/3/44
f 64/3/44 66/3/50 67/3/47
f 68/3/48 66/3/50 64/3/44
f 68/3/48 70/3/57 69/3/51
f 67/3/52 69/3/52 20/3/52
f 69/3/54 70/3/54 71/3/54
f 71/3/55 70/3/55 72/3/55
f 72/3/56 68/3/48 65/3/49
f 75/3/59 73/3/58 65/3/49
f 76/3/63 74/3/63 73/3/58
f 75/3/1 63/3/1 61/3/1
f 78/3/1 76/3/1 75/3/1
f 77/2/64 61/2/43 59/2/43
f 78/2/65 77/2/64 79/2/64
f 79/1/1 59/1/1 57/1/1
f 82/1/1 80/1/1 79/1/1
f 55/1/43 83/1/64 81/1/64
f 83/1/64 84/1/65 82/1/65
f 84/1/65 85/1/66 87/1/66
f 85/1/66 86/1/67 88/1/67
f 87/1/1 89/1/1 80/1/1
f 90/1/1 89/1/1 87/1/1
f 91/2/66 78/2/65 80/2/65
f 92/2/67 91/2/66 89/2/66
f 91/3/1 93/3/1 76/3/1
f 94/3/1 93/3/1 91/3/1
f 95/3/68 74/3/63 76/3/63
f 96/3/70 95/3/68 93/3/69
f 97/3/72 71/3/61 74/3/60
f 96/3/70 99/3/76 98/3/74
f 98/3/75 100/3/75 97/3/75
f 103/3/78 101/3/82 100/3/77
f 97/3/79 100/3/79 101/3/79
f 104/3/80 101/3/189 102/3/80
f 106/3/83 104/3/86 105/3/84
f 109/3/88 108/3/91 104/3/86
f 104/3/86 108/3/91 110/3/89
f 111/3/90 110/3/89 108/3/91
f 110/3/89 111/3/90 71/3/61
f 111/3/90 112/3/92 20/3/10
f 112/3/92 111/3/90 109/3/88
f 113/3/93 114/3/95 18/3/15
f 115/3/94 113/3/93 109/3/88
f 114/3/95 113/3/93 115/3/94
f 115/3/97 116/3/97 122/3/98
f 106/3/99 126/3/99 116/3/99
f 118/3/96 115/3/94 117/3/100
f 122/3/103 123/3/110 120/3/104
f 121/3/106 119/3/105 120/3/104
f 153/3/108 117/3/108 119/3/105
f 120/3/104 123/3/110 124/3/111
f 123/3/110 116/3/109 126/3/113
f 127/3/112 124/3/111 125/3/114
f 127/3/112 128/3/115 130/3/116
f 120/3/104 127/3/112 129/3/117
f 132/3/1 129/3/1 130/3/1
f 131/3/1 129/3/1 132/3/1
f 132/2/118 133/2/119 136/2/119
f 134/2/120 132/2/118 135/2/118
f 138/1/1 135/1/1 136/1/1
f 140/1/1 137/1/1 135/1/1
f 142/1/119 141/1/118 138/1/118
f 141/1/118 143/1/120 140/1/120
f 140/1/120 143/1/120 144/1/121
f 144/1/121 145/1/122 147/1/122
f 148/1/1 137/1/1 140/1/1
f 149/1/1 148/1/1 146/1/1
f 150/2/121 134/2/120 137/2/120
f 151/2/122 150/2/121 148/2/121
f 150/3/1 121/3/1 131/3/1
f 151/3/1 153/3/1 121/3/1
f 154/3/1 153/3/1 151/3/1
f 152/2/123 151/2/122 149/2/122
f 156/3/124 117/3/108 153/3/108
f 157/3/126 156/3/124 154/3/125
f 224/3/1 155/3/1 154/3/1
f 157/3/126 159/3/130 158/3/128
f 158/3/129 160/3/190 118/3/129
f 161/3/132 160/3/131 159/3/130
f 160/3/134 161/3/134 164/3/134
f 164/3/136 161/3/136 162/3/136
f 166/3/140 164/3/138 165/3/137
f 168/3/142 114/3/95 118/3/96
f 166/3/140 169/3/144 168/3/142
f 171/3/143 170/3/145 168/3/142
f 114/3/95 168/3/142 170/3/145
f 170/3/145 171/3/143 172/3/146
f 172/3/146 171/3/143 169/3/144
f 166/3/148 175/3/148 174/3/148
f 172/3/149 174/3/191 177/3/149
f 176/3/150 174/3/154 175/3/151
f 177/3/153 176/3/150 179/3/155
f 179/3/155 176/3/150 178/3/152
f 179/3/155 180/3/157 182/3/158
f 183/3/160 173/3/156 179/3/155
f 184/3/1 181/3/1 182/3/1
f 183/3/1 181/3/1 184/3/1
f 184/2/161 185/2/162 188/2/162
f 186/2/163 184/2/161 187/2/161
f 187/1/1 188/1/1 191/1/1
f 192/1/1 189/1/1 187/1/1
f 194/1/162 193/1/161 190/1/161
f 193/1/161 195/1/178 192/1/163
f 197/1/164 196/1/165 198/1/165
f 196/1/165 194/1/162 191/1/162
f 200/1/1 201/1/1 199/1/1
f 188/1/1 200/1/1 198/1/1
f 202/2/165 203/2/164 201/2/164
f 185/2/162 202/2/165 200/2/165
f 204/3/1 205/3/1 203/3/1
f 182/3/1 204/3/1 202/3/1
f 206/3/166 165/3/167 205/3/167
f 180/3/157 206/3/166 204/3/168
f 180/3/157 178/3/152 207/3/169
f 207/3/170 175/3/170 166/3/170
f 205/3/167 165/3/167 167/3/171
f 203/3/1 205/3/1 208/3/1
f 208/3/172 167/3/171 225/3/173
f 208/3/1 209/3/1 211/3/1
f 210/2/175 211/2/176 213/2/176
f 203/2/164 210/2/175 212/2/175
f 212/1/1 213/1/1 215/1/1
f 199/1/1 201/1/1 212/1/1
f 217/1/176 216/1/175 214/1/175
f 216/1/175 197/1/164 199/1/164
f 219/1/123 218/1/177 220/1/177
f 218/1/177 217/1/176 215/1/176
f 220/1/1 222/1/1 223/1/1
f 213/1/1 222/1/1 220/1/1
f 224/2/177 152/2/123 223/2/123
f 211/2/176 224/2/177 222/2/177
f 209/3/1 155/3/1 224/3/1
f 221/1/1 223/1/1 149/1/1
f 147/1/122 145/1/122 219/1/123
f 225/3/173 157/3/126 155/3/127
f 225/3/173 163/3/133 159/3/130
f 162/3/135 163/3/133 225/3/173
f 195/1/178 44/1/37 41/1/37
f 41/1/1 38/1/1 189/1/1
f 35/2/37 186/2/163 189/2/163
f 32/3/1 183/3/1 186/3/1
f 32/3/33 30/3/33 173/3/156
f 227/1/179 226/1/180 228/1/180
f 226/1/180 142/1/119 139/1/119
f 228/1/1 230/1/1 231/1/1
f 136/1/1 230/1/1 228/1/1
f 232/2/180 233/2/181 231/2/181
f 133/2/119 232/2/180 230/2/180
f 232/3/1 234/3/1 235/3/1
f 130/3/1 234/3/1 232/3/1
f 234/3/182 105/3/182 107/3/183
f 128/3/115 105/3/182 234/3/182
f 235/3/184 107/3/183 238/3/185
f 235/3/1 236/3/1 237/3/1
f 238/3/185 96/3/70 94/3/71
f 237/3/1 236/3/1 94/3/1
f 238/3/185 103/3/78 99/3/76
f 102/3/81 103/3/78 238/3/185
f 237/2/187 92/2/67 90/2/67
f 233/2/181 237/2/187 239/2/187
f 239/1/1 90/1/1 88/1/1
f 229/1/1 231/1/1 239/1/1
f 86/1/67 241/1/187 240/1/187
f 241/1/187 227/1/179 229/1/181
f 125/3/188 126/3/188 106/3/188
