# Blender 5.1.0
# www.blender.org
mtllib Llanta1.mtl
o wheel_fr
v -0.905102 0.002179 1.105718
v -0.905102 0.016359 1.172139
v -0.905102 0.002119 1.037800
v -0.652940 0.002179 1.105718
v -0.905102 0.122144 1.093001
v -0.905102 0.131058 1.134758
v -0.905102 0.122106 1.050303
v -0.910478 0.122144 1.093001
v -0.910478 0.131058 1.134758
v -0.910478 0.122106 1.050303
v -0.910478 0.145312 1.090545
v -0.910478 0.153210 1.127539
v -0.910478 0.145278 1.052718
v -0.892558 0.145707 1.090503
v -0.892558 0.152019 1.120072
v -0.892558 0.145680 1.060268
v -0.898086 0.201028 1.029249
v -0.905774 0.269459 1.062260
v -0.898086 0.210638 1.007614
v -0.898087 0.212641 1.138797
v -0.814789 0.189338 1.023728
v -0.851647 0.158108 1.051341
v -0.814789 0.198704 1.002642
v -0.851647 0.163973 1.016173
v -0.892558 0.153110 1.015710
v -0.851647 0.176092 0.988887
v -0.892558 0.168465 0.981138
v -0.851647 0.198253 0.960958
v -0.892558 0.196543 0.945752
v -0.892558 0.218994 0.925500
v -0.910478 0.190672 0.950516
v -0.910478 0.218761 0.925179
v -0.910478 0.168465 0.981138
v -0.910478 0.173344 0.934942
v -0.910478 0.205050 0.906343
v -0.910478 0.148278 0.969508
v -0.905102 0.173344 0.934942
v -0.905102 0.205050 0.906343
v -0.905102 0.148278 0.969508
v -0.905102 0.083622 0.854300
v -0.905102 0.134054 0.808809
v -0.905102 0.043750 0.909282
v -0.652940 0.083622 0.854300
v -0.652940 0.134054 0.808809
v -0.652940 0.043750 0.909282
v -0.652940 0.325247 1.071471
v -0.652940 0.016180 0.971353
v -0.652940 0.002119 1.037800
v -0.905102 0.016180 0.971353
v -0.905102 0.130946 1.008530
v -0.910478 0.130946 1.008530
v -0.910478 0.153110 1.015710
v -0.652940 0.016359 1.172139
v -0.652940 0.044039 1.234161
v -0.652940 0.084010 1.289072
v -0.905102 0.044039 1.234161
v -0.905102 0.084010 1.289072
v -0.905102 0.148460 1.173749
v -0.905102 0.173588 1.208270
v -0.910478 0.148460 1.173749
v -0.910478 0.173588 1.208270
v -0.910478 0.168626 1.162082
v -0.910478 0.190888 1.192665
v -0.892558 0.168626 1.162082
v -0.892558 0.190888 1.192665
v -0.851647 0.179150 1.159351
v -0.851647 0.166043 1.126194
v -0.851647 0.196721 1.183490
v -0.814789 0.202368 1.146646
v -0.814789 0.215946 1.165301
v -0.898087 0.226573 1.157937
v -0.851647 0.224245 1.206153
v -0.892558 0.225761 1.221379
v -0.892558 0.251959 1.236474
v -0.910478 0.219022 1.217952
v -0.910478 0.251798 1.236836
v -0.910478 0.205344 1.236813
v -0.910478 0.242341 1.258128
v -0.905102 0.205344 1.236813
v -0.905102 0.242341 1.258128
v -0.905102 0.134523 1.334473
v -0.905102 0.193372 1.368379
v -0.652940 0.134523 1.334473
v -0.652940 0.193372 1.368379
v -0.652940 0.257985 1.389309
v -0.652940 0.325537 1.396348
v -0.905102 0.257985 1.389309
v -0.905102 0.325537 1.396348
v -0.905102 0.282961 1.271286
v -0.905102 0.325429 1.275712
v -0.910478 0.282961 1.271286
v -0.910478 0.325429 1.275712
v -0.910478 0.287785 1.248493
v -0.910478 0.325408 1.252414
v -0.892558 0.280723 1.245791
v -0.892558 0.325408 1.252414
v -0.898087 0.327250 1.202653
v -0.851647 0.293037 1.236707
v -0.851647 0.328306 1.241934
v -0.814789 0.328911 1.215475
v -0.814789 0.351855 1.213043
v -0.851647 0.391384 1.226282
v -0.851647 0.357995 1.238787
v -0.898087 0.350791 1.200158
v -0.892558 0.431500 1.217441
v -0.898087 0.439856 1.135328
v -0.892558 0.405329 1.232582
v -0.905774 0.345165 1.124390
v -0.905774 0.369483 1.106688
v -0.905774 0.316866 1.127390
v -0.905774 0.289377 1.115180
v -0.905774 0.272630 1.092173
v -0.905774 0.381035 1.080681
v -0.905774 0.377864 1.050769
v -0.898087 0.449466 1.113692
v -0.814789 0.461156 1.119213
v -0.892558 0.504787 1.052438
v -0.898086 0.437853 1.004145
v -0.892558 0.504814 1.082674
v -0.892558 0.497384 1.127232
v -0.910478 0.505216 1.090224
v -0.851647 0.492386 1.091600
v -0.851647 0.486521 1.126768
v -0.851647 0.474402 1.154054
v -0.851647 0.452241 1.181984
v -0.814789 0.451791 1.140300
v -0.892558 0.482029 1.161803
v -0.892558 0.453951 1.197190
v -0.910478 0.482029 1.161803
v -0.910478 0.459822 1.192425
v -0.910478 0.497384 1.127232
v -0.910478 0.502216 1.173434
v -0.910478 0.477150 1.207999
v -0.910478 0.519548 1.134411
v -0.905102 0.502216 1.173434
v -0.905102 0.477150 1.207999
v -0.905102 0.519548 1.134411
v -0.905102 0.606744 1.233658
v -0.905102 0.566872 1.288641
v -0.905102 0.634314 1.171588
v -0.652940 0.606744 1.233658
v -0.652940 0.566872 1.288641
v -0.652940 0.634314 1.171588
v -0.652940 0.648375 1.105141
v -0.652940 0.648315 1.037224
v -0.905102 0.648375 1.105141
v -0.905102 0.648315 1.037224
v -0.905102 0.528388 1.092638
v -0.905102 0.528350 1.049941
v -0.910478 0.528388 1.092638
v -0.910478 0.528350 1.049941
v -0.910478 0.519436 1.008184
v -0.910478 0.505182 1.052397
v -0.910478 0.497284 1.015403
v -0.910478 0.481867 0.980860
v -0.892558 0.498475 1.022870
v -0.892558 0.481867 0.980860
v -0.851647 0.484451 1.016747
v -0.851647 0.471343 0.983590
v -0.814789 0.448126 0.996295
v -0.814789 0.434548 0.977641
v -0.851647 0.426249 0.936789
v -0.851647 0.453773 0.959452
v -0.898086 0.423921 0.985005
v -0.892558 0.398534 0.906468
v -0.898086 0.323244 0.940288
v -0.892558 0.424732 0.921562
v -0.905774 0.361117 1.027762
v -0.905774 0.333627 1.015552
v -0.905774 0.281010 1.036254
v -0.905774 0.305329 1.018552
v -0.898086 0.299702 0.942784
v -0.892558 0.245165 0.910359
v -0.814789 0.298639 0.929899
v -0.814789 0.321583 0.927466
v -0.851647 0.292499 0.904154
v -0.851647 0.259110 0.916659
v -0.851647 0.322188 0.901007
v -0.892558 0.287469 0.894515
v -0.892558 0.325085 0.890528
v -0.910478 0.287469 0.894515
v -0.910478 0.325085 0.890528
v -0.910478 0.251503 0.906237
v -0.910478 0.282605 0.871730
v -0.910478 0.325065 0.867230
v -0.910478 0.242008 0.884961
v -0.905102 0.282605 0.871730
v -0.905102 0.325065 0.867230
v -0.905102 0.242008 0.884961
v -0.905102 0.257418 0.753753
v -0.905102 0.324957 0.746593
v -0.905102 0.192843 0.774798
v -0.652940 0.257418 0.753753
v -0.652940 0.324957 0.746593
v -0.652940 0.192843 0.774798
v -0.652940 0.392509 0.753632
v -0.652940 0.457122 0.774562
v -0.905102 0.392509 0.753632
v -0.905102 0.457122 0.774563
v -0.905102 0.367533 0.871655
v -0.905102 0.408153 0.884813
v -0.910478 0.367533 0.871655
v -0.910478 0.408153 0.884813
v -0.910478 0.362709 0.894448
v -0.910478 0.398696 0.906105
v -0.892558 0.369771 0.897150
v -0.851647 0.357457 0.906234
v -0.910478 0.431472 0.924990
v -0.910478 0.459606 0.950276
v -0.910478 0.445149 0.906129
v -0.910478 0.476906 0.934671
v -0.905102 0.445149 0.906129
v -0.905102 0.476906 0.934671
v -0.905102 0.515971 0.808469
v -0.905102 0.566484 0.853870
v -0.652940 0.515971 0.808468
v -0.652940 0.566484 0.853870
v -0.652940 0.606454 0.908781
v -0.652940 0.634135 0.970802
v -0.905102 0.606454 0.908781
v -0.905102 0.634135 0.970802
v -0.905102 0.502034 0.969193
v -0.905102 0.519436 1.008184
v -0.910478 0.502034 0.969193
v -0.892558 0.459606 0.950276
v -0.652940 0.516440 1.334132
v -0.652940 0.457651 1.368143
v -0.905102 0.516440 1.334132
v -0.905102 0.457651 1.368143
v -0.905102 0.445444 1.236598
v -0.905102 0.408486 1.257980
v -0.910478 0.445444 1.236598
v -0.910478 0.408486 1.257980
v -0.910478 0.431733 1.217762
v -0.910478 0.398991 1.236705
v -0.910478 0.363025 1.248426
v -0.910478 0.367889 1.271211
v -0.892558 0.363025 1.248426
v -0.905102 0.367889 1.271211
v -0.905102 0.393076 1.389189
v -0.652940 0.393076 1.389189
vn -1.0000 -0.0000 -0.0000
vn -0.0000 -0.9944 0.1054
vn -0.0000 -0.9508 0.3099
vn -0.0000 -0.9946 -0.1036
vn -0.0990 0.9483 -0.3015
vn -0.0221 0.9942 -0.1054
vn -0.0395 0.9464 -0.3205
vn -0.0990 0.9904 0.0960
vn -0.0395 0.9926 0.1150
vn -0.9950 -0.0942 0.0323
vn -0.9956 -0.0929 0.0088
vn -0.9958 -0.0907 0.0117
vn -0.9950 -0.0991 -0.0116
vn -0.9951 -0.0993 0.0001
vn -0.9980 -0.0624 -0.0058
vn -0.9950 -0.0751 -0.0655
vn -0.0945 -0.5346 -0.8398
vn -0.0945 -0.5345 -0.8399
vn -0.0945 -0.5345 -0.8398
vn -0.1533 -0.9031 -0.4011
vn -0.3720 0.9156 0.1527
vn -0.5827 0.7653 0.2735
vn -0.4179 0.8694 0.2637
vn -0.5827 0.7160 0.3844
vn -0.4179 0.7785 0.4682
vn -0.1371 0.9480 0.2874
vn -0.1371 0.8488 0.5107
vn -0.3720 0.7272 0.5770
vn -0.0990 0.7352 0.6705
vn -0.0945 -0.9815 0.1665
vn -0.9956 -0.0540 -0.0760
vn -0.9958 -0.0554 -0.0727
vn -0.0221 0.5884 0.8083
vn -0.0395 0.7508 0.6593
vn -0.0250 0.8603 0.5092
vn -0.0000 -0.7437 -0.6685
vn -0.0000 -0.5885 -0.8085
vn -0.0000 -0.8665 -0.4992
vn 1.0000 -0.0000 -0.0000
vn -0.0000 -0.9513 -0.3082
vn -0.0250 0.9546 0.2969
vn -0.0000 -0.8656 0.5008
vn -0.0000 -0.7425 0.6698
vn -0.1371 0.8667 -0.4797
vn -0.0250 0.8711 -0.4904
vn -0.0250 0.7344 -0.6782
vn -0.3720 0.8632 -0.3413
vn -0.4179 0.6631 -0.6211
vn -0.1371 0.7228 -0.6773
vn -0.4179 0.7948 -0.4401
vn -0.5827 0.6909 -0.4279
vn -0.0945 -0.3466 0.9332
vn -0.0945 -0.3466 0.9333
vn -0.1533 -0.7989 0.5815
vn -0.0945 -0.9946 0.0430
vn -0.3720 0.5900 -0.7166
vn -0.5827 0.6195 -0.5260
vn -0.0990 0.5783 -0.8098
vn -0.0395 0.5959 -0.8021
vn -0.9956 -0.0388 0.0848
vn -0.9950 -0.0595 0.0803
vn -0.9951 -0.0496 0.0861
vn -0.0221 0.4058 -0.9137
vn -0.0000 -0.5871 0.8095
vn -0.0000 -0.4059 0.9139
vn -0.0000 -0.2070 0.9783
vn -0.0000 0.0009 1.0000
vn -0.0990 0.2131 -0.9720
vn -0.0395 0.1956 -0.9799
vn -0.1371 0.0179 -0.9904
vn -0.0250 0.0108 -0.9996
vn -0.9950 -0.0191 0.0978
vn -0.9958 -0.0352 0.0844
vn -0.3720 0.1361 -0.9182
vn -0.0945 0.6349 0.7668
vn -0.4179 0.0162 -0.9084
vn -0.5827 -0.0251 -0.8123
vn -0.4179 -0.2063 -0.8848
vn -0.1533 0.1042 0.9827
vn -0.0945 -0.4601 0.8828
vn -0.3720 -0.3256 -0.8693
vn -0.5827 -0.1457 -0.7995
vn -0.9950 0.0751 0.0655
vn -0.9956 0.0540 0.0760
vn -0.9958 0.0555 0.0727
vn -0.9950 0.0397 0.0916
vn -0.9951 0.0497 0.0860
vn -0.9980 0.0462 0.0424
vn -0.9980 -0.0136 0.0612
vn -0.9980 -0.0362 0.0511
vn -0.9980 0.0262 0.0570
vn -0.9980 -0.0598 0.0188
vn -0.9980 0.0624 0.0058
vn -0.9950 0.0992 0.0114
vn -0.9980 0.0598 -0.0188
vn -0.9950 0.0942 -0.0323
vn -0.0945 0.5345 0.8398
vn -0.1533 0.9031 0.4011
vn -0.9956 0.0929 -0.0088
vn -0.9951 0.0993 -0.0001
vn -0.9958 0.0907 -0.0117
vn -0.3720 -0.9156 -0.1527
vn -0.1371 -0.9480 -0.2874
vn -0.0991 -0.9904 -0.0960
vn -0.0395 -0.9926 -0.1150
vn -0.0250 -0.9546 -0.2969
vn -0.0221 -0.9942 0.1054
vn -0.5827 -0.7653 -0.2735
vn -0.4179 -0.8694 -0.2637
vn -0.4179 -0.7785 -0.4682
vn -0.1371 -0.8488 -0.5107
vn -0.5827 -0.7160 -0.3844
vn -0.3720 -0.7272 -0.5770
vn -0.0990 -0.7353 -0.6705
vn -0.0395 -0.7508 -0.6593
vn -0.0250 -0.8603 -0.5092
vn -0.0000 0.8665 0.4992
vn -0.0000 0.7437 0.6685
vn -0.0000 0.9513 0.3082
vn -0.0000 0.9946 0.1036
vn -0.0000 0.9944 -0.1054
vn -0.0000 0.9508 -0.3099
vn -0.0991 -0.9483 0.3015
vn -0.0395 -0.9464 0.3206
vn -0.1371 -0.8666 0.4797
vn -0.0250 -0.8711 0.4905
vn -0.3720 -0.8632 0.3413
vn -0.0945 0.3466 -0.9333
vn -0.4179 -0.7948 0.4401
vn -0.5827 -0.6909 0.4279
vn -0.5827 -0.6195 0.5260
vn -0.4179 -0.6631 0.6211
vn -0.1533 0.7989 -0.5815
vn -0.3720 -0.5900 0.7166
vn -0.0945 0.9946 -0.0430
vn -0.9956 0.0388 -0.0849
vn -0.9950 0.0595 -0.0802
vn -0.9951 0.0496 -0.0861
vn -0.9950 0.0191 -0.0978
vn -0.9958 0.0352 -0.0844
vn -0.9980 0.0362 -0.0511
vn -0.9980 -0.0262 -0.0570
vn -0.9980 0.0136 -0.0612
vn -0.9980 -0.0462 -0.0424
vn -0.9950 -0.0399 -0.0916
vn -0.9951 -0.0497 -0.0860
vn -0.1533 -0.1042 -0.9827
vn -0.0945 0.4601 -0.8828
vn -0.4179 0.2063 0.8848
vn -0.5827 0.0251 0.8123
vn -0.4179 -0.0162 0.9084
vn -0.3720 0.3256 0.8693
vn -0.5827 0.1457 0.7995
vn -0.1371 0.2251 0.9646
vn -0.0990 0.4121 0.9057
vn -0.1371 -0.0179 0.9904
vn -0.0250 -0.0108 0.9996
vn -0.0250 0.2202 0.9751
vn -0.0395 0.3967 0.9171
vn -0.0000 -0.2088 -0.9780
vn -0.0000 -0.0009 -1.0000
vn -0.0000 -0.4076 -0.9132
vn -0.0000 0.4059 -0.9139
vn -0.0000 0.2070 -0.9783
vn -0.0990 -0.2130 0.9720
vn -0.0221 -0.4058 0.9137
vn -0.0395 -0.1956 0.9799
vn -0.3720 -0.1361 0.9182
vn -0.0945 -0.6349 -0.7668
vn -0.0990 -0.5783 0.8098
vn -0.0395 -0.5959 0.8021
vn -0.1371 -0.7228 0.6773
vn -0.0250 -0.7344 0.6782
vn -0.0000 0.5871 -0.8095
vn -0.0000 0.7425 -0.6698
vn -0.0000 0.8656 -0.5008
vn -0.0000 -0.4075 -0.9132
vn -0.0000 0.4075 0.9132
vn -0.0000 0.5885 0.8085
vn -0.0000 0.4076 0.9132
vn -0.0221 -0.5884 -0.8083
vn -0.0990 -0.4121 -0.9057
vn -0.0395 -0.3967 -0.9171
vn -0.1371 -0.2251 -0.9646
vn -0.0250 -0.2202 -0.9751
vn -0.0000 0.2088 0.9780
vn -0.0945 0.9815 -0.1665
vn -0.0945 -0.4600 0.8829
vn -0.0945 0.5346 0.8398
vn -0.0945 0.3466 -0.9332
vn -0.0945 0.4600 -0.8829
vn -0.0945 0.9815 -0.1664
vt 0.028850 0.974432
vt 0.120582 0.957246
vt 0.119189 0.959573
s 1
usemtl MAIN
f 6/1/1 1/1/1 2/1/1
f 4/1/2 2/1/3 1/1/2
f 5/1/1 3/1/1 1/1/1
f 3/1/4 4/1/2 1/1/2
f 6/2/3 8/2/2 5/2/2
f 8/2/2 7/2/4 5/2/2
f 12/3/1 8/3/1 9/3/1
f 8/3/1 13/3/1 10/3/1
f 15/3/5 11/3/6 12/3/7
f 11/3/6 16/3/8 13/3/9
f 20/3/10 14/3/11 15/3/12
f 14/3/11 17/3/13 16/3/14
f 18/3/15 19/3/16 17/3/13
f 20/3/10 18/3/15 17/3/13
f 17/3/17 22/3/18 16/3/19
f 23/3/20 17/3/20 19/3/20
f 22/3/21 21/3/22 24/3/23
f 24/3/23 23/3/24 26/3/25
f 25/3/26 26/3/25 27/3/27
f 22/3/21 25/3/26 16/3/8
f 27/3/27 28/3/28 29/3/29
f 26/3/25 23/3/24 28/3/28
f 28/3/30 19/3/30 29/3/30
f 19/3/16 30/3/31 29/3/32
f 29/3/29 32/3/33 31/3/34
f 27/3/27 31/3/34 33/3/35
f 31/3/1 35/3/1 34/3/1
f 33/3/1 34/3/1 36/3/1
f 34/2/36 38/2/37 37/2/36
f 36/2/38 37/2/36 39/2/38
f 37/1/1 41/1/1 40/1/1
f 39/1/1 40/1/1 42/1/1
f 44/1/37 40/1/36 41/1/37
f 43/1/36 42/1/38 40/1/36
f 44/1/39 46/1/39 43/1/39
f 43/1/39 46/1/39 45/1/39
f 45/1/39 46/1/39 47/1/39
f 47/1/39 46/1/39 48/1/39
f 45/1/38 49/1/40 42/1/38
f 47/1/40 3/1/4 49/1/40
f 49/1/1 39/1/1 42/1/1
f 3/1/1 50/1/1 49/1/1
f 51/2/40 39/2/38 50/2/40
f 10/2/4 50/2/40 7/2/4
f 52/3/1 36/3/1 51/3/1
f 10/3/1 52/3/1 51/3/1
f 25/3/26 33/3/35 52/3/41
f 13/3/9 25/3/26 52/3/41
f 48/1/39 46/1/39 4/1/39
f 4/1/39 46/1/39 53/1/39
f 53/1/39 46/1/39 54/1/39
f 53/1/3 56/1/42 2/1/3
f 54/1/39 46/1/39 55/1/39
f 54/1/42 57/1/43 56/1/42
f 56/1/1 6/1/1 2/1/1
f 59/1/1 56/1/1 57/1/1
f 60/2/42 6/2/3 58/2/42
f 61/2/43 58/2/42 59/2/43
f 60/3/1 12/3/1 9/3/1
f 63/3/1 60/3/1 61/3/1
f 64/3/44 12/3/7 62/3/45
f 63/3/46 64/3/44 62/3/45
f 64/3/44 67/3/47 15/3/5
f 68/3/48 64/3/44 65/3/49
f 66/3/50 69/3/51 67/3/47
f 68/3/48 69/3/51 66/3/50
f 67/3/52 20/3/52 15/3/53
f 69/3/54 71/3/54 20/3/54
f 71/3/55 72/3/55 73/3/55
f 72/3/56 70/3/57 68/3/48
f 72/3/56 65/3/49 73/3/58
f 75/3/59 65/3/49 63/3/46
f 74/3/60 71/3/61 73/3/62
f 76/3/63 73/3/58 75/3/59
f 75/3/1 61/3/1 77/3/1
f 78/3/1 75/3/1 77/3/1
f 77/2/64 59/2/43 79/2/64
f 78/2/65 79/2/64 80/2/65
f 79/1/1 57/1/1 81/1/1
f 82/1/1 79/1/1 81/1/1
f 55/1/43 81/1/64 57/1/43
f 83/1/64 82/1/65 81/1/64
f 55/1/39 46/1/39 83/1/39
f 83/1/39 46/1/39 84/1/39
f 84/1/39 46/1/39 85/1/39
f 85/1/39 46/1/39 86/1/39
f 84/1/65 87/1/66 82/1/65
f 85/1/66 88/1/67 87/1/66
f 87/1/1 80/1/1 82/1/1
f 90/1/1 87/1/1 88/1/1
f 91/2/66 80/2/65 89/2/66
f 92/2/67 89/2/66 90/2/67
f 91/3/1 76/3/1 78/3/1
f 94/3/1 91/3/1 92/3/1
f 95/3/68 76/3/63 93/3/69
f 96/3/70 93/3/69 94/3/71
f 97/3/72 74/3/60 95/3/73
f 96/3/70 98/3/74 95/3/68
f 98/3/75 97/3/75 95/3/75
f 99/3/76 100/3/77 98/3/74
f 103/3/78 100/3/77 99/3/76
f 97/3/79 101/3/79 104/3/79
f 104/3/80 102/3/80 107/3/80
f 102/3/81 101/3/82 103/3/78
f 106/3/83 105/3/84 128/3/85
f 105/3/84 104/3/86 107/3/87
f 109/3/88 104/3/86 106/3/83
f 104/3/86 110/3/89 97/3/72
f 111/3/90 108/3/91 109/3/88
f 110/3/89 71/3/61 97/3/72
f 111/3/90 20/3/10 71/3/61
f 112/3/92 109/3/88 113/3/93
f 113/3/93 18/3/15 112/3/92
f 115/3/94 109/3/88 106/3/83
f 114/3/95 115/3/94 118/3/96
f 115/3/97 122/3/97 119/3/97
f 106/3/98 116/3/98 115/3/98
f 117/3/99 115/3/94 119/3/100
f 118/3/96 117/3/99 156/3/101
f 122/3/102 120/3/103 119/3/104
f 121/3/105 120/3/103 131/3/106
f 153/3/107 119/3/104 121/3/105
f 122/3/102 116/3/108 123/3/109
f 120/3/103 124/3/110 127/3/111
f 123/3/109 126/3/112 124/3/110
f 127/3/111 125/3/113 128/3/114
f 124/3/110 126/3/112 125/3/113
f 127/3/111 130/3/115 129/3/116
f 120/3/103 129/3/116 131/3/106
f 132/3/1 130/3/1 133/3/1
f 131/3/1 132/3/1 134/3/1
f 132/2/117 136/2/118 135/2/117
f 134/2/119 135/2/117 137/2/119
f 138/1/1 136/1/1 139/1/1
f 140/1/1 135/1/1 138/1/1
f 142/1/118 138/1/117 139/1/118
f 141/1/117 140/1/119 138/1/117
f 142/1/39 46/1/39 141/1/39
f 141/1/39 46/1/39 143/1/39
f 143/1/39 46/1/39 144/1/39
f 144/1/39 46/1/39 145/1/39
f 140/1/119 144/1/120 146/1/120
f 144/1/120 147/1/121 146/1/120
f 148/1/1 140/1/1 146/1/1
f 149/1/1 146/1/1 147/1/1
f 150/2/120 137/2/119 148/2/120
f 151/2/121 148/2/120 149/2/121
f 150/3/1 131/3/1 134/3/1
f 151/3/1 121/3/1 150/3/1
f 154/3/1 151/3/1 152/3/1
f 152/2/122 149/2/121 223/2/122
f 156/3/123 153/3/107 154/3/124
f 157/3/125 154/3/124 155/3/126
f 224/3/1 154/3/1 152/3/1
f 157/3/125 158/3/127 156/3/123
f 158/3/128 118/3/128 156/3/128
f 159/3/129 160/3/130 158/3/127
f 161/3/131 159/3/129 163/3/132
f 160/3/133 164/3/133 118/3/133
f 162/3/134 161/3/131 163/3/132
f 164/3/135 162/3/135 167/3/135
f 165/3/136 164/3/137 167/3/138
f 166/3/139 165/3/136 206/3/140
f 168/3/141 118/3/96 164/3/137
f 166/3/139 168/3/141 164/3/137
f 171/3/142 168/3/141 169/3/143
f 114/3/95 170/3/144 18/3/15
f 170/3/144 172/3/145 19/3/16
f 172/3/145 169/3/143 166/3/139
f 30/3/31 172/3/145 173/3/146
f 166/3/147 174/3/147 172/3/147
f 172/3/148 177/3/148 173/3/148
f 176/3/149 175/3/150 178/3/151
f 177/3/152 174/3/153 176/3/149
f 177/3/152 179/3/154 173/3/155
f 179/3/154 178/3/151 180/3/156
f 179/3/154 182/3/157 181/3/158
f 183/3/159 179/3/154 181/3/158
f 184/3/1 182/3/1 185/3/1
f 183/3/1 184/3/1 186/3/1
f 184/2/160 188/2/161 187/2/160
f 186/2/162 187/2/160 189/2/162
f 187/1/1 191/1/1 190/1/1
f 192/1/1 187/1/1 190/1/1
f 194/1/161 190/1/160 191/1/161
f 193/1/160 192/1/162 190/1/160
f 194/1/39 46/1/39 193/1/39
f 193/1/39 46/1/39 195/1/39
f 195/1/39 46/1/39 44/1/39
f 196/1/39 46/1/39 194/1/39
f 197/1/39 46/1/39 196/1/39
f 197/1/163 198/1/164 199/1/163
f 196/1/164 191/1/161 198/1/164
f 200/1/1 199/1/1 198/1/1
f 188/1/1 198/1/1 191/1/1
f 202/2/164 201/2/163 200/2/164
f 185/2/161 200/2/164 188/2/161
f 204/3/1 203/3/1 202/3/1
f 182/3/1 202/3/1 185/3/1
f 206/3/165 205/3/166 204/3/167
f 180/3/156 204/3/167 182/3/157
f 180/3/156 207/3/168 206/3/165
f 207/3/169 166/3/169 206/3/169
f 178/3/151 175/3/150 207/3/168
f 205/3/166 167/3/170 208/3/171
f 203/3/1 208/3/1 210/3/1
f 208/3/171 225/3/172 209/3/173
f 208/3/1 211/3/1 210/3/1
f 210/2/174 213/2/175 212/2/174
f 203/2/163 212/2/174 201/2/163
f 212/1/1 215/1/1 214/1/1
f 199/1/1 212/1/1 214/1/1
f 217/1/175 214/1/174 215/1/175
f 216/1/174 199/1/163 214/1/174
f 217/1/39 46/1/39 216/1/39
f 216/1/39 46/1/39 197/1/39
f 218/1/39 46/1/39 217/1/39
f 219/1/39 46/1/39 218/1/39
f 219/1/122 220/1/176 221/1/122
f 218/1/176 215/1/175 220/1/176
f 220/1/1 223/1/1 221/1/1
f 213/1/1 220/1/1 215/1/1
f 224/2/176 223/2/122 222/2/176
f 211/2/175 222/2/176 213/2/175
f 209/3/1 224/3/1 211/3/1
f 221/1/1 149/1/1 147/1/1
f 147/1/121 219/1/122 221/1/122
f 145/1/39 46/1/39 219/1/39
f 225/3/172 155/3/126 209/3/173
f 225/3/172 159/3/129 157/3/125
f 162/3/134 225/3/172 167/3/170
f 195/1/177 41/1/37 192/1/162
f 41/1/1 189/1/1 192/1/1
f 35/2/37 189/2/162 38/2/37
f 32/3/1 186/3/1 35/3/1
f 32/3/33 173/3/155 183/3/159
f 226/1/39 46/1/39 142/1/39
f 227/1/39 46/1/39 226/1/39
f 227/1/178 228/1/179 229/1/180
f 226/1/179 139/1/118 228/1/179
f 228/1/1 231/1/1 229/1/1
f 136/1/1 228/1/1 139/1/1
f 232/2/179 231/2/180 230/2/179
f 133/2/118 230/2/179 136/2/118
f 232/3/1 235/3/1 233/3/1
f 130/3/1 232/3/1 133/3/1
f 234/3/181 107/3/182 235/3/183
f 128/3/114 234/3/181 130/3/115
f 235/3/183 238/3/184 236/3/185
f 235/3/1 237/3/1 233/3/1
f 238/3/184 94/3/71 236/3/185
f 237/3/1 94/3/1 92/3/1
f 238/3/184 99/3/76 96/3/70
f 102/3/81 238/3/184 107/3/182
f 237/2/186 90/2/67 239/2/186
f 233/2/180 239/2/186 231/2/180
f 239/1/1 88/1/1 240/1/1
f 229/1/1 239/1/1 240/1/1
f 86/1/67 240/1/186 88/1/67
f 241/1/186 229/1/180 240/1/186
f 86/1/39 46/1/39 241/1/39
f 241/1/39 46/1/39 227/1/39
f 125/3/187 106/3/187 128/3/187
f 6/1/1 5/1/1 1/1/1
f 4/1/2 53/1/3 2/1/3
f 5/1/1 7/1/1 3/1/1
f 3/1/4 48/1/4 4/1/2
f 6/2/3 9/2/3 8/2/2
f 8/2/2 10/2/4 7/2/4
f 12/3/1 11/3/1 8/3/1
f 8/3/1 11/3/1 13/3/1
f 15/3/5 14/3/6 11/3/6
f 11/3/6 14/3/6 16/3/8
f 20/3/10 17/3/13 14/3/11
f 18/3/15 170/3/144 19/3/16
f 20/3/10 112/3/92 18/3/15
f 17/3/17 21/3/17 22/3/18
f 23/3/20 21/3/20 17/3/20
f 24/3/23 21/3/22 23/3/24
f 25/3/26 24/3/23 26/3/25
f 22/3/21 24/3/23 25/3/26
f 27/3/27 26/3/25 28/3/28
f 28/3/30 23/3/30 19/3/30
f 19/3/16 172/3/145 30/3/31
f 29/3/29 30/3/33 32/3/33
f 27/3/27 29/3/29 31/3/34
f 31/3/1 32/3/1 35/3/1
f 33/3/1 31/3/1 34/3/1
f 34/2/36 35/2/37 38/2/37
f 36/2/38 34/2/36 37/2/36
f 37/1/1 38/1/1 41/1/1
f 39/1/1 37/1/1 40/1/1
f 44/1/37 43/1/36 40/1/36
f 43/1/36 45/1/38 42/1/38
f 45/1/38 47/1/40 49/1/40
f 47/1/40 48/1/4 3/1/4
f 49/1/1 50/1/1 39/1/1
f 3/1/1 7/1/1 50/1/1
f 51/2/40 36/2/38 39/2/38
f 10/2/4 51/2/40 50/2/40
f 52/3/1 33/3/1 36/3/1
f 10/3/1 13/3/1 52/3/1
f 25/3/26 27/3/27 33/3/35
f 13/3/9 16/3/8 25/3/26
f 53/1/3 54/1/42 56/1/42
f 54/1/42 55/1/43 57/1/43
f 56/1/1 58/1/1 6/1/1
f 59/1/1 58/1/1 56/1/1
f 60/2/42 9/2/3 6/2/3
f 61/2/43 60/2/42 58/2/42
f 60/3/1 62/3/1 12/3/1
f 63/3/1 62/3/1 60/3/1
f 64/3/44 15/3/5 12/3/7
f 63/3/46 65/3/49 64/3/44
f 64/3/44 66/3/50 67/3/47
f 68/3/48 66/3/50 64/3/44
f 68/3/48 70/3/57 69/3/51
f 67/3/52 69/3/52 20/3/52
f 69/3/54 70/3/54 71/3/54
f 71/3/55 70/3/55 72/3/55
f 72/3/56 68/3/48 65/3/49
f 75/3/59 73/3/58 65/3/49
f 76/3/63 74/3/63 73/3/58
f 75/3/1 63/3/1 61/3/1
f 78/3/1 76/3/1 75/3/1
f 77/2/64 61/2/43 59/2/43
f 78/2/65 77/2/64 79/2/64
f 79/1/1 59/1/1 57/1/1
f 82/1/1 80/1/1 79/1/1
f 55/1/43 83/1/64 81/1/64
f 83/1/64 84/1/65 82/1/65
f 84/1/65 85/1/66 87/1/66
f 85/1/66 86/1/67 88/1/67
f 87/1/1 89/1/1 80/1/1
f 90/1/1 89/1/1 87/1/1
f 91/2/66 78/2/65 80/2/65
f 92/2/67 91/2/66 89/2/66
f 91/3/1 93/3/1 76/3/1
f 94/3/1 93/3/1 91/3/1
f 95/3/68 74/3/63 76/3/63
f 96/3/70 95/3/68 93/3/69
f 97/3/72 71/3/61 74/3/60
f 96/3/70 99/3/76 98/3/74
f 98/3/75 100/3/75 97/3/75
f 103/3/78 101/3/82 100/3/77
f 97/3/79 100/3/79 101/3/79
f 104/3/80 101/3/188 102/3/80
f 106/3/83 104/3/86 105/3/84
f 109/3/88 108/3/91 104/3/86
f 104/3/86 108/3/91 110/3/89
f 111/3/90 110/3/89 108/3/91
f 110/3/89 111/3/90 71/3/61
f 111/3/90 112/3/92 20/3/10
f 112/3/92 111/3/90 109/3/88
f 113/3/93 114/3/95 18/3/15
f 115/3/94 113/3/93 109/3/88
f 114/3/95 113/3/93 115/3/94
f 115/3/97 116/3/189 122/3/97
f 106/3/98 126/3/98 116/3/98
f 118/3/96 115/3/94 117/3/99
f 122/3/102 123/3/109 120/3/103
f 121/3/105 119/3/104 120/3/103
f 153/3/107 117/3/107 119/3/104
f 120/3/103 123/3/109 124/3/110
f 123/3/109 116/3/108 126/3/112
f 127/3/111 124/3/110 125/3/113
f 127/3/111 128/3/114 130/3/115
f 120/3/103 127/3/111 129/3/116
f 132/3/1 129/3/1 130/3/1
f 131/3/1 129/3/1 132/3/1
f 132/2/117 133/2/118 136/2/118
f 134/2/119 132/2/117 135/2/117
f 138/1/1 135/1/1 136/1/1
f 140/1/1 137/1/1 135/1/1
f 142/1/118 141/1/117 138/1/117
f 141/1/117 143/1/119 140/1/119
f 140/1/119 143/1/119 144/1/120
f 144/1/120 145/1/121 147/1/121
f 148/1/1 137/1/1 140/1/1
f 149/1/1 148/1/1 146/1/1
f 150/2/120 134/2/119 137/2/119
f 151/2/121 150/2/120 148/2/120
f 150/3/1 121/3/1 131/3/1
f 151/3/1 153/3/1 121/3/1
f 154/3/1 153/3/1 151/3/1
f 152/2/122 151/2/121 149/2/121
f 156/3/123 117/3/107 153/3/107
f 157/3/125 156/3/123 154/3/124
f 224/3/1 155/3/1 154/3/1
f 157/3/125 159/3/129 158/3/127
f 158/3/128 160/3/190 118/3/128
f 161/3/131 160/3/130 159/3/129
f 160/3/133 161/3/133 164/3/133
f 164/3/135 161/3/135 162/3/135
f 166/3/139 164/3/137 165/3/136
f 168/3/141 114/3/95 118/3/96
f 166/3/139 169/3/143 168/3/141
f 171/3/142 170/3/144 168/3/141
f 114/3/95 168/3/141 170/3/144
f 170/3/144 171/3/142 172/3/145
f 172/3/145 171/3/142 169/3/143
f 166/3/147 175/3/147 174/3/147
f 172/3/148 174/3/191 177/3/148
f 176/3/149 174/3/153 175/3/150
f 177/3/152 176/3/149 179/3/154
f 179/3/154 176/3/149 178/3/151
f 179/3/154 180/3/156 182/3/157
f 183/3/159 173/3/155 179/3/154
f 184/3/1 181/3/1 182/3/1
f 183/3/1 181/3/1 184/3/1
f 184/2/160 185/2/161 188/2/161
f 186/2/162 184/2/160 187/2/160
f 187/1/1 188/1/1 191/1/1
f 192/1/1 189/1/1 187/1/1
f 194/1/161 193/1/160 190/1/160
f 193/1/160 195/1/177 192/1/162
f 197/1/163 196/1/164 198/1/164
f 196/1/164 194/1/161 191/1/161
f 200/1/1 201/1/1 199/1/1
f 188/1/1 200/1/1 198/1/1
f 202/2/164 203/2/163 201/2/163
f 185/2/161 202/2/164 200/2/164
f 204/3/1 205/3/1 203/3/1
f 182/3/1 204/3/1 202/3/1
f 206/3/165 165/3/166 205/3/166
f 180/3/156 206/3/165 204/3/167
f 180/3/156 178/3/151 207/3/168
f 207/3/169 175/3/169 166/3/169
f 205/3/166 165/3/166 167/3/170
f 203/3/1 205/3/1 208/3/1
f 208/3/171 167/3/170 225/3/172
f 208/3/1 209/3/1 211/3/1
f 210/2/174 211/2/175 213/2/175
f 203/2/163 210/2/174 212/2/174
f 212/1/1 213/1/1 215/1/1
f 199/1/1 201/1/1 212/1/1
f 217/1/175 216/1/174 214/1/174
f 216/1/174 197/1/163 199/1/163
f 219/1/122 218/1/176 220/1/176
f 218/1/176 217/1/175 215/1/175
f 220/1/1 222/1/1 223/1/1
f 213/1/1 222/1/1 220/1/1
f 224/2/176 152/2/122 223/2/122
f 211/2/175 224/2/176 222/2/176
f 209/3/1 155/3/1 224/3/1
f 221/1/1 223/1/1 149/1/1
f 147/1/121 145/1/121 219/1/122
f 225/3/172 157/3/125 155/3/126
f 225/3/172 163/3/132 159/3/129
f 162/3/134 163/3/132 225/3/172
f 195/1/177 44/1/37 41/1/37
f 41/1/1 38/1/1 189/1/1
f 35/2/37 186/2/162 189/2/162
f 32/3/1 183/3/1 186/3/1
f 32/3/33 30/3/33 173/3/155
f 227/1/178 226/1/179 228/1/179
f 226/1/179 142/1/118 139/1/118
f 228/1/1 230/1/1 231/1/1
f 136/1/1 230/1/1 228/1/1
f 232/2/179 233/2/180 231/2/180
f 133/2/118 232/2/179 230/2/179
f 232/3/1 234/3/1 235/3/1
f 130/3/1 234/3/1 232/3/1
f 234/3/181 105/3/181 107/3/182
f 128/3/114 105/3/181 234/3/181
f 235/3/183 107/3/182 238/3/184
f 235/3/1 236/3/1 237/3/1
f 238/3/184 96/3/70 94/3/71
f 237/3/1 236/3/1 94/3/1
f 238/3/184 103/3/78 99/3/76
f 102/3/81 103/3/78 238/3/184
f 237/2/186 92/2/67 90/2/67
f 233/2/180 237/2/186 239/2/186
f 239/1/1 90/1/1 88/1/1
f 229/1/1 231/1/1 239/1/1
f 86/1/67 241/1/186 240/1/186
f 241/1/186 227/1/178 229/1/180
f 125/3/187 126/3/192 106/3/187
