# Blender 5.1.0
# www.blender.org
mtllib Llanta2.mtl
o wheel_fl
v 0.905102 0.002179 1.105717
v 0.905102 0.016359 1.172138
v 0.905102 0.044039 1.234160
v 0.905102 0.084010 1.289071
v 0.905102 0.134523 1.334472
v 0.905102 0.193372 1.368378
v 0.905102 0.257984 1.389308
v 0.905102 0.325537 1.396348
v 0.905102 0.393076 1.389188
v 0.905102 0.457651 1.368143
v 0.905102 0.516440 1.334131
v 0.905102 0.566872 1.288640
v 0.905102 0.606744 1.233658
v 0.905102 0.634313 1.171587
v 0.905102 0.648375 1.105141
v 0.905102 0.648314 1.037223
v 0.905102 0.634134 0.970802
v 0.905102 0.606454 0.908780
v 0.905102 0.566484 0.853869
v 0.905102 0.515970 0.808468
v 0.905102 0.457122 0.774562
v 0.905102 0.392509 0.753632
v 0.905102 0.324957 0.746592
v 0.905102 0.257418 0.753752
v 0.905102 0.192843 0.774798
v 0.905102 0.134054 0.808809
v 0.905102 0.083622 0.854300
v 0.905102 0.043750 0.909282
v 0.905102 0.016180 0.971352
v 0.905102 0.002119 1.037799
v 0.652940 0.002179 1.105717
v 0.652940 0.016359 1.172138
v 0.652940 0.044039 1.234160
v 0.652940 0.084010 1.289071
v 0.652940 0.134523 1.334472
v 0.652940 0.193372 1.368378
v 0.652940 0.257984 1.389309
v 0.652940 0.325537 1.396348
v 0.652940 0.393076 1.389188
v 0.652940 0.457651 1.368143
v 0.652940 0.516440 1.334131
v 0.652940 0.566872 1.288640
v 0.652940 0.606744 1.233658
v 0.652940 0.634313 1.171587
v 0.652940 0.648375 1.105141
v 0.652940 0.648314 1.037223
v 0.652940 0.634134 0.970802
v 0.652940 0.606454 0.908780
v 0.652940 0.566484 0.853869
v 0.652940 0.515970 0.808468
v 0.652940 0.457122 0.774562
v 0.652940 0.392509 0.753632
v 0.652939 0.324957 0.746592
v 0.652940 0.257418 0.753752
v 0.652940 0.192843 0.774798
v 0.652940 0.134054 0.808809
v 0.652940 0.083622 0.854300
v 0.652940 0.043750 0.909282
v 0.652940 0.016180 0.971353
v 0.652940 0.002119 1.037799
v 0.652939 0.325247 1.071470
v 0.905102 0.122144 1.093000
v 0.905102 0.131058 1.134757
v 0.905102 0.148460 1.173748
v 0.905102 0.173588 1.208269
v 0.905102 0.205344 1.236812
v 0.905102 0.242341 1.258128
v 0.905102 0.282961 1.271286
v 0.905102 0.325429 1.275711
v 0.905102 0.367889 1.271210
v 0.905102 0.408486 1.257979
v 0.905102 0.445444 1.236597
v 0.905102 0.477149 1.207999
v 0.905102 0.502216 1.173433
v 0.905102 0.519548 1.134411
v 0.905102 0.528388 1.092638
v 0.905102 0.528350 1.049940
v 0.905102 0.519435 1.008183
v 0.905102 0.502034 0.969192
v 0.905102 0.476906 0.934671
v 0.905102 0.445149 0.906128
v 0.905102 0.408153 0.884813
v 0.905102 0.367533 0.871655
v 0.905102 0.325065 0.867229
v 0.905102 0.282605 0.871730
v 0.905102 0.242008 0.884961
v 0.905102 0.205050 0.906343
v 0.905102 0.173344 0.934942
v 0.905102 0.148278 0.969507
v 0.905102 0.130946 1.008529
v 0.905102 0.122106 1.050302
v 0.910478 0.122144 1.093000
v 0.910478 0.131058 1.134757
v 0.910478 0.148460 1.173748
v 0.910478 0.173588 1.208269
v 0.910478 0.205344 1.236812
v 0.910478 0.242341 1.258128
v 0.910478 0.282961 1.271286
v 0.910478 0.325429 1.275711
v 0.910478 0.367889 1.271210
v 0.910478 0.408486 1.257979
v 0.910478 0.445444 1.236597
v 0.910478 0.477149 1.207999
v 0.910478 0.502216 1.173433
v 0.910478 0.519548 1.134411
v 0.910478 0.528388 1.092638
v 0.910478 0.528350 1.049940
v 0.910478 0.519435 1.008183
v 0.910478 0.502034 0.969192
v 0.910478 0.476906 0.934671
v 0.910478 0.445149 0.906128
v 0.910478 0.408153 0.884813
v 0.910478 0.367533 0.871655
v 0.910478 0.325065 0.867229
v 0.910478 0.282605 0.871730
v 0.910478 0.242008 0.884961
v 0.910478 0.205050 0.906343
v 0.910478 0.173344 0.934942
v 0.910478 0.148278 0.969507
v 0.910478 0.130946 1.008529
v 0.910478 0.122106 1.050302
v 0.910478 0.145312 1.090544
v 0.910478 0.153210 1.127538
v 0.910478 0.168626 1.162081
v 0.910478 0.190888 1.192664
v 0.910478 0.219022 1.217951
v 0.910478 0.251798 1.236835
v 0.910478 0.287785 1.248492
v 0.910478 0.325408 1.252413
v 0.910478 0.363025 1.248425
v 0.910478 0.398990 1.236704
v 0.910478 0.431733 1.217761
v 0.910478 0.459822 1.192425
v 0.910478 0.482029 1.161802
v 0.910478 0.497384 1.127231
v 0.910478 0.505215 1.090223
v 0.910478 0.505182 1.052396
v 0.910478 0.497284 1.015402
v 0.910478 0.481867 0.980859
v 0.910478 0.459606 0.950276
v 0.910478 0.431472 0.924989
v 0.910478 0.398695 0.906105
v 0.910478 0.362709 0.894448
v 0.910478 0.325085 0.890527
v 0.910478 0.287469 0.894515
v 0.910478 0.251503 0.906236
v 0.910478 0.218761 0.925179
v 0.910478 0.190672 0.950516
v 0.910478 0.168465 0.981138
v 0.910478 0.153110 1.015709
v 0.910478 0.145278 1.052717
v 0.892558 0.145707 1.090503
v 0.892558 0.152019 1.120071
v 0.892558 0.168626 1.162081
v 0.892558 0.190888 1.192664
v 0.892558 0.225761 1.221379
v 0.892558 0.251959 1.236473
v 0.892558 0.280723 1.245790
v 0.892558 0.325408 1.252413
v 0.892558 0.363025 1.248425
v 0.892558 0.405329 1.232581
v 0.892558 0.431500 1.217440
v 0.892558 0.453951 1.197189
v 0.892558 0.482029 1.161802
v 0.892558 0.497384 1.127231
v 0.892558 0.504814 1.082673
v 0.892558 0.504787 1.052438
v 0.892558 0.498474 1.022869
v 0.892558 0.481867 0.980859
v 0.892558 0.459606 0.950276
v 0.892558 0.424732 0.921562
v 0.892558 0.398534 0.906467
v 0.892558 0.369771 0.897150
v 0.892558 0.325085 0.890527
v 0.892558 0.287469 0.894515
v 0.892558 0.245165 0.910359
v 0.892558 0.218994 0.925499
v 0.892558 0.196543 0.945751
v 0.892558 0.168465 0.981138
v 0.892558 0.153110 1.015709
v 0.892558 0.145680 1.060267
v 0.898086 0.201028 1.029248
v 0.905773 0.381034 1.080680
v 0.898086 0.210638 1.007613
v 0.905773 0.369483 1.106687
v 0.898086 0.299702 0.942783
v 0.905773 0.361117 1.027761
v 0.898086 0.323244 0.940288
v 0.905773 0.377864 1.050768
v 0.898086 0.423921 0.985004
v 0.905773 0.333627 1.015551
v 0.898086 0.437853 1.004144
v 0.905773 0.305329 1.018551
v 0.898086 0.449465 1.113691
v 0.905773 0.269459 1.062260
v 0.898086 0.439856 1.135327
v 0.905773 0.281010 1.036253
v 0.898086 0.350791 1.200157
v 0.905773 0.272630 1.092172
v 0.898086 0.327250 1.202653
v 0.905773 0.289376 1.115179
v 0.898086 0.226573 1.157936
v 0.905773 0.345165 1.124389
v 0.898086 0.212641 1.138796
v 0.905773 0.316866 1.127389
v 0.851647 0.179150 1.159351
v 0.851647 0.166043 1.126194
v 0.851647 0.196721 1.183489
v 0.851647 0.224245 1.206152
v 0.851647 0.328306 1.241934
v 0.851647 0.293037 1.236706
v 0.851647 0.357995 1.238786
v 0.851647 0.391384 1.226281
v 0.851647 0.474402 1.154053
v 0.851647 0.452241 1.181983
v 0.851647 0.486521 1.126767
v 0.851647 0.492386 1.091599
v 0.851647 0.471343 0.983589
v 0.851647 0.484451 1.016746
v 0.851647 0.453773 0.959451
v 0.851647 0.426249 0.936788
v 0.851647 0.322188 0.901006
v 0.851647 0.357457 0.906234
v 0.851647 0.292499 0.904154
v 0.851647 0.259110 0.916659
v 0.851647 0.176092 0.988887
v 0.851647 0.198253 0.960957
v 0.851647 0.163973 1.016172
v 0.851647 0.158108 1.051340
v 0.814789 0.321582 0.927466
v 0.814789 0.328911 1.215474
v 0.814789 0.448126 0.996295
v 0.814789 0.189338 1.023727
v 0.814789 0.202368 1.146646
v 0.814789 0.198704 1.002641
v 0.814789 0.451791 1.140299
v 0.814789 0.434548 0.977640
v 0.814789 0.298638 0.929898
v 0.814789 0.461156 1.119212
v 0.814789 0.351855 1.213042
v 0.814789 0.215946 1.165300
vn -0.0000 0.2088 0.9780
vn -0.0000 0.0009 1.0000
vn -0.0000 -0.0009 -1.0000
vn -0.0000 0.2070 -0.9783
vn -0.0000 0.4076 0.9132
vn -0.0000 -0.2088 -0.9780
vn -0.0000 0.5885 0.8085
vn -0.0000 0.4075 0.9132
vn -0.0000 -0.4076 -0.9132
vn -0.0000 0.7437 0.6685
vn -0.0000 -0.5885 -0.8085
vn -0.0000 0.8665 0.4992
vn -0.0000 -0.7437 -0.6685
vn -0.0000 0.9513 0.3082
vn -0.0000 -0.8665 -0.4992
vn -0.0000 0.9946 0.1036
vn -0.0000 -0.9508 0.3099
vn -0.0000 -0.9944 0.1054
vn -0.0000 -0.9513 -0.3082
vn -0.0000 0.9944 -0.1054
vn -0.0000 -0.8656 0.5008
vn -0.0000 -0.9946 -0.1036
vn -0.0000 0.9508 -0.3099
vn -0.0000 -0.7425 0.6698
vn -0.0000 0.8656 -0.5008
vn -0.0000 -0.5871 0.8095
vn -0.0000 0.7425 -0.6698
vn -0.0000 -0.4059 0.9139
vn -0.0000 0.5871 -0.8095
vn -0.0000 -0.2070 0.9783
vn -0.0000 0.4059 -0.9139
vn -1.0000 -0.0000 -0.0000
vn 1.0000 -0.0000 -0.0000
vn 0.0395 -0.3967 -0.9171
vn 0.1371 -0.2251 -0.9646
vn 0.0991 -0.4121 -0.9057
vn 0.0250 -0.0108 0.9996
vn 0.1371 0.2251 0.9646
vn 0.0250 0.2202 0.9751
vn 0.0221 -0.5884 -0.8083
vn 0.0395 0.3967 0.9171
vn 0.0990 0.4121 0.9057
vn 0.0990 -0.7353 -0.6705
vn 0.0395 -0.7508 -0.6593
vn 0.0221 0.5884 0.8083
vn 0.1371 -0.8488 -0.5107
vn 0.0250 -0.8603 -0.5092
vn 0.0990 0.7353 0.6705
vn 0.0395 0.7508 0.6593
vn 0.1371 -0.9480 -0.2873
vn 0.0250 -0.9546 -0.2969
vn 0.1371 0.8488 0.5107
vn 0.0250 0.8603 0.5092
vn 0.0395 -0.9926 -0.1150
vn 0.0991 -0.9904 -0.0960
vn 0.0221 0.9942 -0.1054
vn 0.0991 0.9483 -0.3015
vn 0.0395 0.9464 -0.3205
vn 0.1371 0.9480 0.2873
vn 0.0250 0.9546 0.2969
vn 0.0221 -0.9942 0.1054
vn 0.1371 0.8667 -0.4797
vn 0.0250 0.8711 -0.4904
vn 0.0395 0.9926 0.1150
vn 0.0990 0.9904 0.0960
vn 0.0991 -0.9483 0.3015
vn 0.0395 -0.9464 0.3205
vn 0.1371 0.7228 -0.6773
vn 0.0250 0.7344 -0.6782
vn 0.1371 -0.8666 0.4797
vn 0.0250 -0.8711 0.4904
vn 0.0395 0.5959 -0.8021
vn 0.0990 0.5783 -0.8098
vn 0.1371 -0.7228 0.6773
vn 0.0250 -0.7344 0.6782
vn 0.0221 0.4058 -0.9137
vn 0.0395 -0.5959 0.8021
vn 0.0990 -0.5783 0.8098
vn 0.0990 0.2131 -0.9720
vn 0.0395 0.1956 -0.9799
vn 0.0221 -0.4058 0.9137
vn 0.1371 0.0179 -0.9904
vn 0.0250 0.0108 -0.9996
vn 0.0990 -0.2131 0.9720
vn 0.0395 -0.1956 0.9799
vn 0.0250 -0.2202 -0.9751
vn 0.1371 -0.0179 0.9904
vn 0.9956 0.0541 0.0760
vn 0.9951 0.0497 0.0860
vn 0.9950 0.0395 0.0916
vn 0.0945 -0.3466 0.9333
vn 0.0945 -0.3465 0.9333
vn 0.3720 0.1361 -0.9182
vn 0.4179 0.0162 -0.9084
vn 0.0945 0.6349 0.7668
vn 0.3719 -0.5900 0.7166
vn 0.9956 0.0388 -0.0849
vn 0.9951 0.0193 -0.0975
vn 0.9958 0.0352 -0.0844
vn 0.1533 -0.1042 -0.9827
vn 0.9951 0.0496 -0.0861
vn 0.9950 0.0595 -0.0802
vn 0.9956 -0.0388 0.0849
vn 0.9951 -0.0193 0.0975
vn 0.9958 -0.0352 0.0844
vn 0.4179 -0.7948 0.4401
vn 0.4179 -0.6631 0.6211
vn 0.9951 -0.0496 0.0861
vn 0.9950 -0.0595 0.0802
vn 0.3720 0.5900 -0.7166
vn 0.1533 0.1042 0.9827
vn 0.3720 -0.8632 0.3413
vn 0.9956 -0.0929 0.0088
vn 0.9951 -0.0993 0.0001
vn 0.9950 -0.0991 -0.0116
vn 0.0945 0.9946 -0.0430
vn 0.9956 0.0929 -0.0089
vn 0.9950 0.0942 -0.0323
vn 0.9958 0.0907 -0.0117
vn 0.4179 0.6631 -0.6211
vn 0.3720 0.9156 0.1527
vn 0.9951 0.0993 -0.0001
vn 0.9950 0.0991 0.0116
vn 0.3720 0.8632 -0.3413
vn 0.4179 0.7948 -0.4401
vn 0.9950 -0.0942 0.0323
vn 0.9958 -0.0907 0.0117
vn 0.1533 0.9031 0.4011
vn 0.0945 -0.9815 0.1665
vn 0.4179 0.7785 0.4682
vn 0.4179 0.8694 0.2637
vn 0.9956 -0.0540 -0.0760
vn 0.9951 -0.0748 -0.0654
vn 0.9958 -0.0554 -0.0727
vn 0.3720 -0.9156 -0.1527
vn 0.9951 -0.0497 -0.0860
vn 0.9950 -0.0397 -0.0916
vn 0.9950 0.0751 0.0655
vn 0.9958 0.0554 0.0727
vn 0.0945 -0.9946 0.0430
vn 0.9980 -0.0362 0.0511
vn 0.9980 0.0136 -0.0612
vn 0.9980 -0.0262 -0.0570
vn 0.9980 -0.0136 0.0612
vn 0.9980 0.0598 -0.0188
vn 0.9980 -0.0624 -0.0058
vn 0.9980 -0.0598 0.0188
vn 0.9980 0.0462 0.0424
vn 0.9980 0.0262 0.0570
vn 0.9980 -0.0462 -0.0424
vn 0.9980 0.0362 -0.0511
vn 0.9980 0.0624 0.0058
vn 0.4179 0.2063 0.8848
vn 0.5827 0.0251 0.8123
vn 0.5827 0.1457 0.7995
vn 0.3720 -0.3256 -0.8693
vn 0.4179 -0.2063 -0.8848
vn 0.5827 -0.1457 -0.7995
vn 0.4179 -0.0162 0.9084
vn 0.3720 -0.1361 0.9182
vn 0.5827 -0.0251 -0.8123
vn 0.5827 -0.6195 0.5260
vn 0.5827 0.6195 -0.5260
vn 0.5827 -0.6909 0.4279
vn 0.5827 0.6909 -0.4279
vn 0.5827 0.7653 0.2735
vn 0.5827 0.7160 0.3844
vn 0.4179 -0.8694 -0.2637
vn 0.5827 -0.7653 -0.2735
vn 0.3720 0.7272 0.5770
vn 0.5827 -0.7160 -0.3844
vn 0.4179 -0.7785 -0.4682
vn 0.3720 -0.7272 -0.5770
vn 0.3720 0.3256 0.8693
vn 0.0945 -0.5345 -0.8399
vn 0.0945 -0.5346 -0.8398
vn 0.0945 0.5346 0.8398
vn 0.0945 0.5345 0.8398
vn 0.1533 -0.7989 0.5815
vn 0.0945 0.3466 -0.9332
vn 0.0945 0.3465 -0.9333
vn 0.0945 0.3466 -0.9333
vn 0.1533 0.7989 -0.5815
vn 0.0945 0.9815 -0.1665
vn 0.0944 0.9815 -0.1665
vn 0.0945 -0.6349 -0.7668
vn 0.0945 0.4600 -0.8829
vn 0.0945 0.4601 -0.8828
vn 0.0945 -0.4600 0.8829
vn 0.1533 -0.9031 -0.4011
vn 0.0945 -0.3466 0.9332
vn 0.0945 -0.5345 -0.8398
vn 0.0945 0.5345 0.8399
vn 0.0945 0.9815 -0.1664
vn 0.0945 -0.4601 0.8828
vt 0.028850 0.974432
vt 0.120582 0.957246
vt 0.119189 0.959573
s 1
usemtl MAIN
f 9/1/1 38/1/2 8/1/2
f 23/1/3 52/1/4 22/1/4
f 10/1/5 39/1/1 9/1/1
f 24/1/6 53/1/3 23/1/3
f 11/1/7 40/1/8 10/1/5
f 25/1/9 54/1/6 24/1/6
f 12/1/10 41/1/7 11/1/7
f 25/1/9 56/1/11 55/1/9
f 13/1/12 42/1/10 12/1/10
f 27/1/13 56/1/11 26/1/11
f 14/1/14 43/1/12 13/1/12
f 28/1/15 57/1/13 27/1/13
f 15/1/16 44/1/14 14/1/14
f 2/1/17 31/1/18 1/1/18
f 29/1/19 58/1/15 28/1/15
f 16/1/20 45/1/16 15/1/16
f 3/1/21 32/1/17 2/1/17
f 30/1/22 59/1/19 29/1/19
f 17/1/23 46/1/20 16/1/20
f 4/1/24 33/1/21 3/1/21
f 1/1/18 60/1/22 30/1/22
f 18/1/25 47/1/23 17/1/23
f 5/1/26 34/1/24 4/1/24
f 19/1/27 48/1/25 18/1/25
f 6/1/28 35/1/26 5/1/26
f 20/1/29 49/1/27 19/1/27
f 7/1/30 36/1/28 6/1/28
f 21/1/31 50/1/29 20/1/29
f 8/1/2 37/1/30 7/1/30
f 21/1/31 52/1/4 51/1/31
f 35/1/32 36/1/32 61/1/32
f 49/1/32 50/1/32 61/1/32
f 36/1/32 37/1/32 61/1/32
f 50/1/32 51/1/32 61/1/32
f 37/1/32 38/1/32 61/1/32
f 51/1/32 52/1/32 61/1/32
f 38/1/32 39/1/32 61/1/32
f 52/1/32 53/1/32 61/1/32
f 39/1/32 40/1/32 61/1/32
f 53/1/32 54/1/32 61/1/32
f 40/1/32 41/1/32 61/1/32
f 54/1/32 55/1/32 61/1/32
f 41/1/32 42/1/32 61/1/32
f 55/1/32 56/1/32 61/1/32
f 42/1/32 43/1/32 61/1/32
f 56/1/32 57/1/32 61/1/32
f 43/1/32 44/1/32 61/1/32
f 57/1/32 58/1/32 61/1/32
f 44/1/32 45/1/32 61/1/32
f 31/1/32 32/1/32 61/1/32
f 58/1/32 59/1/32 61/1/32
f 45/1/32 46/1/32 61/1/32
f 32/1/32 33/1/32 61/1/32
f 59/1/32 60/1/32 61/1/32
f 46/1/32 47/1/32 61/1/32
f 33/1/32 34/1/32 61/1/32
f 60/1/32 31/1/32 61/1/32
f 47/1/32 48/1/32 61/1/32
f 34/1/32 35/1/32 61/1/32
f 48/1/32 49/1/32 61/1/32
f 8/1/33 70/1/33 9/1/33
f 22/1/33 84/1/33 23/1/33
f 10/1/33 70/1/33 71/1/33
f 23/1/33 85/1/33 24/1/33
f 11/1/33 71/1/33 72/1/33
f 25/1/33 85/1/33 86/1/33
f 11/1/33 73/1/33 12/1/33
f 26/1/33 86/1/33 87/1/33
f 13/1/33 73/1/33 74/1/33
f 26/1/33 88/1/33 27/1/33
f 14/1/33 74/1/33 75/1/33
f 27/1/33 89/1/33 28/1/33
f 14/1/33 76/1/33 15/1/33
f 1/1/33 63/1/33 2/1/33
f 29/1/33 89/1/33 90/1/33
f 15/1/33 77/1/33 16/1/33
f 3/1/33 63/1/33 64/1/33
f 30/1/33 90/1/33 91/1/33
f 17/1/33 77/1/33 78/1/33
f 3/1/33 65/1/33 4/1/33
f 1/1/33 91/1/33 62/1/33
f 18/1/33 78/1/33 79/1/33
f 4/1/33 66/1/33 5/1/33
f 18/1/33 80/1/33 19/1/33
f 6/1/33 66/1/33 67/1/33
f 19/1/33 81/1/33 20/1/33
f 7/1/33 67/1/33 68/1/33
f 21/1/33 81/1/33 82/1/33
f 7/1/33 69/1/33 8/1/33
f 21/1/33 83/1/33 22/1/33
f 83/2/4 114/2/3 84/2/3
f 70/2/1 101/2/5 71/2/5
f 84/2/3 115/2/6 85/2/6
f 71/2/5 102/2/7 72/2/7
f 85/2/6 116/2/9 86/2/9
f 72/2/7 103/2/10 73/2/10
f 86/2/9 117/2/11 87/2/11
f 73/2/10 104/2/12 74/2/12
f 87/2/11 118/2/13 88/2/13
f 74/2/12 105/2/14 75/2/14
f 88/2/13 119/2/15 89/2/15
f 75/2/14 106/2/16 76/2/16
f 62/2/18 93/2/17 63/2/17
f 89/2/15 120/2/19 90/2/19
f 76/2/16 107/2/20 77/2/20
f 63/2/17 94/2/21 64/2/21
f 90/2/19 121/2/22 91/2/22
f 77/2/20 108/2/23 78/2/23
f 64/2/21 95/2/24 65/2/24
f 91/2/22 92/2/18 62/2/18
f 78/2/23 109/2/25 79/2/25
f 65/2/24 96/2/26 66/2/26
f 79/2/25 110/2/27 80/2/27
f 66/2/26 97/2/28 67/2/28
f 80/2/27 111/2/29 81/2/29
f 67/2/28 98/2/30 68/2/30
f 81/2/29 112/2/31 82/2/31
f 68/2/30 99/2/2 69/2/2
f 82/2/31 113/2/4 83/2/4
f 69/2/2 100/2/1 70/2/1
f 94/3/33 123/3/33 124/3/33
f 121/3/33 150/3/33 151/3/33
f 107/3/33 138/3/33 108/3/33
f 94/3/33 125/3/33 95/3/33
f 92/3/33 151/3/33 122/3/33
f 109/3/33 138/3/33 139/3/33
f 95/3/33 126/3/33 96/3/33
f 109/3/33 140/3/33 110/3/33
f 97/3/33 126/3/33 127/3/33
f 110/3/33 141/3/33 111/3/33
f 98/3/33 127/3/33 128/3/33
f 112/3/33 141/3/33 142/3/33
f 98/3/33 129/3/33 99/3/33
f 112/3/33 143/3/33 113/3/33
f 100/3/33 129/3/33 130/3/33
f 113/3/33 144/3/33 114/3/33
f 100/3/33 131/3/33 101/3/33
f 115/3/33 144/3/33 145/3/33
f 102/3/33 131/3/33 132/3/33
f 115/3/33 146/3/33 116/3/33
f 102/3/33 133/3/33 103/3/33
f 116/3/33 147/3/33 117/3/33
f 104/3/33 133/3/33 134/3/33
f 117/3/33 148/3/33 118/3/33
f 104/3/33 135/3/33 105/3/33
f 118/3/33 149/3/33 119/3/33
f 106/3/33 135/3/33 136/3/33
f 92/3/33 123/3/33 93/3/33
f 119/3/33 150/3/33 120/3/33
f 107/3/33 136/3/33 137/3/33
f 131/3/34 160/3/35 161/3/36
f 144/3/37 175/3/38 145/3/39
f 132/3/40 161/3/36 162/3/40
f 146/3/41 175/3/38 176/3/42
f 132/3/40 163/3/43 133/3/44
f 147/3/45 176/3/42 177/3/45
f 133/3/44 164/3/46 134/3/47
f 147/3/45 178/3/48 148/3/49
f 134/3/47 165/3/50 135/3/51
f 148/3/49 179/3/52 149/3/53
f 136/3/54 165/3/50 166/3/55
f 122/3/56 153/3/57 123/3/58
f 149/3/53 180/3/59 150/3/60
f 137/3/61 166/3/55 167/3/61
f 123/3/58 154/3/62 124/3/63
f 151/3/64 180/3/59 181/3/65
f 137/3/61 168/3/66 138/3/67
f 124/3/63 155/3/68 125/3/69
f 122/3/56 181/3/65 152/3/56
f 138/3/67 169/3/70 139/3/71
f 126/3/72 155/3/68 156/3/73
f 139/3/71 170/3/74 140/3/75
f 127/3/76 156/3/73 157/3/76
f 141/3/77 170/3/74 171/3/78
f 127/3/76 158/3/79 128/3/80
f 142/3/81 171/3/78 172/3/81
f 128/3/80 159/3/82 129/3/83
f 142/3/81 173/3/84 143/3/85
f 129/3/83 160/3/35 130/3/86
f 143/3/85 174/3/87 144/3/37
f 162/3/88 161/3/89 198/3/90
f 204/3/91 207/3/92 153/3/91
f 159/3/82 211/3/93 210/3/94
f 200/3/95 211/3/95 158/3/95
f 170/3/74 221/3/96 171/3/78
f 172/3/97 188/3/98 173/3/99
f 188/3/100 238/3/100 230/3/100
f 172/3/97 171/3/101 190/3/102
f 157/3/103 200/3/104 158/3/105
f 170/3/74 218/3/106 220/3/107
f 157/3/103 156/3/108 202/3/109
f 155/3/68 209/3/110 156/3/73
f 200/3/111 240/3/111 231/3/111
f 169/3/70 219/3/112 218/3/106
f 152/3/113 181/3/114 182/3/115
f 190/3/116 221/3/116 237/3/116
f 167/3/117 192/3/118 168/3/119
f 154/3/62 208/3/120 155/3/68
f 180/3/59 229/3/121 181/3/65
f 167/3/117 166/3/122 194/3/123
f 154/3/62 207/3/124 206/3/125
f 152/3/113 204/3/126 153/3/127
f 196/3/128 239/3/128 236/3/128
f 184/3/129 227/3/129 178/3/129
f 180/3/59 226/3/130 228/3/131
f 177/3/132 184/3/133 178/3/134
f 165/3/50 217/3/135 166/3/55
f 177/3/132 176/3/136 186/3/137
f 162/3/88 196/3/138 163/3/139
f 202/3/140 209/3/140 241/3/140
f 204/3/126 201/3/141 202/3/109
f 186/3/137 191/3/142 193/3/143
f 202/3/109 205/3/144 200/3/104
f 194/3/123 189/3/145 192/3/118
f 204/3/126 195/3/146 199/3/147
f 198/3/90 185/3/148 196/3/138
f 198/3/90 205/3/144 203/3/149
f 184/3/133 195/3/146 182/3/115
f 186/3/137 197/3/150 184/3/133
f 192/3/118 187/3/151 190/3/102
f 188/3/98 187/3/151 191/3/142
f 194/3/123 185/3/148 183/3/152
f 203/3/149 201/3/141 185/3/148
f 185/3/148 199/3/147 183/3/152
f 195/3/146 183/3/152 199/3/147
f 197/3/150 189/3/145 195/3/146
f 187/3/151 193/3/143 191/3/142
f 224/3/153 230/3/154 238/3/155
f 213/3/156 212/3/157 240/3/158
f 222/3/159 223/3/160 230/3/154
f 212/3/157 231/3/161 240/3/158
f 210/3/94 211/3/93 231/3/161
f 221/3/96 220/3/107 237/3/162
f 218/3/106 237/3/162 220/3/107
f 209/3/110 208/3/120 241/3/163
f 218/3/106 219/3/112 232/3/164
f 208/3/120 234/3/165 241/3/163
f 229/3/121 228/3/131 233/3/166
f 206/3/125 207/3/124 234/3/165
f 228/3/131 235/3/167 233/3/166
f 217/3/135 216/3/168 239/3/169
f 226/3/130 227/3/170 235/3/167
f 216/3/168 236/3/171 239/3/169
f 214/3/172 215/3/173 236/3/171
f 225/3/174 224/3/153 238/3/155
f 182/3/175 229/3/175 233/3/176
f 160/3/35 210/3/94 212/3/157
f 194/3/177 217/3/178 239/3/177
f 174/3/87 223/3/160 222/3/159
f 202/3/179 234/3/179 204/3/179
f 160/3/35 213/3/156 161/3/36
f 192/3/180 219/3/181 168/3/182
f 175/3/38 222/3/159 224/3/153
f 190/3/183 232/3/183 192/3/183
f 175/3/38 225/3/174 176/3/42
f 196/3/184 215/3/185 163/3/184
f 164/3/46 215/3/173 214/3/172
f 188/3/186 223/3/186 173/3/186
f 186/3/187 225/3/188 238/3/187
f 165/3/50 214/3/172 216/3/168
f 198/3/189 213/3/189 240/3/189
f 182/3/190 235/3/190 184/3/190
f 179/3/52 227/3/170 226/3/130
f 9/1/1 39/1/1 38/1/2
f 23/1/3 53/1/3 52/1/4
f 10/1/5 40/1/8 39/1/1
f 24/1/6 54/1/6 53/1/3
f 11/1/7 41/1/7 40/1/8
f 25/1/9 55/1/9 54/1/6
f 12/1/10 42/1/10 41/1/7
f 25/1/9 26/1/11 56/1/11
f 13/1/12 43/1/12 42/1/10
f 27/1/13 57/1/13 56/1/11
f 14/1/14 44/1/14 43/1/12
f 28/1/15 58/1/15 57/1/13
f 15/1/16 45/1/16 44/1/14
f 2/1/17 32/1/17 31/1/18
f 29/1/19 59/1/19 58/1/15
f 16/1/20 46/1/20 45/1/16
f 3/1/21 33/1/21 32/1/17
f 30/1/22 60/1/22 59/1/19
f 17/1/23 47/1/23 46/1/20
f 4/1/24 34/1/24 33/1/21
f 1/1/18 31/1/18 60/1/22
f 18/1/25 48/1/25 47/1/23
f 5/1/26 35/1/26 34/1/24
f 19/1/27 49/1/27 48/1/25
f 6/1/28 36/1/28 35/1/26
f 20/1/29 50/1/29 49/1/27
f 7/1/30 37/1/30 36/1/28
f 21/1/31 51/1/31 50/1/29
f 8/1/2 38/1/2 37/1/30
f 21/1/31 22/1/4 52/1/4
f 8/1/33 69/1/33 70/1/33
f 22/1/33 83/1/33 84/1/33
f 10/1/33 9/1/33 70/1/33
f 23/1/33 84/1/33 85/1/33
f 11/1/33 10/1/33 71/1/33
f 25/1/33 24/1/33 85/1/33
f 11/1/33 72/1/33 73/1/33
f 26/1/33 25/1/33 86/1/33
f 13/1/33 12/1/33 73/1/33
f 26/1/33 87/1/33 88/1/33
f 14/1/33 13/1/33 74/1/33
f 27/1/33 88/1/33 89/1/33
f 14/1/33 75/1/33 76/1/33
f 1/1/33 62/1/33 63/1/33
f 29/1/33 28/1/33 89/1/33
f 15/1/33 76/1/33 77/1/33
f 3/1/33 2/1/33 63/1/33
f 30/1/33 29/1/33 90/1/33
f 17/1/33 16/1/33 77/1/33
f 3/1/33 64/1/33 65/1/33
f 1/1/33 30/1/33 91/1/33
f 18/1/33 17/1/33 78/1/33
f 4/1/33 65/1/33 66/1/33
f 18/1/33 79/1/33 80/1/33
f 6/1/33 5/1/33 66/1/33
f 19/1/33 80/1/33 81/1/33
f 7/1/33 6/1/33 67/1/33
f 21/1/33 20/1/33 81/1/33
f 7/1/33 68/1/33 69/1/33
f 21/1/33 82/1/33 83/1/33
f 83/2/4 113/2/4 114/2/3
f 70/2/1 100/2/1 101/2/5
f 84/2/3 114/2/3 115/2/6
f 71/2/5 101/2/5 102/2/7
f 85/2/6 115/2/6 116/2/9
f 72/2/7 102/2/7 103/2/10
f 86/2/9 116/2/9 117/2/11
f 73/2/10 103/2/10 104/2/12
f 87/2/11 117/2/11 118/2/13
f 74/2/12 104/2/12 105/2/14
f 88/2/13 118/2/13 119/2/15
f 75/2/14 105/2/14 106/2/16
f 62/2/18 92/2/18 93/2/17
f 89/2/15 119/2/15 120/2/19
f 76/2/16 106/2/16 107/2/20
f 63/2/17 93/2/17 94/2/21
f 90/2/19 120/2/19 121/2/22
f 77/2/20 107/2/20 108/2/23
f 64/2/21 94/2/21 95/2/24
f 91/2/22 121/2/22 92/2/18
f 78/2/23 108/2/23 109/2/25
f 65/2/24 95/2/24 96/2/26
f 79/2/25 109/2/25 110/2/27
f 66/2/26 96/2/26 97/2/28
f 80/2/27 110/2/27 111/2/29
f 67/2/28 97/2/28 98/2/30
f 81/2/29 111/2/29 112/2/31
f 68/2/30 98/2/30 99/2/2
f 82/2/31 112/2/31 113/2/4
f 69/2/2 99/2/2 100/2/1
f 94/3/33 93/3/33 123/3/33
f 121/3/33 120/3/33 150/3/33
f 107/3/33 137/3/33 138/3/33
f 94/3/33 124/3/33 125/3/33
f 92/3/33 121/3/33 151/3/33
f 109/3/33 108/3/33 138/3/33
f 95/3/33 125/3/33 126/3/33
f 109/3/33 139/3/33 140/3/33
f 97/3/33 96/3/33 126/3/33
f 110/3/33 140/3/33 141/3/33
f 98/3/33 97/3/33 127/3/33
f 112/3/33 111/3/33 141/3/33
f 98/3/33 128/3/33 129/3/33
f 112/3/33 142/3/33 143/3/33
f 100/3/33 99/3/33 129/3/33
f 113/3/33 143/3/33 144/3/33
f 100/3/33 130/3/33 131/3/33
f 115/3/33 114/3/33 144/3/33
f 102/3/33 101/3/33 131/3/33
f 115/3/33 145/3/33 146/3/33
f 102/3/33 132/3/33 133/3/33
f 116/3/33 146/3/33 147/3/33
f 104/3/33 103/3/33 133/3/33
f 117/3/33 147/3/33 148/3/33
f 104/3/33 134/3/33 135/3/33
f 118/3/33 148/3/33 149/3/33
f 106/3/33 105/3/33 135/3/33
f 92/3/33 122/3/33 123/3/33
f 119/3/33 149/3/33 150/3/33
f 107/3/33 106/3/33 136/3/33
f 131/3/34 130/3/86 160/3/35
f 144/3/37 174/3/87 175/3/38
f 132/3/40 131/3/34 161/3/36
f 146/3/41 145/3/39 175/3/38
f 132/3/40 162/3/40 163/3/43
f 147/3/45 146/3/41 176/3/42
f 133/3/44 163/3/43 164/3/46
f 147/3/45 177/3/45 178/3/48
f 134/3/47 164/3/46 165/3/50
f 148/3/49 178/3/48 179/3/52
f 136/3/54 135/3/51 165/3/50
f 122/3/56 152/3/56 153/3/57
f 149/3/53 179/3/52 180/3/59
f 137/3/61 136/3/54 166/3/55
f 123/3/58 153/3/57 154/3/62
f 151/3/64 150/3/60 180/3/59
f 137/3/61 167/3/61 168/3/66
f 124/3/63 154/3/62 155/3/68
f 122/3/56 151/3/64 181/3/65
f 138/3/67 168/3/66 169/3/70
f 126/3/72 125/3/69 155/3/68
f 139/3/71 169/3/70 170/3/74
f 127/3/76 126/3/72 156/3/73
f 141/3/77 140/3/75 170/3/74
f 127/3/76 157/3/76 158/3/79
f 142/3/81 141/3/77 171/3/78
f 128/3/80 158/3/79 159/3/82
f 142/3/81 172/3/81 173/3/84
f 129/3/83 159/3/82 160/3/35
f 143/3/85 173/3/84 174/3/87
f 204/3/91 234/3/191 207/3/92
f 159/3/82 158/3/79 211/3/93
f 200/3/95 231/3/95 211/3/95
f 170/3/74 220/3/107 221/3/96
f 172/3/97 190/3/102 188/3/98
f 188/3/100 186/3/100 238/3/100
f 157/3/103 202/3/109 200/3/104
f 170/3/74 169/3/70 218/3/106
f 155/3/68 208/3/120 209/3/110
f 200/3/111 198/3/111 240/3/111
f 169/3/70 168/3/66 219/3/112
f 190/3/116 171/3/116 221/3/116
f 167/3/117 194/3/123 192/3/118
f 154/3/62 206/3/125 208/3/120
f 180/3/59 228/3/131 229/3/121
f 154/3/62 153/3/57 207/3/124
f 152/3/113 182/3/115 204/3/126
f 196/3/128 194/3/128 239/3/128
f 184/3/129 235/3/129 227/3/129
f 180/3/59 179/3/52 226/3/130
f 177/3/132 186/3/137 184/3/133
f 165/3/50 216/3/168 217/3/135
f 162/3/88 198/3/90 196/3/138
f 202/3/140 156/3/140 209/3/140
f 204/3/126 199/3/147 201/3/141
f 186/3/137 188/3/98 191/3/142
f 202/3/109 201/3/141 205/3/144
f 194/3/123 183/3/152 189/3/145
f 204/3/126 182/3/115 195/3/146
f 198/3/90 203/3/149 185/3/148
f 198/3/90 200/3/104 205/3/144
f 184/3/133 197/3/150 195/3/146
f 186/3/137 193/3/143 197/3/150
f 192/3/118 189/3/145 187/3/151
f 188/3/98 190/3/102 187/3/151
f 194/3/123 196/3/138 185/3/148
f 203/3/149 205/3/144 201/3/141
f 185/3/148 201/3/141 199/3/147
f 195/3/146 189/3/145 183/3/152
f 197/3/150 187/3/151 189/3/145
f 187/3/151 197/3/150 193/3/143
f 224/3/153 222/3/159 230/3/154
f 212/3/157 210/3/94 231/3/161
f 218/3/106 232/3/164 237/3/162
f 208/3/120 206/3/125 234/3/165
f 228/3/131 226/3/130 235/3/167
f 216/3/168 214/3/172 236/3/171
f 182/3/175 181/3/192 229/3/175
f 160/3/35 159/3/82 210/3/94
f 194/3/177 166/3/193 217/3/178
f 174/3/87 173/3/84 223/3/160
f 202/3/179 241/3/179 234/3/179
f 160/3/35 212/3/157 213/3/156
f 192/3/180 232/3/180 219/3/181
f 175/3/38 174/3/87 222/3/159
f 190/3/183 237/3/183 232/3/183
f 175/3/38 224/3/153 225/3/174
f 196/3/184 236/3/194 215/3/185
f 164/3/46 163/3/43 215/3/173
f 188/3/186 230/3/186 223/3/186
f 186/3/187 176/3/188 225/3/188
f 165/3/50 164/3/46 214/3/172
f 198/3/189 161/3/195 213/3/189
f 182/3/190 233/3/190 235/3/190
f 179/3/52 178/3/48 227/3/170
